<svg width="70" height="70" fill="none" xmlns="http://www.w3.org/2000/svg"><path d="M59.343 53.28V23.246a2.492 2.492 0 00-2.495-2.494h-3.252a2.492 2.492 0 00-2.494 2.494V53.28a.7.7 0 00.082.31c.009.01 0 .019.009.028l3.435 6.003c.119.21.347.347.594.347a.669.669 0 00.594-.347l3.435-6.003c.01-.009 0-.018.01-.027a.713.713 0 00.082-.31zm-6.871-26.104h5.5v25.418h-5.5V27.176zm0-3.928c0-.622.502-1.124 1.124-1.124h3.252c.622 0 1.124.502 1.124 1.123v2.55h-5.5v-2.55zm2.75 34.654l-2.257-3.938h4.514l-2.257 3.938z" fill="#fff"/><path d="M56.691 16.477a.69.69 0 00.685-.685v-5.18a5.1 5.1 0 00-5.098-5.098H13.467a5.313 5.313 0 00-5.309 5.308v3.6H3.965a2.642 2.642 0 00-2.64 2.64v21.37a2.642 2.642 0 002.64 2.64h4.184v10.215H2.01a.69.69 0 00-.685.686v4.202a5.319 5.319 0 005.309 5.309h36.82c.027 0 .045-.01.073-.019a5.312 5.312 0 005.025-5.299V16.477h8.14zm-4.413-9.593a3.732 3.732 0 013.728 3.728v4.495h-7.455v-4.495c.009-2.056 1.68-3.728 3.727-3.728zM2.695 38.432v-21.36c0-.704.575-1.27 1.27-1.27h6.715v6.166c0 .238.119.457.32.576a.676.676 0 00.658.037l3.965-1.9 3.965 1.9a.663.663 0 00.302.064.66.66 0 00.365-.11.686.686 0 00.32-.576v-6.167h6.715c.704 0 1.27.576 1.27 1.27v21.37c0 .704-.576 1.27-1.27 1.27H3.965c-.695 0-1.27-.566-1.27-1.27zm9.365-22.64h7.144v5.07l-3.28-1.57a.678.678 0 00-.594 0l-3.27 1.57v-5.07zM6.633 60.113a3.938 3.938 0 01-3.938-3.938v-3.517h35.669v3.727a5.06 5.06 0 001.626 3.728H6.633zm40.556-3.938a3.934 3.934 0 01-3.837 3.929 3.72 3.72 0 01-3.618-3.718v-4.413a.69.69 0 00-.685-.686H9.519V41.073H27.29a2.642 2.642 0 002.64-2.64V17.07a2.642 2.642 0 00-2.64-2.64H9.52v-3.61a3.938 3.938 0 013.937-3.937h35.35a5.097 5.097 0 00-1.627 3.728v45.563h.01zm8.031-25.244a.69.69 0 00-.685.685v16.528c0 .375.31.686.685.686a.69.69 0 00.686-.686V31.617a.69.69 0 00-.686-.686z" fill="#fff"/><path d="M14.355 36.468a.69.69 0 00-.685-.685H5.93a.684.684 0 100 1.37h7.739a.679.679 0 00.685-.685zm-8.424-3.289h7.739a.69.69 0 00.685-.685.69.69 0 00-.685-.686H5.93a.684.684 0 100 1.37zM38.572 9.406c-3.271 0-5.94 2.659-5.94 5.93a5.939 5.939 0 1011.877 0c.001-3.28-2.667-5.93-5.938-5.93zm0 10.498a4.576 4.576 0 01-4.569-4.569 4.562 4.562 0 014.569-4.559 4.568 4.568 0 014.568 4.56 4.576 4.576 0 01-4.569 4.568z" fill="#fff"/><path d="M39.963 13.554l-2.12 2.12-.649-.65a.69.69 0 00-.968 0 .69.69 0 000 .97l1.133 1.132c.137.137.31.201.484.201a.677.677 0 00.484-.2l2.604-2.605a.69.69 0 000-.968.69.69 0 00-.968 0zm-1.391 9.292a5.944 5.944 0 00-5.94 5.938 5.93 5.93 0 005.94 5.93 5.937 5.937 0 005.938-5.93 5.95 5.95 0 00-5.938-5.938zm0 10.497c-2.513 0-4.569-2.046-4.569-4.559a4.576 4.576 0 014.569-4.568 4.57 4.57 0 014.568 4.568 4.562 4.562 0 01-4.569 4.56z" fill="#fff"/><path d="M39.963 26.994l-2.12 2.12-.649-.65a.69.69 0 00-.968 0 .69.69 0 000 .969l1.133 1.133c.137.137.31.2.484.2a.677.677 0 00.484-.2l2.604-2.604a.69.69 0 000-.968.69.69 0 00-.968 0zm-1.391 9.291a5.939 5.939 0 100 11.878 5.939 5.939 0 000-11.878zm0 10.498a4.576 4.576 0 01-4.569-4.568 4.57 4.57 0 014.569-4.568 4.57 4.57 0 014.568 4.568 4.57 4.57 0 01-4.569 4.568z" fill="#fff"/><path d="M39.963 40.433l-2.12 2.12-.649-.649a.69.69 0 00-.968 0 .69.69 0 000 .969l1.133 1.133c.137.137.31.2.484.2a.678.678 0 00.484-.2l2.604-2.604a.69.69 0 000-.969.69.69 0 00-.968 0z" fill="#fff"/></svg>