<svg width="80" height="80" fill="none" xmlns="http://www.w3.org/2000/svg"><path d="M38.685 74.4a12.54 12.54 0 01-6.229-1.653l-14.02-7.637a.533.533 0 11.51-.937l14.03 7.64a11.484 11.484 0 009.16.987l28.885-14.911a.513.513 0 01.068-.03 3.776 3.776 0 002.324-4.715 4.028 4.028 0 00-2.08-2.359 3.044 3.044 0 00-2.44-.107c-1.463.587-3.01 1.275-4.647 2.005-5.737 2.56-12.239 5.461-17.822 4.883a.532.532 0 11.107-1.06c5.3.546 11.663-2.294 17.28-4.797 1.646-.735 3.2-1.429 4.687-2.022a4.102 4.102 0 013.285.132 5.113 5.113 0 012.64 2.992 4.85 4.85 0 01-2.948 6.042l-28.89 14.914a.506.506 0 01-.08.034 12.497 12.497 0 01-3.82.599z" fill="#fff"/><path d="M45.446 57.712h-.049l-10.486-.116a.533.533 0 01.006-1.066h.006l10.486.116a3.2 3.2 0 00.036-6.4h-11.51a.533.533 0 01-.524-.443c-.781-4.544-5.578-6.367-14.667-5.572a.534.534 0 11-.093-1.062c9.465-.83 14.613 1.138 15.722 6.01h11.072a4.267 4.267 0 110 8.533h.001z" fill="#fff"/><path d="M18.693 67.317L5.867 67.31a.533.533 0 01-.533-.533V41.513a.534.534 0 01.533-.533H18.7a.533.533 0 01.533.533l-.006 25.27a.533.533 0 01-.533.534zM6.4 66.245l11.756.005.006-24.204H6.401v24.199z" fill="#fff"/><path d="M12.752 48.235a2.166 2.166 0 110-4.33 2.166 2.166 0 010 4.33zm0-3.264a1.1 1.1 0 100 2.198 1.1 1.1 0 000-2.198zm30.984 25.135a.534.534 0 01-.245-1.007l10.4-5.37a.534.534 0 11.49.948l-10.4 5.37a.531.531 0 01-.245.059zm14.533-7.503a.534.534 0 01-.245-1.008l5.2-2.684a.534.534 0 01.49.948l-5.2 2.684a.539.539 0 01-.245.06zM8.533 58.72A.533.533 0 018 58.187v-7.112a.533.533 0 011.067 0v7.112a.533.533 0 01-.534.533zm0 5.925A.533.533 0 018 64.112v-3.348a.534.534 0 011.067 0v3.348a.533.533 0 01-.534.533zm30.066-21.658h-5.536a.533.533 0 01-.534-.534V22.846a.533.533 0 01.534-.533h5.536a.534.534 0 01.533.533v19.607a.534.534 0 01-.533.534zm-5.003-1.067h4.47V23.38h-4.47v18.54zm14.344 1.067h-5.536a.533.533 0 01-.533-.534V14.15a.533.533 0 01.533-.533h5.535a.533.533 0 01.534.533v28.303a.534.534 0 01-.534.534zm-5.002-1.067h4.468V14.684h-4.468V41.92zm14.342 1.067h-5.534a.533.533 0 01-.533-.534V20.388a.533.533 0 01.533-.534h5.535a.533.533 0 01.533.534v22.065a.533.533 0 01-.533.534zm-5.002-1.067h4.47V20.921h-4.47V41.92zm14.343 1.067h-5.535a.534.534 0 01-.533-.534V18.572a.533.533 0 01.533-.534h5.535a.534.534 0 01.534.534v23.881a.534.534 0 01-.534.534zM61.62 41.92h4.47V19.105h-4.47V41.92z" fill="#fff"/><path d="M68.97 42.987H30.72a.533.533 0 110-1.067h38.252a.534.534 0 010 1.067h-.003zM53.52 14.67a.53.53 0 01-.32-.107l-6.924-5.162a.533.533 0 01.64-.854l6.923 5.16a.533.533 0 01-.32.96v.003zm3.088.659a.533.533 0 01-.148-1.046l5.353-1.547a.534.534 0 11.296 1.024l-5.352 1.547a.528.528 0 01-.149.021zm-19.381-.636a.533.533 0 01-.33-.952l6.555-5.154a.533.533 0 01.659.838l-6.556 5.154a.533.533 0 01-.328.114z" fill="#fff"/><path d="M63.661 15.044a2.31 2.31 0 110-4.619 2.31 2.31 0 010 4.619zm0-3.553a1.243 1.243 0 100 2.487 1.243 1.243 0 000-2.487zm-18.488-1.269a2.31 2.31 0 110-4.62 2.31 2.31 0 010 4.62zm0-3.553a1.243 1.243 0 100 2.487 1.243 1.243 0 000-2.487zm-9.342 10.895a2.31 2.31 0 110-4.62 2.31 2.31 0 010 4.62zm0-3.553a1.243 1.243 0 100 2.485 1.243 1.243 0 000-2.485zm19.067 3.553a2.31 2.31 0 110-4.621 2.31 2.31 0 010 4.62zm0-3.553a1.243 1.243 0 100 2.486 1.243 1.243 0 000-2.486zM33.068 25.36a.534.534 0 01-.264-.997l3.488-1.979a.533.533 0 11.526.928l-3.487 1.979a.534.534 0 01-.263.069zm-.001 3.483a.533.533 0 01-.263-.998l5.536-3.136a.534.534 0 11.525.928l-5.538 3.136a.533.533 0 01-.26.07zm0 3.482a.532.532 0 01-.263-.997l5.536-3.136a.534.534 0 11.525.928l-5.538 3.136a.526.526 0 01-.26.07zm0 3.483a.534.534 0 01-.263-.997l5.536-3.136a.532.532 0 01.688.793.532.532 0 01-.163.135l-5.538 3.136a.533.533 0 01-.26.069zm0 3.488a.534.534 0 01-.263-.997l5.536-3.136a.532.532 0 01.688.793.532.532 0 01-.163.135l-5.538 3.136a.533.533 0 01-.26.069zm0 3.483a.533.533 0 01-.263-.998l5.536-3.136a.534.534 0 11.525.928l-5.538 3.136a.527.527 0 01-.26.07zm18.679-19.184a.534.534 0 01-.267-.998l4.715-2.672a.537.537 0 01.591.044.532.532 0 01-.065.884l-4.714 2.672a.533.533 0 01-.26.07zm.001 3.482a.534.534 0 01-.264-.997l5.536-3.136a.534.534 0 11.526.928l-5.536 3.136a.523.523 0 01-.262.07zm-.001 3.488a.533.533 0 01-.267-.997l5.536-3.14a.533.533 0 11.527.927l-5.536 3.14a.526.526 0 01-.26.07zm0 3.483a.534.534 0 01-.267-.997l5.536-3.142a.534.534 0 01.527.928l-5.536 3.142a.534.534 0 01-.26.069zm0 3.482a.534.534 0 01-.267-.997l5.536-3.14a.533.533 0 11.527.927l-5.536 3.141a.533.533 0 01-.26.07zm.001 3.483a.534.534 0 01-.264-.997l5.536-3.136a.534.534 0 11.526.928l-5.536 3.136a.523.523 0 01-.262.07zm2.672 1.974a.533.533 0 01-.264-.998l2.864-1.626a.533.533 0 11.526.928l-2.864 1.626a.528.528 0 01-.262.07z" fill="#fff"/></svg>