<svg width="80" height="80" fill="none" xmlns="http://www.w3.org/2000/svg"><path d="M28.628 46.24H9.198a.533.533 0 01-.448-.825 12.797 12.797 0 002.067-7.114c.26-2.637-.48-5.116-2.321-7.856a17.887 17.887 0 01-3.12-11.188c.413-5.565 3.396-10.064 8.185-12.343a16.52 16.52 0 015.602-1.463C25.47 4.867 30.8 6.955 34.178 11.33c2.765 3.471 3.926 6.619 3.544 9.614a5.067 5.067 0 00.893 3.52c2.752 4.015 2.823 4.907 2.847 5.2a1.397 1.397 0 01-.377 1.085c-.537.583-1.565.803-2.293.886a3.9 3.9 0 01.325 1.295 1.218 1.218 0 01-.693 1.033c.04.075.072.154.098.235a1.285 1.285 0 01-.404 1.443c-.16.126-.3.277-.412.449a.16.16 0 000 .18c.38.586.73 1.74.237 3.88a2.22 2.22 0 01-1.1 1.46c-1.825 1.067-5.447.306-6.847-.047l-.845 4.251a.534.534 0 01-.523.427zm-18.486-1.067H28.19l.867-4.38a.532.532 0 01.674-.405c1.307.388 5.038 1.197 6.57.302a1.166 1.166 0 00.598-.779c.448-1.94.083-2.79-.095-3.065a1.227 1.227 0 01.008-1.34 2.9 2.9 0 01.656-.711c.069-.054.067-.176.037-.267-.03-.09-.096-.186-.175-.188a.533.533 0 01-.093-1.056 1.62 1.62 0 00.817-.378 5.257 5.257 0 00-.542-1.508.534.534 0 01.474-.777c.736 0 1.941-.185 2.314-.592a.33.33 0 00.098-.276c-.017-.213-.259-1.173-2.661-4.681a6.126 6.126 0 01-1.074-4.26c.343-2.694-.744-5.579-3.325-8.82-3.151-4.085-8.152-6.025-14.076-5.478a15.466 15.466 0 00-5.242 1.363c-4.434 2.11-7.196 6.287-7.58 11.459a16.824 16.824 0 002.941 10.515c1.989 2.957 2.783 5.659 2.5 8.504a13.813 13.813 0 01-1.739 6.818z" fill="#fff"/><path d="M8.411 18.481a.533.533 0 01-.524-.63 12 12 0 014.54-7.568.535.535 0 01.64.854 10.95 10.95 0 00-4.13 6.907.534.534 0 01-.526.437zM15.8 9.593a.534.534 0 01-.182-1.036 14.91 14.91 0 013.195-.737.534.534 0 11.133 1.058 13.88 13.88 0 00-2.965.683.526.526 0 01-.181.032zm55.002 65.051h-19.43a.533.533 0 01-.523-.43l-.841-4.248c-1.4.353-5.022 1.113-6.847.047a2.22 2.22 0 01-1.1-1.46c-.494-2.139-.144-3.292.238-3.883a.16.16 0 000-.174 1.846 1.846 0 00-.416-.454 1.284 1.284 0 01-.402-1.44c.026-.08.059-.16.098-.234a1.22 1.22 0 01-.694-1.034c.034-.447.144-.885.326-1.295-.729-.083-1.757-.303-2.294-.886a1.394 1.394 0 01-.376-1.087c.023-.292.094-1.183 2.845-5.196a5.066 5.066 0 00.895-3.52c-.383-2.996.778-6.143 3.549-9.62 3.373-4.368 8.705-6.454 15.009-5.873 1.94.155 3.836.65 5.604 1.464 4.787 2.278 7.77 6.777 8.183 12.342a17.887 17.887 0 01-3.12 11.188c-1.842 2.74-2.58 5.22-2.323 7.803a12.87 12.87 0 002.069 7.167.533.533 0 01-.447.825l-.003-.002zM51.81 73.578h18.047a13.916 13.916 0 01-1.74-6.872c-.281-2.791.513-5.493 2.501-8.452A16.823 16.823 0 0073.56 47.74c-.384-5.173-3.147-9.347-7.579-11.457a15.474 15.474 0 00-5.244-1.364c-5.927-.548-10.924 1.394-14.07 5.468-2.587 3.246-3.674 6.133-3.33 8.827a6.128 6.128 0 01-1.076 4.26c-2.4 3.505-2.643 4.467-2.66 4.678a.334.334 0 00.098.278c.412.447 1.737.592 2.314.592a.534.534 0 01.474.776c-.262.48-.443.998-.538 1.536.24.18.518.3.812.351a.533.533 0 01-.092 1.056c-.079 0-.146.1-.175.188-.03.09-.031.217.036.267.258.2.481.442.66.716a1.226 1.226 0 01.006 1.333c-.179.278-.543 1.128-.096 3.067a1.164 1.164 0 00.598.779c1.535.894 5.263.085 6.57-.302a.533.533 0 01.675.408l.867 4.382z" fill="#fff"/><path d="M71.59 46.885a.534.534 0 01-.524-.437 10.949 10.949 0 00-4.132-6.907.533.533 0 01.64-.853 12 12 0 014.54 7.568.534.534 0 01-.524.629zm-7.389-8.888a.526.526 0 01-.181-.033 13.884 13.884 0 00-2.965-.681.535.535 0 01-.463-.596.533.533 0 01.596-.463c1.088.128 2.16.375 3.194.738a.533.533 0 01-.18 1.035zM34.882 67.226a.553.553 0 01-.102-.01 27.845 27.845 0 01-20.788-17.707.533.533 0 111.002-.365 26.774 26.774 0 0019.988 17.024.534.534 0 01-.1 1.057zm30.623-35.968a.534.534 0 01-.5-.35 26.605 26.605 0 00-18.587-16.715.534.534 0 01.258-1.035 27.671 27.671 0 0119.33 17.383.532.532 0 01-.5.717z" fill="#fff"/><path d="M65.506 31.258a.528.528 0 01-.166-.026l-4.555-1.485a.534.534 0 01.33-1.014l4.049 1.32 1.32-4.048a.533.533 0 011.013.33l-1.485 4.556a.533.533 0 01-.506.367zM13.01 54.416a.533.533 0 01-.507-.699l1.485-4.555a.532.532 0 01.672-.342l4.555 1.485a.534.534 0 11-.33 1.013l-4.049-1.32-1.32 4.05a.533.533 0 01-.507.368zm3.043-26.695h-2.24a.533.533 0 01-.534-.533v-7.103a.533.533 0 01.534-.534h2.24a.533.533 0 01.533.534v7.103a.533.533 0 01-.533.533zm-1.707-1.067h1.173v-6.036h-1.173v6.036zm6.478 1.067h-2.24a.533.533 0 01-.533-.533v-11.61a.533.533 0 01.533-.533h2.24a.533.533 0 01.533.534v11.609a.533.533 0 01-.533.533zm-1.707-1.067h1.174V16.112h-1.174v10.542zm6.479 1.067h-2.24a.533.533 0 01-.534-.533V18.08a.533.533 0 01.534-.533h2.24a.533.533 0 01.533.533v9.108a.533.533 0 01-.533.533zm-1.707-1.067h1.173v-8.04H23.89v8.04zm6.476 1.067h-2.24a.533.533 0 01-.533-.533v-11.61a.533.533 0 01.533-.533h2.24a.534.534 0 01.534.534v11.609a.533.533 0 01-.534.533zm-1.706-1.067h1.173V16.112h-1.174v10.542z" fill="#fff"/><path d="M31.733 27.721H12.449a.533.533 0 010-1.067h19.284a.533.533 0 110 1.067zm26.635 32.254a9.42 9.42 0 01-1.327-18.746.533.533 0 01.608.537l-.15 8.608c0 .087.017.173.049.254.019.03.035.062.046.096l.015.03.005.006.024.028.07.08.037.039 6.107 6.565a.533.533 0 01-.085.8 9.36 9.36 0 01-5.399 1.703zm-1.797-17.58a8.354 8.354 0 001.797 16.514 8.292 8.292 0 004.271-1.173l-5.674-6.1a1.037 1.037 0 01-.072-.078 1.636 1.636 0 01-.1-.115 1.193 1.193 0 01-.09-.128.318.318 0 01-.023-.04.902.902 0 01-.059-.106 1.733 1.733 0 01-.19-.801l.14-7.972z" fill="#fff"/><path d="M59.408 48.685a.534.534 0 01-.533-.542l.101-6.405a.534.534 0 01.6-.52 9.37 9.37 0 015.758 2.995.532.532 0 01-.107.807l-5.53 3.578a.533.533 0 01-.289.087zm.625-6.314l-.075 4.79L64.1 44.48a8.31 8.31 0 00-4.068-2.109zm2.74 11.738a.533.533 0 01-.473-.78l3.584-6.9a.533.533 0 11.947.491l-3.584 6.901a.534.534 0 01-.474.288zm1.418 1.514a.534.534 0 01-.473-.779l2.976-5.733a.532.532 0 11.947.492l-2.976 5.733a.534.534 0 01-.474.288zm-2.751-3.055a.534.534 0 01-.472-.78l1.835-3.53a.534.534 0 01.947.491l-1.835 3.531a.533.533 0 01-.474.288z" fill="#fff"/><path d="M65.22 56.743a.534.534 0 01-.39-.17l-5.205-5.6a.534.534 0 01.102-.81l6.282-4.06a.534.534 0 01.766.209 9.413 9.413 0 01-1.144 10.24.533.533 0 01-.395.192h-.015zm-4.38-6.03l4.343 4.672a8.35 8.35 0 00.888-8.053l-5.231 3.381z" fill="#fff"/></svg>