<svg width="80" height="80" fill="none" xmlns="http://www.w3.org/2000/svg"><path d="M40.863 60.928A20.064 20.064 0 1155.05 55.05a19.93 19.93 0 01-14.187 5.877zm0-39.06a18.997 18.997 0 1013.433 5.564 18.872 18.872 0 00-13.433-5.565z" fill="#fff"/><path d="M40.864 57.561a16.68 16.68 0 1111.81-4.885 16.59 16.59 0 01-11.81 4.885zm0-32.327a15.63 15.63 0 1011.057 4.573 15.588 15.588 0 00-11.057-4.573zm12.058 36.698a.533.533 0 01-.378-.156l-3.146-3.147a.533.533 0 01.754-.754l2.77 2.77 7.722-7.723-2.769-2.77a.533.533 0 01.754-.754l3.147 3.147a.533.533 0 010 .754l-8.477 8.477c-.1.1-.236.156-.377.156z" fill="#fff"/><path d="M68.997 74.528c-.06 0-.118 0-.178-.002a5.483 5.483 0 01-3.978-1.867L53.946 60.326a.533.533 0 01.023-.73l5.625-5.623a.534.534 0 01.73-.023l12.332 10.896a5.536 5.536 0 01-3.66 9.685v-.003zm-13.92-14.533L65.64 71.951a4.47 4.47 0 106.31-6.308L59.992 55.079l-4.916 4.916zM25.766 29.008a.534.534 0 01-.534-.534V6.004a.533.533 0 011.067 0v22.47a.534.534 0 01-.533.534z" fill="#fff"/><path d="M21.804 45.663a.561.561 0 01-.106-.01 20.296 20.296 0 1123.956-23.957.532.532 0 01-.817.551.534.534 0 01-.228-.338 19.23 19.23 0 10-22.7 22.699.533.533 0 01-.106 1.056h.001z" fill="#fff"/><path d="M21.451 43.503a.532.532 0 01-.42-.203c-2.82-3.588-4.572-10.307-4.572-17.535 0-11.38 4.088-20.294 9.307-20.294 4.577 0 8.437 7.111 9.177 16.907a.533.533 0 11-1.064.08c-.685-9.074-4.172-15.92-8.113-15.92-4.467 0-8.24 8.805-8.24 19.227 0 7 1.665 13.466 4.344 16.875a.533.533 0 01-.419.863z" fill="#fff"/><path d="M25.766 18.149a20.17 20.17 0 01-14.367-5.96.533.533 0 11.755-.753 19.11 19.11 0 0013.612 5.646 19.108 19.108 0 0013.611-5.646.535.535 0 11.755.753 20.168 20.168 0 01-14.366 5.96zM11.777 40.255a.534.534 0 01-.379-.91 20.107 20.107 0 0111.022-5.692.535.535 0 01.372.981.535.535 0 01-.198.072 19.047 19.047 0 00-10.44 5.392.534.534 0 01-.377.157zm16.698-13.957H6.006a.533.533 0 110-1.066h22.47a.533.533 0 110 1.066zm23.723 7.76a.532.532 0 01-.448-.244 12.931 12.931 0 00-10.56-5.905.533.533 0 11.027-1.067 13.997 13.997 0 0111.428 6.393.533.533 0 01-.447.823z" fill="#fff"/></svg>