<svg width="80" height="80" fill="none" xmlns="http://www.w3.org/2000/svg"><path d="M54.956 74.667a.533.533 0 01-.534-.534v-7.08a4.607 4.607 0 10-9.215 0v7.08a.534.534 0 01-.776.475 11.826 11.826 0 01-.291-20.904V26.287a11.816 11.816 0 01.29-20.894.533.533 0 01.777.475v7.079a4.607 4.607 0 109.215 0v-7.08a.535.535 0 01.776-.474 11.825 11.825 0 01.29 20.907v27.413a11.817 11.817 0 01-.29 20.896.533.533 0 01-.242.059zM49.812 61.38a5.68 5.68 0 015.675 5.674v6.167a10.75 10.75 0 00-.779-18.714.534.534 0 01-.29-.474v-28.06a.533.533 0 01.291-.475 10.76 10.76 0 00.778-18.72v6.168a5.674 5.674 0 11-11.349 0V6.779a10.75 10.75 0 00.78 18.714.534.534 0 01.288.475v28.059a.532.532 0 01-.29.474 10.76 10.76 0 00-.775 18.72v-6.167a5.68 5.68 0 015.672-5.674z" fill="#fff"/><path d="M50.21 34.41h-.79a.533.533 0 110-1.067h.79a.533.533 0 010 1.067zm0 4.082h-.79a.533.533 0 110-1.067h.79a.533.533 0 010 1.067zm0 4.082h-.79a.533.533 0 110-1.066h.79a.533.533 0 110 1.066zm0 4.083h-.79a.533.533 0 110-1.067h.79a.533.533 0 010 1.067zM26.243 74.662a6.428 6.428 0 01-6.42-6.42V46.055a.533.533 0 01.533-.533H32.13a.533.533 0 01.533.533v22.187a6.428 6.428 0 01-6.42 6.42zM20.89 46.587V68.24a5.355 5.355 0 0010.709 0V46.587h-10.71z" fill="#fff"/><path d="M32.053 46.587h-11.62a2.074 2.074 0 110-4.148h11.62a2.075 2.075 0 010 4.148zm-11.62-3.081a1.007 1.007 0 100 2.014h11.62a1.008 1.008 0 100-2.014h-11.62zM23.2 66.221a.533.533 0 01-.534-.533V50.415a.533.533 0 011.067 0v15.273a.533.533 0 01-.534.533zm6.087 0a.533.533 0 01-.533-.533V50.415a.533.533 0 011.067 0v15.273a.533.533 0 01-.534.533zm-3.045 2.055a.533.533 0 01-.533-.534V52.47a.533.533 0 011.067 0v15.273a.533.533 0 01-.534.534z" fill="#fff"/><path d="M27.92 43.506h-3.354a.533.533 0 01-.533-.534V15.566a.533.533 0 01.534-.533h3.353a.533.533 0 01.533.533v27.406a.533.533 0 01-.533.534zm-2.82-1.067h2.286v-26.34H25.1v26.34z" fill="#fff"/><path d="M27.92 16.1h-3.356a.533.533 0 01-.48-.297l-1.19-2.403a.533.533 0 01-.042-.357l1.683-7.296a.533.533 0 01.521-.414h2.372a.533.533 0 01.52.414l1.683 7.296a.534.534 0 01-.042.357l-1.19 2.403a.533.533 0 01-.479.297zm-3.024-1.067h2.693l.96-1.936L27.004 6.4h-1.523l-1.547 6.697.962 1.936z" fill="#fff"/></svg>