<svg width="70" height="70" fill="none" xmlns="http://www.w3.org/2000/svg"><path fill-rule="evenodd" clip-rule="evenodd" d="M53.86 28.484c-6.11 0-11.094 4.97-11.094 11.095 0 6.11 4.97 11.094 11.094 11.094 6.11 0 11.095-4.97 11.095-11.094-.014-6.11-4.985-11.095-11.095-11.095zm0 23.542c-6.864 0-12.462-5.582-12.462-12.447 0-6.865 5.583-12.462 12.462-12.462 6.865 0 12.462 5.583 12.462 12.462-.014 6.865-5.597 12.447-12.462 12.447z" fill="#fff"/><path fill-rule="evenodd" clip-rule="evenodd" d="M53.86 42.484c.114 0 .214.029.314.071l2.905 1.496-.527-3.219a.678.678 0 01.2-.598l2.32-2.293-3.232-.498a.688.688 0 01-.513-.37l-1.467-2.92-1.467 2.92a.667.667 0 01-.512.37l-3.233.484 2.321 2.293a.72.72 0 01.2.598l-.527 3.219 2.905-1.496c.085-.028.2-.057.313-.057zm4.102 3.49a.775.775 0 01-.313-.072l-3.803-1.965-3.803 1.965a.676.676 0 01-.712-.057.683.683 0 01-.27-.669l.697-4.216-3.047-3.005a.674.674 0 01-.171-.698.701.701 0 01.541-.47l4.23-.64 1.923-3.817a.699.699 0 01.612-.385c.256 0 .498.142.612.385l1.923 3.817 4.23.64a.66.66 0 01.541.47.674.674 0 01-.17.698l-3.048 3.005.697 4.216a.683.683 0 01-.27.67.666.666 0 01-.399.128zm2.179 16.05a.699.699 0 01-.598-.341l-5.782-9.998a.698.698 0 01.256-.94.707.707 0 01.94.242l4.928 8.53.655-2.634a.625.625 0 01.327-.427.625.625 0 01.527-.057l2.607.755-4.273-7.392a.678.678 0 01.256-.926.707.707 0 01.94.242l5.113 8.873a.691.691 0 01-.783 1.011l-3.56-1.025-.884 3.603a.685.685 0 01-.57.513c-.042-.029-.07-.029-.099-.029z" fill="#fff"/><path fill-rule="evenodd" clip-rule="evenodd" d="M47.566 62.024h-.1a.703.703 0 01-.57-.512l-.883-3.604-3.56 1.026a.697.697 0 01-.727-.228.69.69 0 01-.057-.77l5.113-8.872a.678.678 0 01.94-.242.694.694 0 01.257.94l-4.273 7.392 2.606-.755a.622.622 0 01.527.071c.157.085.27.242.328.427l.655 2.635 4.928-8.531a.678.678 0 01.94-.242.694.694 0 01.256.94l-5.782 9.998a.718.718 0 01-.599.327zM18.07 21.862a.697.697 0 01-.668-.527c-1.069-4.43-.684-8.247 1.153-11.337 1.496-2.52 3.974-4.472 6.979-5.512 4.443-1.538 9.015-.755 10.425 1.695a10.295 10.295 0 016.238 5.654c1.168 2.663 1.025 6.495-.342 9.3a.674.674 0 01-.911.314.674.674 0 01-.314-.912c1.211-2.478 1.34-5.825.314-8.146a8.947 8.947 0 00-5.654-4.985.732.732 0 01-.428-.37c-.897-1.994-5.056-2.578-8.887-1.254-2.364.812-9.884 4.33-7.249 15.24a.69.69 0 01-.498.825c-.057 0-.1.015-.157.015z" fill="#fff"/><path fill-rule="evenodd" clip-rule="evenodd" d="M29.908 34.822c.014 0 .014 0 0 0h.114c3.916 0 7.178-4.543 8.303-11.622.683-4.244-.228-6.921-2.763-8.16-2.094 1.865-5.654 1.837-11.138-.086-2.663 1.197-3.617 3.903-2.933 8.246 1.153 7.136 4.457 11.707 8.417 11.622zm.114 1.367h-.1c-2.193.029-4.344-1.096-6.039-3.204-1.794-2.236-3.09-5.54-3.731-9.57-.812-5.128.527-8.432 4.002-9.828a.708.708 0 01.484-.014c5.298 1.88 8.66 1.95 10.269.185a.688.688 0 01.755-.171c3.474 1.396 4.813 4.7 4.002 9.827-.641 4.016-1.923 7.32-3.732 9.57-1.652 2.08-3.746 3.205-5.91 3.205z" fill="#fff"/><path fill-rule="evenodd" clip-rule="evenodd" d="M20.991 28.057c-1.324 0-2.563-.67-3.418-1.894-1.11-1.567-1.31-3.632-.484-4.914.399-.626 1.41-1.623 3.646-1.21a.68.68 0 01.541.797.702.702 0 01-.798.556c-.754-.143-1.766-.143-2.25.612-.527.812-.327 2.279.456 3.39.356.498 1.339 1.61 2.92 1.253a.687.687 0 11.313 1.339 7.119 7.119 0 01-.926.071zm17.846 0c-.3 0-.613-.028-.912-.1a.687.687 0 11.314-1.338c1.58.37 2.563-.755 2.92-1.254.782-1.11.982-2.578.455-3.39-.484-.754-1.495-.74-2.25-.612a.68.68 0 01-.798-.555.68.68 0 01.541-.798c2.236-.413 3.248.584 3.646 1.21.826 1.283.613 3.348-.484 4.914-.869 1.254-2.108 1.923-3.432 1.923zM21.392 40.263l3.631 8.644 3.974-4.7-5.782-5.767-1.823 1.823zm3.432 10.624c-.028 0-.071 0-.1-.014a.69.69 0 01-.526-.413l-4.245-10.098a.675.675 0 01.143-.74l2.634-2.635a.68.68 0 01.969 0l6.708 6.708c.256.256.27.655.043.926l-5.099 6.024a.706.706 0 01-.527.242z" fill="#fff"/><path fill-rule="evenodd" clip-rule="evenodd" d="M42.184 41.772c-.072 0-.143-.014-.214-.028l-2.934-.983a.679.679 0 01-.427-.869.679.679 0 01.869-.427l2.933.983a.679.679 0 01.428.868.709.709 0 01-.655.456zm10.368 24.54H7.276A3.608 3.608 0 014.584 65.1a3.569 3.569 0 01-.868-2.82l2.036-16.45c.114-.968.727-1.737 1.595-2.022l13.018-4.358a.696.696 0 01.868.427.696.696 0 01-.427.869L7.79 45.105c-.37.128-.613.456-.67.897l-2.05 16.45a2.19 2.19 0 00.54 1.752c.428.484 1.012.74 1.667.74h45.276a2.22 2.22 0 001.666-.74 2.211 2.211 0 00.541-1.738l-1.367-11.023a.697.697 0 01.598-.77.708.708 0 01.77.599l1.367 11.023a3.569 3.569 0 01-.87 2.82 3.677 3.677 0 01-2.705 1.196z" fill="#fff"/><path fill-rule="evenodd" clip-rule="evenodd" d="M30.846 44.222l3.974 4.7 3.632-8.645-1.823-1.823-5.782 5.768zm4.16 6.665a.706.706 0 01-.528-.242L29.38 44.62a.682.682 0 01.042-.925l6.708-6.708a.678.678 0 01.485-.2c.185 0 .356.072.484.2l2.635 2.635a.676.676 0 01.142.754l-4.244 10.098a.69.69 0 01-.527.413h-.1zM23.215 38.155a.675.675 0 01-.684-.684v-6.722c0-.385.3-.684.684-.684.384 0 .683.313.683.684v6.722a.684.684 0 01-.683.684z" fill="#fff"/><path fill-rule="evenodd" clip-rule="evenodd" d="M36.613 38.155a.675.675 0 01-.683-.684v-6.722c0-.385.299-.684.683-.684.385 0 .684.313.684.684v6.722c0 .385-.3.684-.684.684zm-5.481 13.102H28.71a.652.652 0 01-.598-.356l-1.652-3.019a.682.682 0 011.197-.655l1.452 2.663h1.61l1.452-2.663a.683.683 0 011.197.655l-1.652 3.02a.646.646 0 01-.584.355z" fill="#fff"/><path fill-rule="evenodd" clip-rule="evenodd" d="M24.723 66.311c-.057 0-.114 0-.171-.028a.68.68 0 01-.485-.84l3.974-15.054a.68.68 0 01.84-.485c.37.1.584.47.485.84L25.392 65.8a.684.684 0 01-.67.512zm10.382 0a.669.669 0 01-.655-.512l-3.973-15.054a.69.69 0 01.484-.84c.37-.1.74.128.84.484l3.974 15.054a.69.69 0 01-.484.84c-.072.028-.129.028-.186.028z" fill="#fff"/></svg>