<svg width="70" height="70" fill="none" xmlns="http://www.w3.org/2000/svg"><path d="M63.438 12.578h-8.75v1.094h8.75c.904 0 1.64.736 1.64 1.64v35c0 .905-.736 1.641-1.64 1.641H6.562c-.904 0-1.64-.736-1.64-1.64v-35c0-.905.736-1.641 1.64-1.641h8.761v-1.094h-8.76a2.737 2.737 0 00-2.735 2.735v35a2.737 2.737 0 002.735 2.734h22.684l-1.273 7.656h-3.912a2.738 2.738 0 00-2.734 2.734v1.094c0 .905.736 1.64 1.64 1.64h24.063c.905 0 1.64-.735 1.64-1.64v-1.094a2.738 2.738 0 00-2.733-2.734h-3.912l-1.273-7.656h22.684a2.738 2.738 0 002.735-2.734v-35a2.738 2.738 0 00-2.734-2.735zm-15.86 50.86v1.093a.548.548 0 01-.547.547H22.97a.548.548 0 01-.547-.547v-1.094c0-.904.736-1.64 1.64-1.64h21.875c.905 0 1.641.736 1.641 1.64zm-6.66-2.735H29.082l1.273-7.656h9.288l1.273 7.656z" fill="#fff"/><path d="M62.89 16.406v28.438a.548.548 0 01-.546.547H7.656a.548.548 0 01-.547-.547V16.406c0-.302.246-.547.547-.547h7.667v-1.093H7.656c-.904 0-1.64.736-1.64 1.64v28.438c0 .904.736 1.64 1.64 1.64h54.688c.904 0 1.64-.736 1.64-1.64V16.406c0-.904-.736-1.64-1.64-1.64h-7.657v1.093h7.657c.3 0 .547.245.547.547z" fill="#fff"/><path d="M34.307 40.51c.422.186.922.187 1.345.005h.001c9.628-4.173 14.113-10.347 14.113-19.428v-7.136c0-.723-.47-1.365-1.141-1.561-2.171-.634-4.001-2.208-5.023-4.316-.286-.595-.86-.965-1.493-.965H27.897c-.632 0-1.205.37-1.494.965-1.016 2.103-2.847 3.675-5.021 4.312-.67.195-1.138.836-1.14 1.558l-.008 7.143c0 9.14 4.34 15.13 14.073 19.423zM21.336 13.945c0-.24.146-.45.353-.51 2.47-.723 4.548-2.504 5.698-4.884.104-.214.3-.348.51-.348H42.11c.21 0 .405.134.509.347 1.156 2.386 3.233 4.17 5.7 4.89.208.061.354.271.354.51v7.137c0 8.59-4.274 14.446-13.453 18.425a.605.605 0 01-.47-.001c-9.282-4.097-13.42-9.777-13.42-18.424l.007-7.142zm41.008 33.633h-4.375a1.642 1.642 0 000 3.281h4.375c.904 0 1.64-.736 1.64-1.64 0-.905-.736-1.64-1.64-1.64zm0 2.188h-4.375a.548.548 0 010-1.094h4.375a.548.548 0 010 1.094zm-10.391-.547c0 .904.736 1.64 1.64 1.64.905 0 1.641-.736 1.641-1.64a1.641 1.641 0 00-3.28 0zm2.188 0a.548.548 0 01-1.094 0 .548.548 0 011.094 0z" fill="#fff"/><path d="M33.894 30.238l9.81-9.811a1.64 1.64 0 000-2.32l-1.546-1.548a1.643 1.643 0 00-2.32 0l-7.103 7.104-2.575-2.574a1.643 1.643 0 00-2.321 0l-1.547 1.546c-.64.64-.64 1.68 0 2.32l5.282 5.28a1.636 1.636 0 002.32.003zm-6.828-6.827l1.546-1.547a.548.548 0 01.775 0l2.96 2.96a.562.562 0 00.774 0l7.49-7.49a.548.548 0 01.774 0l1.547 1.547a.546.546 0 010 .774l-9.811 9.81a.546.546 0 01-.774 0l-5.281-5.281a.547.547 0 010-.773z" fill="#fff"/><path d="M34.356 44.101c.403.146.846.15 1.24-.007 11.743-4.67 17.45-12.195 17.45-23.007V11.014c0-.971-.846-1.754-1.785-1.636-2.44.303-4.75-1.559-5.154-4.15a1.612 1.612 0 00-1.602-1.4h-19.01a1.61 1.61 0 00-1.6 1.392c-.406 2.59-2.712 4.453-5.148 4.157-.98-.11-1.783.676-1.783 1.637 0 5.477.004 3.05-.01 10.073 0 10.72 5.684 18.244 17.402 23.014zM18.058 11.014c0-.314.245-.584.558-.551 3.004.364 5.864-1.909 6.36-5.08a.526.526 0 01.52-.461h19.009a.53.53 0 01.52.467c.496 3.176 3.361 5.457 6.37 5.074.299-.035.558.247.558.551v10.073c0 10.312-5.483 17.506-16.762 21.991a.652.652 0 01-.444.002c-11.393-4.64-16.7-11.627-16.7-21.991.014-7.057.01-4.633.01-10.075z" fill="#fff"/></svg>