<svg width="70" height="70" fill="none" xmlns="http://www.w3.org/2000/svg"><path d="M55.922 3.546h-29.69a6.786 6.786 0 00-6.778 6.779V34.3h-8.422a3.744 3.744 0 00-3.735 3.735v21.64a6.786 6.786 0 006.778 6.779h41.847a6.785 6.785 0 006.779-6.779v-49.35a6.786 6.786 0 00-6.779-6.779zM19.454 35.7v17.812h-.745a3.939 3.939 0 01-3.935-3.934v-11.54a3.723 3.723 0 00-.823-2.338h5.503zm-5.379 29.354a5.384 5.384 0 01-5.378-5.379v-21.64a2.339 2.339 0 114.677 0v11.543a5.34 5.34 0 005.335 5.334h.745v4.76a5.386 5.386 0 01-5.379 5.382zM61.3 59.675a5.385 5.385 0 01-5.378 5.379H18.2a6.771 6.771 0 002.66-5.379v-49.35a5.384 5.384 0 015.378-5.379h29.685a5.385 5.385 0 015.379 5.379v49.35zM34.11 15.091c.203.132.391.286.56.46a2.71 2.71 0 01-.175.774c-.19.602-.427 1.352 0 1.934a2.15 2.15 0 001.856.61c.114 0 .266 0 .406.01v11.536a.7.7 0 001.284.385l3.035-4.602L44.11 30.8a.7.7 0 001.285-.385V18.878c.14-.007.29-.009.406-.01.635-.004 1.425-.011 1.85-.602.426-.591.198-1.339.008-1.941a2.9 2.9 0 01-.177-.763 3.01 3.01 0 01.56-.471c.52-.381 1.17-.855 1.17-1.61 0-.756-.65-1.228-1.17-1.61a3.235 3.235 0 01-.56-.461c.02-.264.08-.523.175-.77.19-.603.426-1.353 0-1.934-.431-.6-1.224-.604-1.861-.608a3.083 3.083 0 01-.752-.055 2.753 2.753 0 01-.298-.707c-.202-.608-.453-1.364-1.152-1.588-.689-.23-1.294.207-1.83.59-.207.17-.438.308-.685.41-.25-.1-.483-.238-.69-.41a2.074 2.074 0 00-1.82-.592c-.71.226-.96.98-1.162 1.59-.066.244-.161.48-.285.7a2.73 2.73 0 01-.765.065c-.638.004-1.43.008-1.857.6-.427.594-.2 1.336-.008 1.939.092.242.153.495.182.753a2.763 2.763 0 01-.564.481c-.52.38-1.168.855-1.168 1.61 0 .755.647 1.226 1.168 1.607zm7.55 9.45a.727.727 0 00-1.169 0l-2.334 3.54v-7.089c.118.1.255.176.401.224a2.073 2.073 0 001.83-.59c.206-.17.437-.308.685-.41.25.101.483.24.69.41.404.36.906.588 1.442.655.13 0 .258-.021.38-.063.15-.048.29-.125.41-.227v7.09l-2.335-3.54zm-6.723-11.537c.47-.27.843-.68 1.066-1.174a2.745 2.745 0 00-.175-1.61 4.01 4.01 0 01-.174-.677 3.99 3.99 0 01.71-.044 2.628 2.628 0 001.576-.329c.403-.37.681-.857.796-1.392.07-.23.153-.455.249-.674.207.106.404.232.588.373.42.374.945.608 1.503.672a2.737 2.737 0 001.503-.672c.181-.137.373-.26.574-.367.108.214.196.437.264.667a2.64 2.64 0 00.796 1.393 2.625 2.625 0 001.575.328 4 4 0 01.711.044 4.09 4.09 0 01-.174.678 2.736 2.736 0 00-.175 1.616 2.57 2.57 0 001.065 1.17c.208.139.4.299.575.477a3.673 3.673 0 01-.575.478 2.57 2.57 0 00-1.065 1.17v.004a2.73 2.73 0 00.176 1.61c.077.22.136.447.174.678a3.97 3.97 0 01-.71.045 3.095 3.095 0 00-1.38.217 1.09 1.09 0 00-.196.11 2.64 2.64 0 00-.797 1.392 5.89 5.89 0 01-.248.674 3.86 3.86 0 01-.589-.374 2.738 2.738 0 00-1.503-.672 2.73 2.73 0 00-1.503.672c-.18.138-.373.261-.573.369a3.994 3.994 0 01-.265-.669 2.626 2.626 0 00-.823-1.407.986.986 0 00-.173-.093 3.1 3.1 0 00-1.379-.216 3.953 3.953 0 01-.707-.044c.038-.231.096-.458.174-.678.22-.51.28-1.073.174-1.618a2.58 2.58 0 00-1.065-1.168c-.208-.14-.4-.3-.575-.478.174-.18.367-.341.575-.481zm6.139 4.233a3.754 3.754 0 100-7.509 3.754 3.754 0 000 7.509zm0-6.11a2.354 2.354 0 11-2.355 2.355 2.357 2.357 0 012.355-2.352v-.003zm14.07 27.336a.7.7 0 01-.7.7h-26.74a.7.7 0 110-1.4h26.74a.7.7 0 01.697.7h.002zm-22.772 5.963a.7.7 0 110-1.4h17.403a.7.7 0 010 1.4H32.373zm20.385 4.563a.7.7 0 01-.7.7H30.09a.7.7 0 110-1.4h21.967a.7.7 0 01.7.7z" fill="#fff"/></svg>