<svg width="90" height="70" fill="none" xmlns="http://www.w3.org/2000/svg"><path fill-rule="evenodd" clip-rule="evenodd" d="M58.546 30.806c-.527-.036-1.054-.26-1.53-.491-3.958-2.125-3.864.185-5.249-.708-.87-.908.75-2.887-2.126-3.375-.562-.138-1.072-.564-1.74-.498-1.71.154-2.109 1.58-3.253 2.166-3.226 1.41-1.793 1.936-3.811 2.643-1.95.92-1.853.653-2.896-.114-2.526-1.893-3.602 1.134-4.415 1.691-1.106-1.047-2.8-.832-4.055-.096-2.575-1.717-7.372.843-8.683-2.22.752 1.357 2.553.595 3.055-.367.986-1.845-.287-5.056-2.42-5.256-1.262-.18-2.086 1.215-2.803 1.983-.933.998-1.707 2.035-2.914 2.749-2.568.148-4.393.39-6.346 2.13-.863.88-.635 1.485-1.157 2.426-1.821 2.816-1.555 2.676-1.475 4.48-.754 1.471-.758 1.852-.35 3.044 1.324 2.658-.802 2.817-2.625 2.99-3.363-.616-1.954 2.8-1.12 4.446.964 1.669.914 2.879 2.089 3.856.566.567.737 1.276.97 2.047 1.151 3.692 2.445-1.57 3.36-2.209.655-.137 1.668.01 2.001-.623.666-.847.04-2.167.664-2.883.854-1.003 2.541-1.294 3.492-.83.284.14.439.309.587.522 1.268 2.884 2.134 2.656 4.274 3.457.502.206 1.326.735 1.883.53.183-.038.448-.332.521-.69.293-1.444 1.036-2.193 2.335-1.676.986.208 2.19.285 3.323.588 1.678.41.986 1.026 1.927 1.728.948.715 2.075.707 2.471 1.546.847 2.618.27 3.91 3.2 4.398.276.08.498.29.694.5 1.159 1.306 1.943.535 3.178 1.312 1.345.437 2.858-.913 3.942-.536.637.18 1.631.636 2.428.49 1.751-.392.429-2.908 2.206-1.857 2.847 2.404 2.212-.294 4.361.484 4.494 2.341 3.82.35 6.653-.198 2.427-.341 2.753-1.022 3.104-2.786.709-1.704.668-1.515.203-2.822 3.856-1.7 2.122 1.91 6.635 2.514 2.321.867 4.465-1.53 3.593.937-.414.823-1.046 1.454-1.08 2.39-.018.916.697 1.481 1.698 1.88 1.578.819 2.265-.297 2.915-1.375.884-1.238 1.283-2.15 1.409-3.41.212-2.035-.446-4.123-.998-6.123-.58-2.953-2.806-4.585-3.72-4.7-1.203-.131-1.695.77-2.408.496 1.644-3.61-1.335-2.54 1.608-5.358 1.203-1.196 1.979-1.78 3.178-2.519 3.09-2.391-1.115-3.738.954-5.62.504-.558 1.452.717 1.38 1.097-.442 2.104-.28 5.02 2 5.847 3.962.807 3.028 2.282 4.24 1.89 1.04-.395-.071-3.21-.07-3.727-1.113-4.392-3.744-5.874-3.88-6.905.363-3.335 1.188-2.693.764-6.04-.347-3.465-.505-3.019-2.903-3.999.306-1.25 1.423-1.75 2.067-2.828.751-1.37-2.036-3.962-3.082-2.618-.46.418-.695 1.262-1.142 1.739-2.454 1.782-5.037 2.542-5.81 5.513-.194.558-.38 1.128-.95 1.501-2.859.766-2.38.914-4.013 2.083-.467.345-1.005.45-1.584.398-2.57-.215-3.297 3.405-4.754 4.966zm19.178-15.2c.36.233.654.649.908 1.042-4.727 4.96-.515 4.6.408 5.388.23.863.488 3 .411 4.082-.061 1.012-.827 2.342-.86 3.554.01 2.861 3.36 3.262 4.153 8.788-.804-.625-1.993-.593-2.888-1.018-2.238-1.748.097-4.63-1.47-6.027-2.325-2.77-4.249.634-4.104 1.92.077.998 1.374 2.193.571 2.813-7.123 4.909-5.246 6.301-5.202 6.91.436 1.313-1.454 2.631-.042 3.392 2.314 1.206 2.527-1.169 3.956.3 1.293 1.154 1.505 2.002 1.85 3.38 1.303 4.503 1.548 6.262-1.065 9.29-1.73-.616-1.55-.679-.789-1.934.993-1.393 1.095-3.114-.494-3.746-1.476-.248-2.29.839-3.667.244-.828-.286-1.726-.347-2.16-.87-.626-.745-1.09-1.583-1.983-1.946-1.013-.48-3.34.016-3.888.843-.602.809.079 1.48.116 2.057-1.03 1.892-.243 2.426-1.62 2.824-2.57.455-2.263.621-3.621 1.296-2.301.705-3.378-2.448-6.267-.46-2.012-1.642-3.885-1.987-4.331.9-.544-.016-1.524-.395-1.961-.518-1.535-.368-2.748.813-3.769.578-1.717-.903-1.786-.243-2.262-.684-1.492-1.664-2.207-.952-2.933-1.564-1.357-3.249-.038-3.674-3.628-5.132-.221-.124-.383-.247-.48-.535-.562-1.674-3.252-1.754-4.454-1.99-1.027-.095-2.043-.554-2.85-.334-1.077.38-1.891 1.594-2.046 2.382-1.002-.511-1.533-.564-2.556-.984-1.495-.534-1.342-2.344-2.451-3.019-1.867-1.332-5.01-.32-5.89 1.391-.446.73-.19 1.58-.383 2.451-2.144-.069-2.404 1.094-3.22 2.62-.482-1.723-1.108-1.72-1.757-2.76-.807-2.382-2.014-3.907-2-5.229 2.438.17 5.616-.582 5.098-3.448-.128-.73-.618-1.35-.64-2.205 1.32-2.615-.048-2.536 1.004-4.105.453-.765.991-1.333 1.258-2.168.26-1.905 2.39-2.613 4.07-2.982 1.689-.143 2.279.192 3.467-.912 1.456-1.206 2.377-2.565 3.704-3.88 1.522-.662 2.751 3.466 1.03 3.586-.52-.99-.96-.943-1.795-.663-1.78.863-.181 3.253 1.24 3.78 3.115 1.173 5.637-.26 7.266.88 1.348.667 1.785-.538 2.812-.422 1.64.026 1.35 1.602 2.865.399.888-.675 1.375-2.08 2.163-1.98.66.254 1.284.98 1.928 1.2 1.222.447 3.12-.706 4.17-1.232 1.831-2.177 1.7-1.371 3.192-2.4 2.483-2.303 1.459-1.768 4.236-.976.199.555-.037 1.25.125 1.806.147.967 1.482 1.722 2.256 1.624.708-.013 1.225-.592 2.097-.43 1.836.366 4.052 2.637 5.418.447 3.356-5.77 2.08-3.305 4.968-4.269.992-.411 1.687-1.269 2.594-1.787 3.577-.718 2.903-1.785 4.19-4.252 2.432-2.866 4.539-2.216 6.002-5.306z" fill="#fff"/><path d="M45 35.5a5.506 5.506 0 00-5.5 5.5c0 2.903 4.901 9.052 5.11 9.313a.498.498 0 00.78 0c.209-.26 5.11-6.41 5.11-9.313 0-3.032-2.468-5.5-5.5-5.5zm0 13.689c-1.545-2.007-4.5-6.25-4.5-8.189 0-2.481 2.019-4.5 4.5-4.5s4.5 2.019 4.5 4.5c0 1.94-2.956 6.182-4.5 8.189z" fill="#fff"/><path d="M45 38c-1.655 0-3 1.346-3 3s1.345 3 3 3c1.654 0 3-1.346 3-3s-1.346-3-3-3zm0 4.857A1.859 1.859 0 0143.143 41c0-1.024.832-1.857 1.857-1.857A1.86 1.86 0 0146.857 41 1.86 1.86 0 0145 42.857z" fill="#fff"/></svg>