<svg width="70" height="70" fill="none" xmlns="http://www.w3.org/2000/svg"><path d="M61.21 15.225h-2.442v-1.942a3.154 3.154 0 00-3.15-3.15H9.404a3.154 3.154 0 00-3.15 3.15v40.34a3.154 3.154 0 003.15 3.15h2.58v1.8a3.291 3.291 0 003.286 3.29h45.94a3.293 3.293 0 003.29-3.29V18.51a3.291 3.291 0 00-3.29-3.285zm0 1.01a2.28 2.28 0 012.28 2.275v5.457h-4.722v-7.732h2.442zM9.404 11.143h46.214c1.18 0 2.14.96 2.14 2.14v5.592H7.264v-5.592c0-1.18.96-2.14 2.14-2.14zm-2.14 42.48V19.884h50.494v33.737c0 1.18-.96 2.14-2.14 2.14H9.404c-1.18 0-2.14-.96-2.14-2.14zm53.946 7.23H15.27a2.28 2.28 0 01-2.276-2.28v-1.8h42.624a3.154 3.154 0 003.15-3.15V24.976h4.721v33.597a2.282 2.282 0 01-2.279 2.279z" fill="#fff"/><path d="M30.912 29.234a10.701 10.701 0 00-5.458-4.483 10.645 10.645 0 00-3.668-.646A10.645 10.645 0 0015 26.538a10.7 10.7 0 00-2.34 2.696 10.596 10.596 0 00-1.332 3.38c-.136.656.03 1.332.454 1.853a2.223 2.223 0 001.73.822H30.06c.674 0 1.304-.3 1.73-.822.424-.521.59-1.197.454-1.853a10.593 10.593 0 00-1.333-3.38zm-9.126 3.087c1.145 0 2.093.854 2.241 1.958h-4.481a2.264 2.264 0 012.24-1.958zm9.222 1.508c-.233.286-.578.45-.947.45h-5.018a3.275 3.275 0 00-3.257-2.968 3.272 3.272 0 00-2.802 1.585l-3.291-1.56a.505.505 0 10-.432.913l3.341 1.583a3.253 3.253 0 00-.073.447h-5.017a1.216 1.216 0 01-1.195-1.461c.921-4.464 4.904-7.703 9.47-7.703 4.565 0 8.547 3.24 9.47 7.703.073.358-.018.726-.25 1.01zm-.412 10.085a10.7 10.7 0 00-5.458-4.483 10.645 10.645 0 00-3.668-.647 10.647 10.647 0 00-6.786 2.433 10.7 10.7 0 00-2.34 2.697 10.596 10.596 0 00-1.333 3.38c-.135.656.03 1.331.455 1.852a2.223 2.223 0 001.73.823h16.549c.673 0 1.304-.3 1.73-.823.424-.52.59-1.196.454-1.853a10.593 10.593 0 00-1.333-3.38zm-11.367 5.045A2.265 2.265 0 0121.47 47c1.144 0 2.093.855 2.24 1.959h-4.48zm11.462-.45c-.233.286-.578.45-.947.45h-5.017a3.241 3.241 0 00-.073-.447l3.342-1.583a.505.505 0 10-.432-.913l-3.292 1.56a3.273 3.273 0 00-2.802-1.586 3.276 3.276 0 00-3.257 2.969h-5.018A1.216 1.216 0 0112 47.498c.922-4.464 4.905-7.704 9.47-7.704s8.548 3.24 9.47 7.704c.074.358-.017.726-.249 1.01zM35.9 34.954a.506.506 0 00.208.114l.01.002a.49.49 0 00.121.015h16.838a.503.503 0 00.505-.505v-6.606a.505.505 0 00-.505-.505h-4a.505.505 0 00-.506.505v6.101h-1.41V24.052a.505.505 0 00-.505-.505H42.66a.505.505 0 00-.505.505v10.023h-1.41v-3.792a.505.505 0 00-.505-.505h-4a.505.505 0 00-.506.505v4.297c0 .148.064.282.166.374zm13.681-6.475h2.99v5.596h-2.99V28.48zm-6.417-3.922h2.987v9.518h-2.987v-9.518zm-3.43 6.231v3.287h-2.99v-3.287h2.99zm13.45 10.618l-3.406 3.406-3.878-3.878a.505.505 0 00-.714 0l-4.02 4.02-1.202-1.204a.505.505 0 00-.715 0l-2.505 2.505V39.29a.505.505 0 00-1.01 0v9.972c0 .28.227.505.505.505h16.838a.505.505 0 100-1.01H36.744v-1.072l2.862-2.862 1.204 1.203a.505.505 0 00.714 0l4.02-4.02 3.877 3.878a.505.505 0 00.714 0l3.763-3.763a.505.505 0 00-.714-.714zm-2.838-24.132a2.2 2.2 0 002.199-2.198 2.2 2.2 0 00-2.199-2.198 2.2 2.2 0 00-2.198 2.198 2.2 2.2 0 002.198 2.198zm0-3.386a1.19 1.19 0 011.189 1.188 1.19 1.19 0 01-1.188 1.188 1.19 1.19 0 01-1.189-1.188 1.19 1.19 0 011.188-1.188zm-5.918 3.386a2.2 2.2 0 002.199-2.198 2.2 2.2 0 00-2.199-2.198 2.2 2.2 0 00-2.197 2.198 2.2 2.2 0 002.197 2.198zm0-3.386a1.19 1.19 0 011.189 1.188 1.19 1.19 0 01-1.188 1.188 1.19 1.19 0 01-1.189-1.188 1.19 1.19 0 011.188-1.188z" fill="#fff"/></svg>