<svg width="70" height="70" fill="none" xmlns="http://www.w3.org/2000/svg"><path d="M66.712 24.333h-4.354v-7.994a3 3 0 00-2.997-2.997H26.4l-3.469-4.104a4.26 4.26 0 00-3.257-1.512H3.71a3 3 0 00-2.996 2.997V56.53a3.645 3.645 0 003.64 3.641H65.03c.127.002.913-.072.791-.06a4.168 4.168 0 003.464-4.101V26.908a2.578 2.578 0 00-2.574-2.575zM2.143 56.53v-5.273h48.562V49.83H2.143V10.723a1.57 1.57 0 011.568-1.568h15.964a2.83 2.83 0 012.166 1.005l3.897 4.61h33.623a1.57 1.57 0 011.568 1.569v33.49h-6.394v1.428h6.394v4.753c0 1.046.39 2 1.03 2.732H4.355a2.215 2.215 0 01-2.213-2.212zm65.715-.52a2.733 2.733 0 01-2.036 2.633V38.695h-1.429v19.948a2.733 2.733 0 01-2.036-2.633V25.76h4.355c.632 0 1.146.515 1.146 1.147V56.01z" fill="#fff"/><path d="M5.867 53.259h1.429v3.482H5.867V53.26zm4.988 0h1.429v3.482h-1.429V53.26zm4.993 0h1.428v3.482h-1.428V53.26zm4.992 0h1.428v3.482H20.84V53.26zm4.992 0h1.429v3.482h-1.429V53.26zm4.988 0h1.429v3.482H30.82V53.26zm4.993 0h1.428v3.482h-1.428V53.26zm4.992 0h1.428v3.482h-1.428V53.26zm4.992 0h1.428v3.482h-1.428V53.26zm4.988 0h1.429v3.482h-1.429V53.26zm4.992 0h1.429v3.482h-1.429V53.26zM41.944 27.697l1.655-2.538-3.861-3.865-2.54 1.659a11.29 11.29 0 00-2.053-.852l-.624-2.965h-5.464l-.62 2.964c-.708.215-1.396.5-2.056.853l-2.537-1.659-3.862 3.866 1.655 2.536a11.34 11.34 0 00-.851 2.053l-2.966.624v5.463l2.966.624c.216.713.502 1.4.851 2.054l-1.655 2.536 3.862 3.865 2.537-1.658c.66.352 1.348.638 2.056.852l.62 2.965h5.464l.624-2.966a11.358 11.358 0 002.053-.851l2.54 1.658L43.6 41.05l-1.656-2.535c.352-.66.637-1.35.85-2.055l2.965-.623v-5.464l-2.965-.624a11.331 11.331 0 00-.85-2.052zm2.386 6.98l-2.687.565-.111.429a9.946 9.946 0 01-1.04 2.514l-.221.38 1.498 2.295-2.221 2.225-2.302-1.503-.382.225a9.936 9.936 0 01-2.51 1.04l-.427.113-.565 2.685h-3.144l-.563-2.687-.429-.11a9.87 9.87 0 01-2.512-1.042l-.382-.224-2.298 1.502-2.222-2.224 1.5-2.299-.224-.381a9.919 9.919 0 01-1.042-2.511l-.112-.427-2.685-.565v-3.145l2.685-.564.112-.428a9.93 9.93 0 011.042-2.51l.224-.382-1.5-2.299 2.222-2.224 2.298 1.502.382-.223a9.9 9.9 0 012.512-1.042l.43-.111.562-2.687h3.144l.565 2.685.426.113a9.947 9.947 0 012.511 1.041l.382.225 2.301-1.503 2.223 2.224-1.5 2.298.223.381a9.894 9.894 0 011.039 2.51l.111.43 2.687.564v3.145z" fill="#fff"/><path d="M31.79 25.49c-4.198 0-7.614 3.416-7.614 7.615 0 4.198 3.416 7.614 7.615 7.614 4.198 0 7.614-3.416 7.614-7.614 0-4.2-3.416-7.615-7.614-7.615zm0 13.8a6.193 6.193 0 01-6.186-6.185 6.193 6.193 0 016.187-6.186 6.193 6.193 0 016.185 6.186 6.193 6.193 0 01-6.185 6.186z" fill="#fff"/></svg>