<svg width="40" height="41" fill="none" xmlns="http://www.w3.org/2000/svg"><circle cx="20" cy="20.5" r="20" fill="url(#paint0_linear_893_6565)"/><path d="M15.671 14.807l-1.781-.002h-.347s0 0 0 0l2.128.002zm0 0s0 0 0 0h0zm0 7.4s0 0 0 0h0zm-2.481-6.975v11.001a1.705 1.705 0 00.353 3.372h10.808l-1.52-1.242a4.18 4.18 0 01-1.541-3.243c0-.88.568-2.208 2.001-4.141h0a30.616 30.616 0 011.963-2.377h0l.203-.217.188-.202v-3.416a1.705 1.705 0 001.35-1.666v0c0-.942-.762-1.705-1.704-1.705H13.543a1.704 1.704 0 00-.353 3.372v.464zm2.482-.7h0z" stroke="#fff" stroke-width="1.4"/><path d="M28.254 20.935h0c.617.832 1.098 1.593 1.428 2.273.325.67.53 1.319.53 1.911h0a4.52 4.52 0 01-4.516 4.516 4.52 4.52 0 01-4.516-4.516c0-.592.205-1.24.53-1.91.329-.681.81-1.442 1.427-2.274a28.923 28.923 0 011.834-2.22l3.283 2.22zm0 0a28.657 28.657 0 00-1.786-2.168l-.034-.037-.009-.01-.003-.003h0l-.001-.001h0l-.001-.001m1.834 2.22l-1.834-2.22m0 0a.99.99 0 00-.725-.315m.725.315l-.725-.315m0 0a.99.99 0 00-.723.313l.723-.313z" stroke="#fff" stroke-width="1.5"/><defs><linearGradient id="paint0_linear_893_6565" x1="-6.222" y1="6.278" x2="58.667" y2="70.278" gradientUnits="userSpaceOnUse"><stop stop-color="#FF9839"/><stop offset="1" stop-color="#FF6948"/></linearGradient></defs></svg>