<svg width="40" height="40" fill="none" xmlns="http://www.w3.org/2000/svg"><circle cx="20" cy="20" r="20" fill="url(#paint0_linear_893_6657)"/><path d="M10.271 17.57l.277.698-.277-.697s0 0 0 0h0zm0 0c1.664-.662 2.294-1.752 2.876-2.77l.052-.092c.426-.748 1.034-1.816 2.293-2.044.753-.138 1.406-.051 2.174.33.433.214.91.526 1.476.94v-.28a2.551 2.551 0 01-1.216-2.17 2.572 2.572 0 012.573-2.567 2.572 2.572 0 012.574 2.566c0 .924-.492 1.722-1.216 2.172v.305a11.113 11.113 0 011.488-.89c.763-.365 1.473-.532 2.162-.406 1.259.228 1.867 1.296 2.292 2.044l.053.093c.582 1.017 1.212 2.107 2.875 2.77H10.271z" stroke="#fff" stroke-width="1.5"/><defs><linearGradient id="paint0_linear_893_6657" x1="-6.222" y1="5.778" x2="58.667" y2="69.778" gradientUnits="userSpaceOnUse"><stop stop-color="#47CF9E"/><stop offset="1" stop-color="#31BB92"/></linearGradient></defs></svg>