<svg width="18" height="18" fill="none" xmlns="http://www.w3.org/2000/svg"><g clip-path="url(#clip0_976_11720)" stroke="#2E56BD" stroke-width="2" stroke-linecap="round" stroke-linejoin="round"><path d="M9.053 11.857A2.865 2.865 0 0011.926 9a2.865 2.865 0 00-2.873-2.857A2.865 2.865 0 006.18 9a2.865 2.865 0 002.873 2.857z"/><path d="M11.924 6.143v3.571c0 .569.227 1.114.631 1.515a2.16 2.16 0 003.048 0c.404-.401.63-.946.63-1.515V9a7.117 7.117 0 00-1.556-4.44 7.188 7.188 0 00-3.994-2.515 7.22 7.22 0 00-4.702.497A7.164 7.164 0 002.61 5.838a7.107 7.107 0 00-.58 4.666 7.136 7.136 0 002.46 4.015 7.21 7.21 0 008.928.153"/></g><defs><clipPath id="clip0_976_11720"><path fill="#fff" transform="translate(.43 .429)" d="M0 0h17.24v17.143H0z"/></clipPath></defs></svg>