<svg width="22" height="22" fill="none" xmlns="http://www.w3.org/2000/svg"><g clip-path="url(#clip0_893_6681)" stroke-width="1.5"><path d="M2.427 4.678a1.855 1.855 0 01.369-3.673h12.923c1.024 0 1.854.83 1.855 1.855v0c0 .898-.639 1.647-1.486 1.818v3.765l-.202.216-.222.239h0a33.716 33.716 0 00-2.161 2.617h0c-1.577 2.126-2.206 3.592-2.206 4.566 0 1.442.663 2.732 1.704 3.583l1.627 1.33H2.796a1.855 1.855 0 01-.369-3.672V4.678zm0 0v-.224h.368m-.368.224l2.71-.224m-2.342 0v.26h0l2.342-.26h0m-2.342 0h.001m0 0v-.49.49m0 0v.26l.381.001 1.96.002m-2.341-.263h2.341m0 .263s0 0 0 0h0zm0 0a.131.131 0 010-.263m0 8.404s0 0 0 0h0z" stroke="url(#paint0_linear_893_6681)"/><path d="M18.918 11.522h0c.677.914 1.204 1.746 1.563 2.49.355.732.575 1.433.576 2.068v0a4.897 4.897 0 01-4.893 4.893 4.897 4.897 0 01-4.893-4.892c0-.636.22-1.337.575-2.07.36-.743.887-1.575 1.564-2.489a31.747 31.747 0 012.012-2.435l3.496 2.435zm0 0a31.47 31.47 0 00-1.96-2.379l-.036-.04-.01-.01-.004-.004h0l-.001-.001h0l-.001-.001m2.012 2.435l-2.012-2.435m0 0a1.015 1.015 0 00-.742-.323m.742.323l-.742-.323m0 0c-.28 0-.549.116-.74.321l.74-.321z" stroke="url(#paint1_linear_893_6681)"/></g><defs><linearGradient id="paint0_linear_893_6681" x1="-.662" y1="4.426" x2="28.659" y2="28.095" gradientUnits="userSpaceOnUse"><stop stop-color="#FF9839"/><stop offset="1" stop-color="#FF6948"/></linearGradient><linearGradient id="paint1_linear_893_6681" x1="10.733" y1="11.061" x2="27.491" y2="23.848" gradientUnits="userSpaceOnUse"><stop stop-color="#FF9839"/><stop offset="1" stop-color="#FF6948"/></linearGradient><clipPath id="clip0_893_6681"><path fill="#fff" d="M0 0h22v22H0z"/></clipPath></defs></svg>