<svg width="28" height="28" fill="none" xmlns="http://www.w3.org/2000/svg"><path d="M7.09 6.71s0 0 0 0 0 0 0 0zm0 0s0 0 0 0v.002-.002zm12.29-.023a1.956 1.956 0 001.688-1.937v0c0-1.08-.876-1.955-1.956-1.955H4.427a1.955 1.955 0 000 3.91h0l14.952-.018zm-14.953.018l2.66.003h.002l-2.662-.003zm-.267 5.358a1.956 1.956 0 00.266 3.892l-.266-3.892z" stroke="#fff" stroke-width="1.4"/><path d="M22.665 14.654h0c.767 1.035 1.361 1.976 1.767 2.812.4.827.643 1.607.643 2.307v0a5.463 5.463 0 01-5.457 5.458 5.463 5.463 0 01-5.458-5.458c0-.7.243-1.48.643-2.307.405-.836 1-1.777 1.767-2.812a35.991 35.991 0 012.28-2.759l3.815 2.76zm0 0a35.69 35.69 0 00-2.22-2.695l-.042-.045-.011-.012-.004-.004h0l-.001-.001h0l-.001-.002m2.279 2.76l-2.28-2.76m0 0a1.05 1.05 0 00-.768-.334m.769.334l-.768-.334m0 0c-.291 0-.569.12-.768.333l.767-.333z" stroke="#fff" stroke-width="1.5"/></svg>