<svg width="73" height="73" fill="none" xmlns="http://www.w3.org/2000/svg"><g clip-path="url(#clip0_988_20789)"><path d="M69.248 49.31c1.47-1.874 2.174-3.883 2.084-5.951-.09-2.279-1.11-4.062-1.949-5.156.975-2.428 1.35-6.25-1.903-9.218-2.384-2.174-6.43-3.148-12.036-2.878-3.942.18-7.24.914-7.375.944h-.015c-.75.135-1.544.3-2.353.48-.06-.96.105-3.343 1.874-8.709 2.098-6.385 1.978-11.271-.39-14.539C44.697.851 40.725.581 39.555.581A3.764 3.764 0 0036.664 1.9c-1.664 1.933-1.47 5.5-1.26 7.15-1.978 5.306-7.524 18.316-12.215 21.928-.09.06-.165.135-.24.21-1.379 1.454-2.308 3.028-2.938 4.407a6.186 6.186 0 00-2.968-.75H7.9a6.24 6.24 0 00-6.235 6.236v24.356A6.24 6.24 0 007.9 71.673h9.143a6.22 6.22 0 003.598-1.14l3.522.42c.54.075 10.133 1.29 19.98 1.094 1.784.135 3.463.21 5.021.21 2.683 0 5.022-.21 6.97-.63 4.587-.974 7.72-2.922 9.308-5.785 1.214-2.188 1.214-4.362 1.02-5.74 2.982-2.699 3.507-5.681 3.402-7.78a10.127 10.127 0 00-.615-3.013zM7.9 67.625a2.191 2.191 0 01-2.188-2.189v-24.37A2.19 2.19 0 017.9 38.877h9.143a2.19 2.19 0 012.189 2.188v24.357c0 1.214-.99 2.189-2.189 2.189H7.9v.015zm57.512-20.07c-.63.66-.75 1.663-.27 2.443 0 .015.615 1.064.69 2.503.105 1.963-.84 3.702-2.818 5.186a2.042 2.042 0 00-.69 2.308c0 .015.645 1.994-.404 3.867-1.004 1.8-3.238 3.088-6.625 3.808-2.713.584-6.4.689-10.927.33h-.21c-9.638.21-19.38-1.05-19.485-1.065h-.015l-1.514-.18c.09-.42.135-.87.135-1.319v-24.37a6.34 6.34 0 00-.285-1.86c.27-1.003 1.02-3.237 2.788-5.14 6.73-5.336 13.31-23.338 13.595-24.117.12-.315.15-.66.09-1.004-.255-1.68-.165-3.733.194-4.347.795.015 2.938.24 4.227 2.023 1.53 2.114 1.47 5.891-.18 10.897-2.518 7.63-2.727 11.646-.734 13.415.99.884 2.308.93 3.268.585a42.34 42.34 0 012.608-.525c.06-.015.135-.03.195-.045 4.601-1.004 12.845-1.619 15.708.99 2.428 2.218.704 5.155.51 5.47-.555.84-.39 1.934.359 2.608.015.015 1.589 1.5 1.664 3.493.06 1.334-.57 2.698-1.874 4.047z" fill="#fff"/></g><defs><clipPath id="clip0_988_20789"><path fill="#fff" transform="translate(.664 .58)" d="M0 0h71.676v71.676H0z"/></clipPath></defs></svg>