<svg width="21" height="20" fill="none" xmlns="http://www.w3.org/2000/svg"><path d="M10.057 13.333A3.343 3.343 0 0013.41 10c0-1.841-1.5-3.333-3.352-3.333A3.343 3.343 0 006.705 10c0 1.84 1.5 3.333 3.352 3.333z" stroke="#2E56BD" stroke-width="2" stroke-linecap="round" stroke-linejoin="round"/><path d="M13.409 6.666v4.167c0 .663.264 1.3.736 1.768a2.521 2.521 0 003.555 0 2.493 2.493 0 00.737-1.768V10c0-1.881-.64-3.706-1.816-5.18a8.387 8.387 0 00-4.66-2.935 8.424 8.424 0 00-5.485.58 8.358 8.358 0 00-3.934 3.846 8.291 8.291 0 00-.678 5.444 8.326 8.326 0 002.871 4.683 8.409 8.409 0 005.177 1.894 8.412 8.412 0 005.24-1.716" stroke="#2E56BD" stroke-width="2" stroke-linecap="round" stroke-linejoin="round"/></svg>