<svg width="1920" height="1075" fill="none" xmlns="http://www.w3.org/2000/svg"><path fill="url(#paint0_linear_893_6345)" d="M0-5h1920v1080H0z"/><mask id="a" style="mask-type:alpha" maskUnits="userSpaceOnUse" x="-718" y="387" width="1404" height="1404"><circle opacity=".8" cx="-16" cy="1089" r="702" fill="url(#paint1_radial_893_6345)"/></mask><g mask="url(#a)"><path fill="#3461D2" d="M-31 362h771v712H-31z"/></g><circle cx="75.5" cy="105.5" r="412.5" fill="url(#paint2_radial_893_6345)"/><path d="M959 755c0 170.104 137.9 308 308 308s308-137.896 308-308-137.9-308-308-308-308 137.896-308 308z" fill="url(#paint3_radial_893_6345)"/><path d="M959 755c0 170.104 137.9 308 308 308s308-137.896 308-308-137.9-308-308-308-308 137.896-308 308z" fill="url(#paint4_radial_893_6345)"/><circle opacity=".5" cx="1782" cy="295" r="389" fill="url(#paint5_radial_893_6345)"/><circle opacity=".7" cx="1717.5" cy="747.5" r="218.5" fill="url(#paint6_radial_893_6345)"/><defs><radialGradient id="paint1_radial_893_6345" cx="0" cy="0" r="1" gradientUnits="userSpaceOnUse" gradientTransform="matrix(0 704.679 -704.679 0 -16 721.924)"><stop stop-color="#3563D8"/><stop offset="1" stop-color="#3563D8" stop-opacity="0"/></radialGradient><radialGradient id="paint2_radial_893_6345" cx="0" cy="0" r="1" gradientUnits="userSpaceOnUse" gradientTransform="rotate(-106.432 160.838 111.273) scale(303.001)"><stop offset=".042" stop-color="#1041BB"/><stop offset="1" stop-color="#123FB1" stop-opacity="0"/></radialGradient><radialGradient id="paint3_radial_893_6345" cx="0" cy="0" r="1" gradientUnits="userSpaceOnUse" gradientTransform="rotate(-162.966 772.346 316.824) scale(245.782)"><stop stop-color="#3563D8"/><stop offset="1" stop-color="#3563D8" stop-opacity="0"/></radialGradient><radialGradient id="paint4_radial_893_6345" cx="0" cy="0" r="1" gradientUnits="userSpaceOnUse" gradientTransform="rotate(64.673 97.249 1174.222) scale(289.862)"><stop stop-color="#3563D8"/><stop offset="1" stop-color="#294FAF" stop-opacity=".78"/></radialGradient><radialGradient id="paint5_radial_893_6345" cx="0" cy="0" r="1" gradientUnits="userSpaceOnUse" gradientTransform="rotate(91.452 748.388 1005.548) scale(477.991 411.921)"><stop stop-color="#2F65ED"/><stop offset="1" stop-color="#3563D8" stop-opacity="0"/></radialGradient><radialGradient id="paint6_radial_893_6345" cx="0" cy="0" r="1" gradientUnits="userSpaceOnUse" gradientTransform="rotate(91.452 495.027 1205.023) scale(268.486 231.374)"><stop stop-color="#3563D8"/><stop offset="1" stop-color="#3563D8" stop-opacity="0"/></radialGradient><linearGradient id="paint0_linear_893_6345" x1="1920" y1="427" x2="0" y2="427" gradientUnits="userSpaceOnUse"><stop stop-color="#20439C"/><stop offset="1" stop-color="#345DC5"/></linearGradient></defs></svg>