<svg width="23" height="24" fill="none" xmlns="http://www.w3.org/2000/svg"><path d="M8.583 3.375H3.875a1 1 0 00-1 1v4.708a1 1 0 001 1h4.708a1 1 0 001-1V4.375a1 1 0 00-1-1z" stroke="url(#paint0_linear_893_6671)" stroke-width="1.8" stroke-linecap="round" stroke-linejoin="round"/><path d="M16.064 2.693l-3.33 3.329a1 1 0 000 1.414l3.33 3.33a1 1 0 001.414 0l3.33-3.33a1 1 0 000-1.414l-3.33-3.33a1 1 0 00-1.414 0z" stroke="url(#paint1_linear_893_6671)" stroke-width="1.8" stroke-linecap="round" stroke-linejoin="round"/><path d="M19.124 13.917h-4.708a1 1 0 00-1 1v4.708a1 1 0 001 1h4.708a1 1 0 001-1v-4.708a1 1 0 00-1-1z" stroke="url(#paint2_linear_893_6671)" stroke-width="1.8" stroke-linecap="round" stroke-linejoin="round"/><path d="M8.583 13.917H3.875a1 1 0 00-1 1v4.708a1 1 0 001 1h4.708a1 1 0 001-1v-4.708a1 1 0 00-1-1z" stroke="url(#paint3_linear_893_6671)" stroke-width="1.8" stroke-linecap="round" stroke-linejoin="round"/><defs><linearGradient id="paint0_linear_893_6671" x1="9.583" y1="6.058" x2="2.875" y2="6.058" gradientUnits="userSpaceOnUse"><stop stop-color="#20439C"/><stop offset="1" stop-color="#345DC5"/></linearGradient><linearGradient id="paint1_linear_893_6671" x1="18.668" y1="3.883" x2="13.925" y2="8.627" gradientUnits="userSpaceOnUse"><stop stop-color="#20439C"/><stop offset="1" stop-color="#345DC5"/></linearGradient><linearGradient id="paint2_linear_893_6671" x1="20.124" y1="16.6" x2="13.416" y2="16.6" gradientUnits="userSpaceOnUse"><stop stop-color="#20439C"/><stop offset="1" stop-color="#345DC5"/></linearGradient><linearGradient id="paint3_linear_893_6671" x1="9.583" y1="16.6" x2="2.875" y2="16.6" gradientUnits="userSpaceOnUse"><stop stop-color="#20439C"/><stop offset="1" stop-color="#345DC5"/></linearGradient></defs></svg>