<svg width="25" height="26" fill="none" xmlns="http://www.w3.org/2000/svg"><g clip-path="url(#clip0_893_6698)"><path d="M11.081 7.423a.8.8 0 01-.8-.801V1.326a.8.8 0 111.6 0v5.296a.8.8 0 01-.8.801z" fill="url(#paint0_linear_893_6698)"/><path d="M11.083 12.433a1.089 1.089 0 01-.767-1.854c.403-.404 1.127-.404 1.53 0a1.083 1.083 0 01-.763 1.854z" fill="url(#paint1_linear_893_6698)"/><path d="M8.097 21.843c-.34 0-.681-.043-1.019-.128-1.138-.29-2.081-1.033-2.658-2.095L.53 12.446c-.577-1.062-.687-2.26-.31-3.375.377-1.114 1.192-1.998 2.294-2.49l6.212-2.776a.8.8 0 011.056.405.803.803 0 01-.405 1.059L3.165 8.045a2.595 2.595 0 00-1.43 1.54c-.233.687-.162 1.43.199 2.095l3.891 7.174c.361.665.945 1.13 1.645 1.306.701.18 1.436.05 2.069-.364l8.711-5.673a.798.798 0 011.107.235.803.803 0 01-.234 1.109L10.41 21.14a4.222 4.222 0 01-2.314.703z" fill="url(#paint2_linear_893_6698)"/><path d="M23.918 23.407a.8.8 0 01-.8-.802v-5.17c0-2.75-.951-4.482-2.68-7.626l-.057-.106c-1.562-2.844-1.947-2.643-3.09-2.047a.802.802 0 01-.738-1.422c2.495-1.301 3.63-.22 5.23 2.696l.057.106c1.794 3.266 2.877 5.237 2.877 8.399v5.17a.8.8 0 01-.8.802z" fill="url(#paint3_linear_893_6698)"/><path d="M21.308 25.571a.8.8 0 01-.8-.801v-7.336c0-1.598-.031-2.166-.693-3.477L13.985 3.21l-2.578 1.152a.802.802 0 01-.652-1.464l3.253-1.454a.8.8 0 011.029.35l6.195 11.419c.802 1.587.876 2.417.876 4.222v7.335a.8.8 0 01-.8.801z" fill="url(#paint4_linear_893_6698)"/><path d="M19.044 23.227a.799.799 0 01-.65-.334c-.782-1.09-2.276-1.871-2.785-2.08a.802.802 0 01.606-1.483c.091.037 2.27.945 3.477 2.627a.802.802 0 01-.648 1.27z" fill="url(#paint5_linear_893_6698)"/><path d="M19.125 20.132a.799.799 0 01-.653-.338c-.256-.362-.727-.8-.888-.938a.8.8 0 111.043-1.216c.075.064.735.639 1.15 1.227a.803.803 0 01-.652 1.265z" fill="url(#paint6_linear_893_6698)"/><path d="M16 23.454a.835.835 0 01-.168-.017c-.434-.094-1.074-.094-1.285-.087a.791.791 0 01-.828-.772.8.8 0 01.77-.83c.099-.004.974-.03 1.678.121a.802.802 0 01-.166 1.585z" fill="url(#paint7_linear_893_6698)"/><path d="M11.08 14.836a3.492 3.492 0 010-6.982 3.492 3.492 0 013.485 3.491.8.8 0 11-1.6 0 1.888 1.888 0 00-1.885-1.888 1.889 1.889 0 000 3.776 1.87 1.87 0 001.319-.539.798.798 0 011.13.012.802.802 0 01-.01 1.133 3.458 3.458 0 01-2.439.997z" fill="url(#paint8_linear_893_6698)"/></g><defs><linearGradient id="paint0_linear_893_6698" x1="10.032" y1="1.521" x2="14.898" y2="2.633" gradientUnits="userSpaceOnUse"><stop stop-color="#FF6442"/><stop offset="1" stop-color="#FF3939"/></linearGradient><linearGradient id="paint1_linear_893_6698" x1="9.663" y1="10.588" x2="13.162" y2="14.054" gradientUnits="userSpaceOnUse"><stop stop-color="#FF6442"/><stop offset="1" stop-color="#FF3939"/></linearGradient><linearGradient id="paint2_linear_893_6698" x1="-3.031" y1="6.351" x2="26.294" y2="37.477" gradientUnits="userSpaceOnUse"><stop stop-color="#FF6442"/><stop offset="1" stop-color="#FF3939"/></linearGradient><linearGradient id="paint3_linear_893_6698" x1="14.784" y1="8.249" x2="37.169" y2="18.96" gradientUnits="userSpaceOnUse"><stop stop-color="#FF6442"/><stop offset="1" stop-color="#FF3939"/></linearGradient><linearGradient id="paint4_linear_893_6698" x1="8.442" y1="4.87" x2="39.153" y2="19.675" gradientUnits="userSpaceOnUse"><stop stop-color="#FF6442"/><stop offset="1" stop-color="#FF3939"/></linearGradient><linearGradient id="paint5_linear_893_6698" x1="14.375" y1="19.841" x2="20.708" y2="27.311" gradientUnits="userSpaceOnUse"><stop stop-color="#FF6442"/><stop offset="1" stop-color="#FF3939"/></linearGradient><linearGradient id="paint6_linear_893_6698" x1="16.899" y1="17.835" x2="21.252" y2="22.022" gradientUnits="userSpaceOnUse"><stop stop-color="#FF6442"/><stop offset="1" stop-color="#FF3939"/></linearGradient><linearGradient id="paint7_linear_893_6698" x1="13.239" y1="21.991" x2="15.611" y2="26.206" gradientUnits="userSpaceOnUse"><stop stop-color="#FF6442"/><stop offset="1" stop-color="#FF3939"/></linearGradient><linearGradient id="paint8_linear_893_6698" x1="6.512" y1="8.863" x2="17.838" y2="20.013" gradientUnits="userSpaceOnUse"><stop stop-color="#FF6442"/><stop offset="1" stop-color="#FF3939"/></linearGradient><clipPath id="clip0_893_6698"><path fill="#fff" transform="translate(0 .5)" d="M0 0h25v25H0z"/></clipPath></defs></svg>