<svg width="30" height="32" fill="none" xmlns="http://www.w3.org/2000/svg"><path d="M5.271 13.57l.277.698-.277-.697s0 0 0 0h0zm0 0c1.664-.662 2.294-1.752 2.876-2.77l.052-.092c.426-.748 1.034-1.816 2.293-2.044.753-.138 1.406-.051 2.174.33.433.214.91.526 1.476.939v-.278a2.551 2.551 0 01-1.216-2.172 2.572 2.572 0 012.573-2.566 2.572 2.572 0 012.574 2.566c0 .924-.492 1.722-1.216 2.172v.305a11.11 11.11 0 011.488-.89c.763-.365 1.473-.532 2.162-.406 1.259.228 1.867 1.296 2.292 2.044l.053.093c.582 1.017 1.212 2.107 2.875 2.77H5.271z" stroke="url(#paint0_linear_893_6717)" stroke-width="1.5"/><defs><linearGradient id="paint0_linear_893_6717" x1="1.951" y1="8.652" x2="35.477" y2="41.718" gradientUnits="userSpaceOnUse"><stop stop-color="#47CF9E"/><stop offset="1" stop-color="#31BB92"/></linearGradient></defs></svg>