<svg width="21" height="20" fill="none" xmlns="http://www.w3.org/2000/svg"><path d="M18.702 14.1v2.5a1.66 1.66 0 01-.543 1.235 1.677 1.677 0 01-1.284.432 16.646 16.646 0 01-7.232-2.559 16.298 16.298 0 01-5.028-5 16.432 16.432 0 01-2.573-7.225 1.658 1.658 0 01.431-1.273 1.676 1.676 0 011.237-.543h2.514c.407-.004.8.139 1.11.403.308.263.509.63.566 1.03.106.8.303 1.586.587 2.342A1.658 1.658 0 018.109 7.2L7.045 8.258a13.372 13.372 0 005.028 5l1.065-1.058a1.68 1.68 0 011.768-.375c.76.282 1.55.478 2.355.583a1.68 1.68 0 011.045.573c.265.312.407.71.396 1.119z" stroke="#2E56BD" stroke-width="2" stroke-linecap="round" stroke-linejoin="round"/></svg>