<svg width="40" height="40" fill="none" xmlns="http://www.w3.org/2000/svg"><g clip-path="url(#clip0_980_11306)" fill="#2E56BD"><path d="M35.782 1.943H9.917c-2.245 0-4.072 1.81-4.072 4.026L5.68 28.745H.63c-.358 0-.631.316-.631.674v3.134c0 2.935 2.348 5.335 5.182 5.466v.038h21.782v-.043c.162.007.26.043.37.043h.016a5.475 5.475 0 005.444-5.504V12.632h6.575c.358 0 .631-.324.631-.682V6.2a4.248 4.248 0 00-4.218-4.257zM5.466 36.761H5.46c-2.304 0-4.165-1.904-4.165-4.208V30.04h20.566v2.501a5.483 5.483 0 001.6 3.89c.11.11.225.167.342.33H5.466zm26.032-4.209c0 2.305-1.843 4.21-4.149 4.21h-.013a4.209 4.209 0 01-4.178-4.22V29.42a.67.67 0 00-.648-.674H6.974l.167-22.771c0-1.507 1.245-2.735 2.775-2.735h22.808c-.739.81-1.226 1.834-1.226 2.978v26.335zm7.206-26.341v5.125h-5.91v-5.12c0-1.622 1.348-2.977 2.969-2.977h.018a2.953 2.953 0 012.923 2.967v.004z"/><path d="M15.216 17.888l3.34 2.283c.218.15.506.15.724 0l3.33-2.283c1.156-.789 2.01-2.439 2.01-3.838V9.43a.633.633 0 00-.345-.581L19.19 6.348a.636.636 0 00-.566 0l-5.076 2.494a.632.632 0 00-.345.582v4.626c0 1.4.857 3.05 2.013 3.838zm-.717-8.06l4.413-2.178 4.413 2.184v4.216c0 .976-.64 2.217-1.447 2.767l-2.974 2.035-2.962-2.034c-.807-.551-1.443-1.792-1.443-2.768V9.828z"/><path d="M17.812 15.029a.647.647 0 00.919.002l2.576-2.578a.648.648 0 10-.915-.917l-2.117 2.117-.846-.855a.648.648 0 10-.921.913l1.304 1.318zm9.148 6.995H11.413a.648.648 0 000 1.296H26.96a.648.648 0 000-1.296zm0 2.996H11.413a.648.648 0 000 1.296H26.96a.648.648 0 000-1.296z"/></g><defs><clipPath id="clip0_980_11306"><path fill="#fff" d="M0 0h40v40H0z"/></clipPath></defs></svg>