<svg width="37" height="37" fill="none" xmlns="http://www.w3.org/2000/svg"><g clip-path="url(#clip0_980_11296)" fill="#2E56BD"><path d="M10.645 15.436a.84.84 0 00-1.185 1.185l8.405 8.405a.84.84 0 001.188.013l.014-.013 14.019-14.708 1.202-1.261L36.7 6.535a.84.84 0 10-1.21-1.151l-2.16 2.244-1.169 1.227-13.716 14.38-7.8-7.799z"/><path d="M35.448 11.469h.017a.84.84 0 00-1.379.84c3.435 8.626-.773 18.402-9.398 21.836-8.626 3.434-18.402-.774-21.836-9.399-3.435-8.625.773-18.401 9.399-21.835a16.81 16.81 0 0118.314 3.944.84.84 0 001.151-1.22.844.844 0 00-.11-.066C24.467-1.698 12.785-1.8 5.518 5.342c-7.267 7.142-7.368 18.822-.226 26.09 7.141 7.266 18.822 7.368 26.089.226a18.449 18.449 0 004.27-19.828.842.842 0 00-.202-.361z"/></g><defs><clipPath id="clip0_980_11296"><path fill="#fff" d="M0 0h37v37H0z"/></clipPath></defs></svg>