<svg width="117" height="34" fill="none" xmlns="http://www.w3.org/2000/svg"><rect x=".898" width="116.1" height="34" rx="17" fill="url(#paint0_linear_957_10429)"/><path d="M23.678 11.556v-.03a2.317 2.317 0 001.059-1.944 2.337 2.337 0 00-2.338-2.332 2.337 2.337 0 00-2.339 2.332c0 .756.362 1.419.914 1.841a7.918 7.918 0 00-1-.612c-.687-.34-1.276-.42-1.954-.296-1.143.207-1.693 1.175-2.06 1.822l-.05.087 7.768-.868zm0 0a9.28 9.28 0 011.157-.68c.674-.322 1.315-.476 1.942-.361 1.143.207 1.693 1.175 2.06 1.822l.05.087c.504.883 1.04 1.806 2.456 2.37.57.227.898.825.783 1.428l-.001.002a1.28 1.28 0 01-1.256 1.034H29.81c-.046 0-.294-.007-.656-.091l.114.09h-2.814l.444.286-.34.614a2.34 2.34 0 01-1.752 1.192 2.327 2.327 0 01-.528 4.089 1.278 1.278 0 01-.616 2.241 1.279 1.279 0 01-2.525.008A2.337 2.337 0 0119 23.363c0-.787.392-1.482.99-1.904a2.337 2.337 0 01-2.048-2.314c0-.777.38-1.463.964-1.887H15.53l.114-.091c-.362.084-.61.09-.656.09h-1.059a1.28 1.28 0 01-1.256-1.032v-.003c-.116-.603.213-1.2.782-1.428l10.224-3.238zm-10.27 4.524h0zm0 0h0zm2.502-3.656c-.505.883-1.04 1.806-2.456 2.37l2.456-2.37z" stroke="#fff" stroke-width="1.5"/><path d="M44.282 22h-.868c-.112 0-.168-.051-.168-.154v-9.702c0-.103.056-.154.168-.154h1.064a.19.19 0 01.182.112l2.17 3.948c.373.69.747 1.428 1.12 2.212h.042a42.69 42.69 0 011.12-2.198l2.184-3.962c.028-.075.089-.112.182-.112h1.064c.103 0 .154.051.154.154v9.702c0 .103-.051.154-.154.154h-.882c-.103 0-.154-.051-.154-.154v-4.228c0-.943.028-2.207.084-3.794l-.028-.014a172.33 172.33 0 01-1.274 2.464l-1.75 3.248a.22.22 0 01-.196.112H47.6c-.093 0-.154-.037-.182-.112l-1.75-3.248a70.668 70.668 0 01-1.274-2.464l-.028.014c.047 1.979.07 3.243.07 3.794v4.228c0 .103-.051.154-.154.154zm16.402-4.606v1.372c0 .112-.052.168-.154.168h-4.578v.588c0 .513.168.91.504 1.19.335.28.774.42 1.316.42.765 0 1.479-.261 2.142-.784.093-.056.167-.042.224.042l.406.532c.065.075.056.15-.028.224a4.193 4.193 0 01-2.773 1.008c-.812 0-1.507-.229-2.086-.686-.578-.467-.867-1.115-.867-1.946v-2.128c0-.905.284-1.596.854-2.072.578-.476 1.283-.714 2.114-.714.82 0 1.511.238 2.072.714.569.476.854 1.167.854 2.072zm-1.12 0c0-.57-.169-1.003-.505-1.302-.326-.299-.76-.448-1.301-.448-.551 0-.99.15-1.317.448-.326.29-.49.723-.49 1.302v.588h3.612v-.588zm3.047 6.524h-.784c-.103 0-.154-.056-.154-.168v-2.618c0-.103.051-.154.154-.154h.308c.327-.196.579-.705.756-1.526.187-.83.35-2.338.49-4.522 0-.112.051-.168.154-.168h4.466c.112 0 .168.056.168.168v6.048h.728c.112 0 .168.051.168.154v2.618c0 .112-.056.168-.168.168h-.77c-.112 0-.168-.056-.168-.168V22h-5.194v1.75c0 .112-.051.168-.154.168zm1.834-8.12c-.084 1.503-.21 2.67-.378 3.5-.159.821-.378 1.381-.658 1.68h3.612v-5.18h-2.576zM71.7 22h-.994c-.103 0-.154-.051-.154-.154V14.93c0-.112.051-.168.154-.168h.826c.103 0 .154.056.154.168v3.724c0 .159-.005.443-.014.854v.854c.513-.933.924-1.633 1.232-2.1l2.254-3.388a.22.22 0 01.196-.112h.98c.103 0 .154.056.154.168v6.916c0 .103-.051.154-.154.154h-.812c-.112 0-.168-.051-.168-.154v-3.612c0-.495.01-1.078.028-1.75h-.014c-.373.7-.775 1.377-1.204 2.03l-2.268 3.388c-.037.065-.103.098-.196.098zm13.265 1.834h-.742c-.112 0-.168-.051-.168-.154V22h-5.348c-.102 0-.154-.051-.154-.154V14.93c0-.112.052-.168.154-.168h.826c.112 0 .168.056.168.168v6.034h3.416V14.93c0-.112.052-.168.154-.168h.826c.112 0 .168.056.168.168v6.048h.7c.112 0 .168.051.168.154v2.548c0 .103-.056.154-.168.154zM87.798 22h-.994c-.102 0-.154-.051-.154-.154V14.93c0-.112.052-.168.154-.168h.826c.103 0 .154.056.154.168v3.724c0 .159-.004.443-.014.854v.854c.514-.933.924-1.633 1.232-2.1l2.254-3.388a.22.22 0 01.196-.112h.98c.103 0 .154.056.154.168v6.916c0 .103-.051.154-.154.154h-.812c-.112 0-.168-.051-.168-.154v-3.612c0-.495.01-1.078.028-1.75h-.014c-.373.7-.774 1.377-1.204 2.03l-2.268 3.388c-.037.065-.102.098-.196.098zm7.834 0h-.826c-.103 0-.154-.051-.154-.154V14.93c0-.112.051-.168.154-.168h.826c.112 0 .168.056.168.168v2.8h3.416v-2.8c0-.112.051-.168.154-.168h.826c.112 0 .168.056.168.168v6.916c0 .103-.056.154-.168.154h-.826c-.103 0-.154-.051-.154-.154v-3.094H95.8v3.094c0 .103-.056.154-.168.154zm6.69-6.664c.71-.485 1.592-.728 2.646-.728.878 0 1.559.233 2.044.7.495.457.742 1.13.742 2.016v4.2c0 .093-.042.154-.126.182-.821.299-1.722.448-2.702.448-.868 0-1.586-.187-2.156-.56-.569-.373-.854-.952-.854-1.736 0-.719.271-1.27.812-1.652.542-.383 1.274-.574 2.198-.574.486 0 1.046.056 1.68.168v-.448c0-.579-.13-1.008-.392-1.288-.261-.28-.69-.42-1.288-.42-.746 0-1.409.173-1.988.518-.084.056-.154.042-.21-.042l-.406-.588c-.046-.084-.046-.15 0-.196zm.742 4.522c0 .41.168.728.504.952.346.215.798.322 1.358.322s1.12-.084 1.68-.252v-2.1a9.136 9.136 0 00-1.68-.168c-1.241 0-1.862.415-1.862 1.246z" fill="#fff"/><defs><linearGradient id="paint0_linear_957_10429" x1="-17.162" y1="4.911" x2="12.941" y2="106.295" gradientUnits="userSpaceOnUse"><stop stop-color="#47CF9E"/><stop offset="1" stop-color="#31BB92"/></linearGradient></defs></svg>