<svg width="122" height="112" fill="none" xmlns="http://www.w3.org/2000/svg"><g filter="url(#filter0_d_988_11831)" fill="#fff" clip-path="url(#clip0_988_11831)"><path d="M108.437 96.697h-5.288a4.632 4.632 0 001.273-3.197v-2.166a.794.794 0 00-.242-.546c.954-1.485 2-3.348 3.182-6.257.03-.076 2.833-7.046 1.075-10.516-.439-.878-1.166-1.454-2.075-1.681-3.273-.803-5.304 2.045-6.667 5.454V36.212a2.296 2.296 0 00-2.288-2.287H81.725c.152-.425.243-.88.243-1.364 0-1.652-.955-3.06-2.334-3.758C79.346 21 75.164 7.046 60.998 7.046c-14.152 0-18.334 13.94-18.621 21.727-1.38.697-2.334 2.106-2.334 3.758 0 .485.106.954.258 1.378H24.604a2.296 2.296 0 00-2.288 2.288v42.03c-1.348-3.606-3.424-6.757-6.833-5.909-.91.228-1.637.803-2.076 1.682-1.758 3.455 1.045 10.44 1.076 10.516 1.212 3 2.272 4.878 3.257 6.378a.69.69 0 00-.151.424v2.167a4.66 4.66 0 001.273 3.197h-5.288a.744.744 0 00-.743.743c0 .409.334.742.743.742h94.878c.41 0 .743-.333.743-.742a.754.754 0 00-.758-.728zM99.74 82.485c1.697-6.485 3.743-9.333 6.243-8.712.5.121.863.41 1.106.91 1.015 2-.046 6.62-1.121 9.272-1.319 3.227-2.44 5.121-3.455 6.621H99.68v-7.833l.06-.258zM23.8 90.591V87.91h74.395v2.682H23.8zm31.895 1.47H66.3v1.576H55.695V92.06zM23.8 41.197h25.863c1.41 2.243 3.243 4.03 5.364 5.212l-.303 5.819c-3.288.697-13.788 3.378-17.015 9.651-2.576 5.03-2.894 20.879-2.924 24.546H23.8V41.197zm21.182-11.682c0-.878.712-1.606 1.606-1.606.075 0 .151.016.242.03h.076a1.623 1.623 0 011.288 1.576v6.046c0 .894-.727 1.606-1.606 1.606a1.617 1.617 0 01-1.606-1.606v-6.046zm53.212 56.91H87.21c-.03-3.667-.348-19.516-2.94-24.546-3.212-6.273-13.696-8.94-17-9.651l-.302-5.819a14.395 14.395 0 003.515-2.803h3.47a2.491 2.491 0 002.484-2.409h21.758v45.228zm-21.06 0V73.273a.744.744 0 00-1.486 0v13.152H46.346V73.273a.744.744 0 00-1.484 0v13.152H36.27c.045-3.591.363-19.197 2.757-23.864 2.076-4.03 7.788-6.485 12.015-7.803l5.258 6.015a.75.75 0 001.015.106l3.682-2.818 3.682 2.788a.703.703 0 00.44.151.75.75 0 00.56-.257l5.242-6.015c4.227 1.318 9.955 3.772 12.015 7.818 2.41 4.682 2.728 20.273 2.773 23.863h-8.576v.016zm-16.137-38.41c1.56 0 3.09-.318 4.53-.909l.258 5.03c-.03.016-.076.031-.106.061l-4.682 3.97-4.682-3.955c-.03-.03-.06-.03-.09-.045l.257-5.046c1.424.576 2.954.895 4.515.895zm6.94-4.409h.439c-.349.303-.697.591-1.061.849.273-.227.485-.515.621-.849zm-1.576 9.955c.515.106 1.62.333 3.015.712l-4.334 4.985-2.848-2.152 4.167-3.545zm-10.743 0l4.182 3.545-2.849 2.152-4.348-4.97c1.409-.394 2.5-.621 3.015-.727zm16.697-12.364h2.621c-.045.515-.47.924-.985.924h-2.257c.227-.303.424-.605.621-.924zm.833-1.485c.243-.484.47-1 .667-1.515.349.212.727.349 1.136.41v1.105H73.15zm2.258-2.545a1.607 1.607 0 01-1.606-1.606v-5.985c0-.045.015-.076 0-.121a1.602 1.602 0 011.364-1.515c.03 0 .06 0 .09-.015.061 0 .107-.016.152-.016.879 0 1.59.728 1.59 1.607v6.045a1.594 1.594 0 01-1.59 1.606zm-2.41-9.576c-1.62-3.621-2.635-6.197-2.878-7.333a.737.737 0 00-.318-.47.805.805 0 00-.56-.106l-5.758 1.288c-2.728.697-10.015 1.758-11.076-1.621a.747.747 0 00-1.455.303c0 .076.576 5.94-1.348 9.166a3.121 3.121 0 00-1.833-2.151c.666-4.803 3.257-14.44 13.227-14.44s12.56 9.637 13.227 14.44a3.068 3.068 0 00-1.227.924zm-23.302 7.97v-4.53c2.379-2.152 2.818-6.425 2.833-9.137 3.485 2.47 10.94.622 11.303.53l5.046-1.136c.606 2.015 2.151 5.53 3.439 8.349v5.924c0 .515.136 1 .379 1.44-.667 1.954-1.652 3.696-2.849 5.12h-1.894a2.064 2.064 0 00-1.924-1.318c-.394 0-.757.122-1.076.303.273-.5.47-1.045.516-1.636a.752.752 0 00-.743-.803H58.15a.752.752 0 00-.742.803c.167 2.09 1.94 3.742 4.03 3.742 1 0 1.925-.378 2.637-1.015-.076.212-.122.44-.122.667a2.063 2.063 0 002.97 1.848c-1.788 1.167-3.818 1.819-5.909 1.819-5.09 0-9.742-3.819-11.682-9.53.212-.425.364-.925.364-1.44zm16.894 7.303a.592.592 0 01-.591.59.582.582 0 01-.591-.59.592.592 0 011.182 0zm-2.818-2.712c-.394.924-1.303 1.576-2.349 1.576-1.045 0-1.954-.652-2.348-1.576h4.697zm33.62-4.743c.44 0 .804.364.804.803v3.516H76.452V38.47a3.12 3.12 0 001.819-1.742 4.164 4.164 0 002.575-1.319h16.546zm-17.423-1.272a.319.319 0 00-.061.09 2.66 2.66 0 01-1.424.955v-5.257c.03.015.075.03.106.045.015 0 .03.015.045.015a2.74 2.74 0 011.834 2.576 2.574 2.574 0 01-.5 1.576zM60.998 8.53c12.56 0 16.59 12.106 17.106 19.515a3.067 3.067 0 00-2.41-1.591c-.726-5.212-3.56-15.712-14.696-15.712-11.121 0-13.97 10.5-14.697 15.712a3.007 3.007 0 00-2.394 1.59c.5-7.393 4.53-19.514 17.09-19.514zM43.346 29.97c.016-.015.046-.015.06-.03.031-.015.077-.03.107-.046v5.258a2.736 2.736 0 01-2-2.636c0-1.167.773-2.167 1.833-2.546zm-18.742 5.44H41.18c.651.712 1.545 1.166 2.56 1.302a3.093 3.093 0 002.864 1.955c.576 0 1.106-.167 1.576-.44.197.516.424 1.03.666 1.516H23.801v-3.53c0-.44.364-.804.803-.804zm-9.879 39.272c.258-.5.606-.788 1.106-.909 2.5-.621 4.546 2.227 6.243 8.712.09.349.166.697.242 1.06v7.046h-3.015c-1.015-1.515-2.152-3.409-3.455-6.621-1.075-2.667-2.136-7.288-1.12-9.288zm7.53 22.015a3.207 3.207 0 01-3.197-3.197v-1.424h35.137v2.318c0 .41.333.743.742.743h12.091a.744.744 0 00.743-.743v-2.318h35.136V93.5a3.207 3.207 0 01-3.197 3.197H22.255z"/><path d="M20.71 87.94c.121-.97.06-1.924-.091-2.864a14.063 14.063 0 00-.727-2.742 13.838 13.838 0 00-1.258-2.56c-.5-.804-1.076-1.577-1.818-2.228.197.954.47 1.848.773 2.712.288.879.59 1.727.909 2.576.318.848.651 1.697 1.015 2.545a22.94 22.94 0 001.197 2.56zm81.773-3.121c.363-.773.681-1.561.984-2.349.304-.788.591-1.576.864-2.394.273-.818.515-1.636.682-2.545-.697.59-1.258 1.303-1.727 2.045-.485.743-.879 1.53-1.197 2.364a12.157 12.157 0 00-.697 2.545c-.152.864-.212 1.758-.106 2.667.469-.773.848-1.546 1.197-2.334zM13.65 24.728H27.3L32.362 28a.761.761 0 00.41.122c.075 0 .151-.016.227-.03a.766.766 0 00.47-.425l1.181-2.924h2.03c.41 0 .743-.334.743-.743V11.758a.744.744 0 00-.742-.742H13.65a.744.744 0 00-.743.742v12.227c0 .41.333.743.742.743zm.742-12.228h21.545v10.743h-1.803a.72.72 0 00-.682.47l-1.03 2.56-4.5-2.894a.762.762 0 00-.409-.121H14.392V12.5z"/><path d="M17.27 16.652h13.85a.744.744 0 000-1.485H17.27a.744.744 0 000 1.485zm10.607 3.151c0 .41.333.743.742.743h4.364a.744.744 0 000-1.485h-4.364a.744.744 0 00-.742.742zM25.8 19.06h-8.53a.744.744 0 00-.742.743c0 .41.334.743.742.743h8.53a.744.744 0 000-1.485zm62.198 6.152c.06.607.379 1.152.894 1.47a1.979 1.979 0 001.712.212l4.409-1.485c.924.182 1.879.243 2.833.197 5.697-.257 10.531-4.712 11.243-10.333.485-3.803-.818-7.485-3.546-10.121-2.727-2.637-6.454-3.788-10.242-3.167-4.94.803-8.955 4.818-9.758 9.758-.515 3.182.212 6.348 2.046 8.924l.409 4.545zm-1-13.227c.697-4.318 4.212-7.818 8.53-8.53a11.44 11.44 0 011.758-.137c2.697 0 5.257 1.016 7.227 2.91 2.394 2.303 3.53 5.545 3.106 8.878-.621 4.925-4.848 8.819-9.833 9.046a10.36 10.36 0 01-2.652-.212.867.867 0 00-.394.015L90.15 25.5a.46.46 0 01-.425-.06.522.522 0 01-.227-.364l-.44-4.742a.88.88 0 00-.136-.38c-1.712-2.287-2.394-5.12-1.924-7.969z"/><path d="M94.861 20.076a5.31 5.31 0 003.773 1.56 5.312 5.312 0 003.773-1.56l1.591-1.59a1.739 1.739 0 000-2.44l-1.197-1.197c-.652-.652-1.788-.652-2.44 0l-1.272 1.273a5.364 5.364 0 01-3.515-3.516l1.272-1.272a1.738 1.738 0 000-2.44L95.65 7.697c-.651-.651-1.788-.651-2.44 0l-1.605 1.591c-2.076 2.076-2.076 5.455 0 7.546l3.257 3.242zm6.879-4.167l1.197 1.197c.091.091.091.243 0 .349l-.409.409-1.545-1.546.409-.409c.136-.12.227-.12.348 0zm-7.318-7.227a.26.26 0 01.167.076l1.197 1.197c.09.09.09.242 0 .348l-.41.41-1.545-1.546.41-.41c.06-.075.136-.075.181-.075zm-1.757 1.652l.136-.137 1.53 1.546-.136.136c-.182.182-.243.5-.182.758a6.84 6.84 0 005.106 5.06.747.747 0 00.697-.197l.136-.136 1.546 1.545-.137.137a3.85 3.85 0 01-5.439 0l-3.257-3.258c-1.5-1.515-1.5-3.954 0-5.454z"/></g><defs><clipPath id="clip0_988_11831"><path fill="#fff" d="M0 0h122v112H0z"/></clipPath><filter id="filter0_d_988_11831" x="2.828" y="-3.18" width="116.367" height="116.347" filterUnits="userSpaceOnUse" color-interpolation-filters="sRGB"><feFlood flood-opacity="0" result="BackgroundImageFix"/><feColorMatrix in="SourceAlpha" values="0 0 0 0 0 0 0 0 0 0 0 0 0 0 0 0 0 0 127 0" result="hardAlpha"/><feOffset dy="5"/><feGaussianBlur stdDeviation="5"/><feComposite in2="hardAlpha" operator="out"/><feColorMatrix values="0 0 0 0 0 0 0 0 0 0.533333 0 0 0 0 0.44549 0 0 0 1 0"/><feBlend in2="BackgroundImageFix" result="effect1_dropShadow_988_11831"/><feBlend in="SourceGraphic" in2="effect1_dropShadow_988_11831" result="shape"/></filter></defs></svg>