<svg width="121" height="112" fill="none" xmlns="http://www.w3.org/2000/svg"><g filter="url(#filter0_d_988_11821)" fill="#fff" clip-path="url(#clip0_988_11821)"><path d="M84.914 72.953a.837.837 0 00-.422.422.781.781 0 00-.062.297.782.782 0 00.781.781.78.78 0 00.305-.055.835.835 0 00.421-.421.78.78 0 00.055-.305.78.78 0 00-.055-.297.78.78 0 00-1.023-.422zM72.82 29.836a.78.78 0 00.258.172.836.836 0 00.594 0 .71.71 0 00.258-.172.78.78 0 00.172-.25.78.78 0 00.054-.305.783.783 0 00-.054-.297.944.944 0 00-.172-.25.779.779 0 00-1.11 0 .78.78 0 000 1.102zm-19.609-1.102a.78.78 0 00-1.328.547.784.784 0 00.054.305.78.78 0 00.172.25.68.68 0 00.25.172.78.78 0 00.305.055.781.781 0 00.297-.055.835.835 0 00.422-.422.78.78 0 00.062-.305.78.78 0 00-.234-.547zm-6.766-.171a.78.78 0 10.852 1.273.944.944 0 00.172-.25.782.782 0 00-1.024-1.023zm-5.187.07l-.133-.07-.148-.047a.781.781 0 00-.703.218.781.781 0 00-.234.547.78.78 0 00.062.305.835.835 0 00.422.422.78.78 0 00.304.055.781.781 0 00.297-.055.836.836 0 00.422-.422.782.782 0 00.062-.305.781.781 0 00-.234-.547.5.5 0 00-.117-.101zm11.953-5.82a.782.782 0 00-.852-.157.782.782 0 00-.42.419.78.78 0 00.725 1.081.781.781 0 00.721-1.086.782.782 0 00-.174-.258z"/><path d="M63 .39A49.61 49.61 0 10112.609 50 49.669 49.669 0 0063 .39zm0 97.657A48.047 48.047 0 11111.047 50 48.103 48.103 0 0163 98.047z"/><path d="M49.945 86.938A39.235 39.235 0 0123.844 50.78h9.14l-3.265 3.266a.781.781 0 000 1.101.781.781 0 001.101 0l4.602-4.593a.78.78 0 00.008-1.11l-4.61-4.601a.78.78 0 10-1.101 1.11l3.265 3.265h-9.937a.781.781 0 00-.781.781 40.805 40.805 0 0027.156 38.414c.083.03.17.046.258.047a.792.792 0 10.265-1.563v.04zm26.633-75.352a.783.783 0 10-.523 1.476 39.235 39.235 0 0126.101 36.157h-9.14l3.265-3.266a.782.782 0 10-1.101-1.11l-4.602 4.602a.782.782 0 00-.172.258.78.78 0 00-.062.297.82.82 0 00.055.305.79.79 0 00.171.25l4.602 4.593a.781.781 0 001.102 0 .78.78 0 000-1.101l-3.258-3.266h9.937a.784.784 0 00.781-.781 40.805 40.805 0 00-27.156-38.414zm24.36 50.992a.784.784 0 00-1 .477A39.234 39.234 0 0163.78 89.156v-9.14l3.266 3.265a.782.782 0 001.11-1.101l-4.602-4.602a.782.782 0 00-1.11 0l-4.601 4.602a.781.781 0 101.11 1.101l3.265-3.265v9.937a.782.782 0 00.781.781 40.804 40.804 0 0038.414-27.156.779.779 0 00-.476-1zM25.063 37.422c.083.027.17.04.257.039a.781.781 0 00.742-.516A39.234 39.234 0 0162.22 10.844v9.14l-3.266-3.265a.78.78 0 10-1.11 1.101l4.602 4.602a.83.83 0 00.258.172.837.837 0 00.594 0 .828.828 0 00.258-.172l4.601-4.602a.781.781 0 10-1.11-1.101l-3.265 3.265v-9.937A.781.781 0 0063 9.266a40.805 40.805 0 00-38.414 27.156.78.78 0 00.477 1zm41.679 9.618a.781.781 0 00-.781-.782h-5.922a.781.781 0 00-.781.781v5.922a.781.781 0 00.781.781h5.922a.781.781 0 00.781-.781v-5.922zm-1.562 5.14h-4.36v-4.36h4.36v4.36zm.781 5.914h-5.922a.781.781 0 00-.781.781v5.922a.78.78 0 00.781.781h5.922a.781.781 0 00.781-.781v-5.922a.781.781 0 00-.781-.781zm-.781 5.922h-4.36v-4.36h4.36v4.36z"/><path d="M70.414 65.578h2.18v8.094a.781.781 0 00.781.781h5.914a.781.781 0 100-1.562h-5.133v-7.313h2.18a.781.781 0 00.781-.781v-2.18h5.133a.782.782 0 00.781-.781v-5.133h2.18a.781.781 0 100-1.562h-2.18V50a.781.781 0 00-.781-.781h-5.133v-2.18a.781.781 0 00-.781-.781h-5.922a.781.781 0 00-.781.781v5.922a.781.781 0 00.781.781h5.922a.781.781 0 00.781-.781v-2.18h4.352v10.274h-4.352v-2.18a.781.781 0 00-.781-.781h-5.922a.781.781 0 00-.781.781v5.922a.78.78 0 00.781.781zm5.14-13.398h-4.359v-4.36h4.36v4.36zm-4.359 7.476h4.36v4.36h-4.36v-4.36zm-4.453-24.453a.781.781 0 00-.781-.781h-2.18v-5.14a.781.781 0 10-1.562 0v5.14h-2.18a.781.781 0 00-.781.781v5.922a.78.78 0 00.781.781h5.922a.781.781 0 00.781-.781v-5.922zm-1.562 5.14h-4.36v-4.359h4.36v4.36zm5.234 1.563h5.922a.781.781 0 00.781-.781v-2.18h5.133a.782.782 0 000-1.562h-5.133v-2.18a.781.781 0 00-.781-.781h-5.922a.781.781 0 00-.781.781v5.922a.78.78 0 00.781.781zm.781-5.922h4.36v4.36h-4.36v-4.36zm-15.578-1.562H49.72a.782.782 0 00-.782.781v2.18h-6.101a.781.781 0 00-.781.781v23.672a.781.781 0 00.781.781h6.102v2.18a.781.781 0 00.78.781h2.18v5.133a.781.781 0 101.563 0v-5.133h2.18a.781.781 0 00.78-.781v-5.922a.781.781 0 00-.78-.781H49.72a.782.782 0 00-.782.781v2.18h-5.32V50.78h5.32v2.18a.781.781 0 00.782.781h5.922a.781.781 0 00.78-.781v-5.922a.781.781 0 00-.78-.781H49.72a.782.782 0 00-.782.781v2.18h-5.32V38.945h5.32v2.18a.781.781 0 00.782.781h5.922a.781.781 0 00.78-.781v-5.922a.783.783 0 00-.804-.781zM50.5 59.656h4.36v4.36H50.5v-4.36zm0-11.836h4.36v4.36H50.5v-4.36zm4.36-7.476H50.5v-4.36h4.36v4.36zm32.757-1.625a.782.782 0 001.336-.555.82.82 0 00-.226-.555.726.726 0 00-.258-.164.782.782 0 00-.594 0 .9.9 0 00-.258.164.82.82 0 00-.226.555.783.783 0 00.226.555zm6.477.226a.782.782 0 00.719-.484.779.779 0 00.062-.297.78.78 0 00-1.01-.744.781.781 0 00-.326 1.299c.072.07.157.126.25.164a.78.78 0 00.305.062zm-6.219-5.976a.837.837 0 00.594 0 .782.782 0 00.258-1.274.65.65 0 00-.258-.172.782.782 0 00-.852 1.274.93.93 0 00.258.172zM53.211 76.078a.781.781 0 00-.55-.224.78.78 0 00-.724.482.837.837 0 000 .594.933.933 0 00.172.257.782.782 0 001.102-1.109zm-6.171 1.266a.931.931 0 00.257-.172.782.782 0 00.164-.852.899.899 0 00-.164-.257.782.782 0 00-1.11 0 .896.896 0 00-.163.257.78.78 0 00-.005.597.78.78 0 001.02.427z"/></g><defs><clipPath id="clip0_988_11821"><path fill="#fff" d="M0 0h121v112H0z"/></clipPath><filter id="filter0_d_988_11821" x="3.391" y="-4.609" width="119.219" height="119.219" filterUnits="userSpaceOnUse" color-interpolation-filters="sRGB"><feFlood flood-opacity="0" result="BackgroundImageFix"/><feColorMatrix in="SourceAlpha" values="0 0 0 0 0 0 0 0 0 0 0 0 0 0 0 0 0 0 127 0" result="hardAlpha"/><feOffset dy="5"/><feGaussianBlur stdDeviation="5"/><feComposite in2="hardAlpha" operator="out"/><feColorMatrix values="0 0 0 0 0.150694 0 0 0 0 0.583333 0 0 0 0 0.32375 0 0 0 1 0"/><feBlend in2="BackgroundImageFix" result="effect1_dropShadow_988_11821"/><feBlend in="SourceGraphic" in2="effect1_dropShadow_988_11821" result="shape"/></filter></defs></svg>