<svg width="110" height="110" fill="none" xmlns="http://www.w3.org/2000/svg"><g filter="url(#filter0_d_988_11768)" fill="#fff" clip-path="url(#clip0_988_11768)"><path d="M101.566 96.083h-2.967V88.95h1.267a.74.74 0 00.733-.734.74.74 0 00-.733-.733h-3.417c.45-1.133 1-1.933 1.7-2.95 1.033-1.483 2.333-3.333 3.883-7.133.034-.067 2.567-6.367.967-9.5-.417-.8-1.067-1.334-1.917-1.55-4.2-1.034-6.183 4.55-7.316 8.85-.434 1.633-.6 3.3-.634 4.9-.683-1.434-1.783-3.017-3.1-3.167-.683-.083-1.65.183-2.416 1.867-1.734 3.833 1.4 6.983 3.75 8.7h-2.167a.74.74 0 00-.733.733c0 .4.333.733.733.733h1.267V96.1h-5.017c-.033-3.85-.383-21.1-3.417-26.584-3.916-7.1-17.233-9.916-20.25-10.466l-.366-7.3c3.533-1.984 6.35-5.6 7.7-10.217a4.407 4.407 0 003.816-4.367A4.393 4.393 0 0071 33.533c.917-3.917 1.583-10.167-1.633-14.9-2.784-4.1-7.9-6.183-15.2-6.2h-.017c-6.167 0-10.65 1.817-13.333 5.4-4.25 5.7-2.55 13.917-2.034 15.983a4.393 4.393 0 00-1.566 3.35c0 2.217 1.666 4.067 3.816 4.367 1.334 4.617 4.15 8.233 7.7 10.217l-.366 7.3c-2.85.533-14.967 3.1-19.567 9.416H10.95a.74.74 0 00-.733.734v26.9h-3a.74.74 0 00-.734.733c0 .4.334.733.734.733h94.35a.74.74 0 00.733-.733c0-.4-.333-.75-.733-.75zm-6.367-20.517c1.383-5.283 3-7.85 4.95-7.85.183 0 .383.017.567.067.433.1.733.35.95.783.9 1.784-.05 5.917-1.017 8.284-1.483 3.65-2.717 5.416-3.717 6.85-.633.9-1.2 1.716-1.683 2.8-.033-.1-.083-.2-.117-.317-.483-2.633-.933-6.75.067-10.617zM88.966 79.4c.133-.317.5-1.017.866-1.017h.034c.883.1 2.216 2.517 2.483 3.85.217 1.083.85 2.917 1.383 4.333.05.284.117.55.167.8-1.433-.816-6.667-4.116-4.933-7.966zm-27.7-18.95l2.733.6-4.583 5.7-3.134-2.384 4.984-3.916zM41.999 18.716c2.383-3.183 6.467-4.8 12.15-4.8h.017c6.783 0 11.483 1.867 13.966 5.534 3.4 5.016 1.884 12.25.934 15.516-1.334-2.866-3.967-8.65-4.417-10.733a.668.668 0 00-.317-.467c-.166-.1-.366-.15-.566-.1l-6.067 1.367c-2.883.733-10.6 1.85-11.733-1.75a.726.726 0 00-.85-.5.747.747 0 00-.584.8c.017.1.917 9.5-3.3 11.5L40.3 33.8c-.3-1.117-2.4-9.617 1.7-15.084zm.333 21.917a.75.75 0 00-.716-.55 2.923 2.923 0 01-2.917-2.933c0-.75.283-1.45.8-1.984l.867 1.217c.183.25.516.367.816.267 4.267-1.317 4.917-7.35 4.917-10.8 3.617 2.666 11.567.7 11.95.6l5.35-1.2c1.067 3.533 4.95 11.65 5.133 12.016.117.25.384.417.667.417h.033c.3-.017.55-.2.667-.467.05-.116.35-.9.7-2.116.55.533.867 1.266.867 2.05 0 1.6-1.3 2.916-2.917 2.933a.765.765 0 00-.717.55c-1.216 4.617-3.983 8.2-7.466 10-.017.017-.034.017-.05.033a11.335 11.335 0 01-5.217 1.284c-1.833 0-3.6-.45-5.217-1.284-.016-.016-.033-.016-.05-.033-3.516-1.8-6.3-5.383-7.5-10zm12.734 12.8c1.7 0 3.35-.35 4.9-.983l.35 6.883-5.25 4.133-5.25-4.133.35-6.867c1.55.617 3.2.967 4.9.967zm-6.167 7.017l4.983 3.916-3.133 2.384-4.583-5.7 2.733-.6zm-4.333.983l5.466 6.8c.15.183.367.283.567.283.15 0 .317-.05.45-.15l4.017-3.05 4.016 3.05c.134.1.284.15.45.15.217 0 .434-.1.567-.283l5.467-6.8c4.983 1.35 12.55 4.083 15.15 8.8 2.816 5.1 3.183 22.133 3.233 25.867h-6.583a3.255 3.255 0 00.533-1.784V72.7c0-1.8-1.467-3.25-3.25-3.25h-38.2v-.267a.74.74 0 00-.733-.733h-5.017c3.3-3.65 9.55-5.85 13.867-7.017zm-8.117 34.65V70.916h38.217c.983 0 1.783.8 1.783 1.784v21.6c0 .983-.8 1.783-1.783 1.783H36.449zm-24.767 0V69.916h23.284v26.167H11.682zm80.25 0V88.95h5.184v7.133h-5.184z"/><path d="M54.916 79.583a4.52 4.52 0 00-4.517 4.517 4.52 4.52 0 004.517 4.516 4.51 4.51 0 004.516-4.516 4.52 4.52 0 00-4.516-4.517zm0 7.55a3.044 3.044 0 01-3.034-3.033 3.044 3.044 0 013.034-3.034 3.044 3.044 0 013.033 3.034 3.034 3.034 0 01-3.033 3.033zM8.432 52.983h13.584l5.033 3.25a.7.7 0 00.4.117.96.96 0 00.217-.034.711.711 0 00.466-.433l1.167-2.9h2.033a.74.74 0 00.734-.733V40.083a.74.74 0 00-.734-.733h-22.9a.74.74 0 00-.733.733V52.25c0 .4.333.733.733.733zm.734-12.167h21.433V51.5h-1.783a.74.74 0 00-.684.466L27.116 54.5l-4.467-2.884a.665.665 0 00-.4-.116H9.166V40.816z"/><path d="M12.05 44.95h15.632a.74.74 0 00.734-.734.74.74 0 00-.734-.733H12.05a.74.74 0 00-.733.733c-.017.4.316.734.733.734zm15.632 2.4h-4.35a.74.74 0 00-.733.733c0 .4.333.733.733.733h4.35a.74.74 0 00.734-.733.74.74 0 00-.734-.733zm-7.15 0H12.05a.74.74 0 00-.733.733c0 .4.333.733.733.733h8.483a.74.74 0 00.734-.733.74.74 0 00-.734-.733zm53.584 5.466l1.633.3c.167.5.367 1 .6 1.467l-.933 1.367a.73.73 0 00.083.933l2.583 2.583c.25.25.65.284.934.084l1.366-.934c.467.234.95.45 1.467.6l.3 1.634c.067.35.367.6.717.6h3.65c.35 0 .666-.25.716-.6l.3-1.634c.5-.166 1-.366 1.467-.6l1.367.934c.3.2.683.166.933-.084l2.583-2.583c.25-.25.284-.65.084-.933l-.934-1.367c.25-.467.45-.95.6-1.467l1.634-.3c.35-.066.6-.366.6-.733v-3.65c0-.35-.25-.667-.6-.733l-1.634-.3c-.166-.5-.366-1-.6-1.467l.934-1.367c.2-.3.166-.683-.084-.933L91.3 41.05a.733.733 0 00-.933-.084L89 41.9a7.53 7.53 0 00-1.467-.6l-.3-1.634a.731.731 0 00-.716-.6h-3.65c-.35 0-.667.25-.717.6l-.3 1.634c-.5.166-1 .366-1.467.6l-1.366-.934a.732.732 0 00-.934.084L75.5 43.633a.733.733 0 00-.083.933l.933 1.367a7.98 7.98 0 00-.6 1.467l-1.633.3a.736.736 0 00-.6.733v3.65c0 .35.25.667.6.733zm.883-3.783l1.467-.267a.76.76 0 00.583-.533c.183-.7.45-1.35.817-1.967a.706.706 0 00-.034-.783l-.85-1.233 1.717-1.717 1.233.85a.74.74 0 00.784.033 8.163 8.163 0 011.966-.816.714.714 0 00.534-.584l.266-1.483h2.434l.266 1.483c.05.284.267.5.534.584.7.183 1.35.45 1.966.816.25.15.55.134.784-.033l1.233-.85 1.717 1.717-.85 1.233a.74.74 0 00-.034.783 8.17 8.17 0 01.817 1.967c.067.283.3.483.583.533l1.467.267v2.433l-1.467.267a.762.762 0 00-.583.533 7.55 7.55 0 01-.817 1.967c-.15.25-.133.55.034.783l.85 1.234-1.717 1.716-1.233-.85a.74.74 0 00-.784-.033 8.17 8.17 0 01-1.966.817.714.714 0 00-.534.583l-.266 1.467h-2.417l-.267-1.467a.761.761 0 00-.533-.583 7.55 7.55 0 01-1.967-.817.706.706 0 00-.783.033l-1.233.85-1.717-1.716.85-1.234a.74.74 0 00.033-.783 8.166 8.166 0 01-.816-1.967.714.714 0 00-.584-.533L75 51.466v-2.433z"/><path d="M84.716 55.45c2.866 0 5.2-2.334 5.2-5.2 0-2.867-2.334-5.2-5.2-5.2a5.207 5.207 0 00-5.2 5.2c0 2.866 2.333 5.2 5.2 5.2zm0-8.917a3.72 3.72 0 013.716 3.717 3.72 3.72 0 01-3.716 3.716 3.72 3.72 0 01-3.717-3.716c-.017-2.05 1.65-3.717 3.717-3.717zM28.382 75.616a.736.736 0 00-1.117.35l-1.6 4.55a.719.719 0 00.1.684c.367.5.567 1.1.567 1.816-.05.3.084.6.35.75l4.017 2.4c.117.067.25.1.383.1a.667.667 0 00.25-.05.796.796 0 00.45-.45 9.07 9.07 0 00.467-2.816 8.951 8.951 0 00-3.867-7.334zm2.234 8.784l-2.817-1.684a4.395 4.395 0 00-.617-2.05l1.134-3.233a7.397 7.397 0 012.45 5.5c0 .5-.05.983-.15 1.467zM17 78l4 2.383a.774.774 0 00.767 0 3.212 3.212 0 011.549-.45c.35.05.7-.133.816-.483l1.5-4.284a.793.793 0 00-.05-.616.69.69 0 00-.5-.35c-3.033-.567-6.183.433-8.25 2.666a.727.727 0 00-.183.6c.017.234.15.417.35.534zm6.95-2.467l-1.034 2.933c-.517.05-1.034.2-1.517.417l-2.817-1.667a7.55 7.55 0 015.367-1.683zm5.85 12.2l-3.968-2.367a.733.733 0 00-.8.034 3.009 3.009 0 01-4.717-2.467c0-.1 0-.2.017-.283.05-.3-.083-.6-.35-.75l-3.966-2.367a.731.731 0 00-.617-.067.768.768 0 00-.45.434 8.731 8.731 0 00-.533 3.033c0 4.917 3.983 8.9 8.9 8.9a8.898 8.898 0 006.65-2.983.727.727 0 00-.167-1.117zm-6.468 2.633c-4.1 0-7.416-3.333-7.416-7.433 0-.567.066-1.133.183-1.65l2.767 1.65v.017c0 2.466 2 4.466 4.466 4.466.75 0 1.484-.183 2.134-.55l2.766 1.65a7.46 7.46 0 01-4.9 1.85zm74.45-14.033c.584-2.067 1.334-4.067 2.084-6.15-1.434 1.7-2.4 3.75-3.034 5.867-.6 2.133-.883 4.383-.583 6.583.483-2.15.917-4.25 1.533-6.3z"/></g><defs><clipPath id="clip0_988_11768"><path fill="#fff" d="M0 0h110v110H0z"/></clipPath><filter id="filter0_d_988_11768" x="-3.518" y="7.433" width="117.047" height="105.133" filterUnits="userSpaceOnUse" color-interpolation-filters="sRGB"><feFlood flood-opacity="0" result="BackgroundImageFix"/><feColorMatrix in="SourceAlpha" values="0 0 0 0 0 0 0 0 0 0 0 0 0 0 0 0 0 0 127 0" result="hardAlpha"/><feOffset dy="5"/><feGaussianBlur stdDeviation="5"/><feComposite in2="hardAlpha" operator="out"/><feColorMatrix values="0 0 0 0 0.088125 0 0 0 0 0.28438 0 0 0 0 0.783333 0 0 0 1 0"/><feBlend in2="BackgroundImageFix" result="effect1_dropShadow_988_11768"/><feBlend in="SourceGraphic" in2="effect1_dropShadow_988_11768" result="shape"/></filter></defs></svg>