<svg width="110" height="110" fill="none" xmlns="http://www.w3.org/2000/svg"><g filter="url(#filter0_d_988_11780)" fill="#fff" clip-path="url(#clip0_988_11780)"><path d="M9.773 55h-.049a.732.732 0 01-.683-.78 45.503 45.503 0 0145.314-42.38.734.734 0 010 1.466 44.032 44.032 0 00-43.853 41.007.733.733 0 01-.729.687z"/><path d="M48.474 18.888a.733.733 0 01-.488-1.281l5.559-4.941-6.15-3.975a.734.734 0 11.796-1.231l6.96 4.497a.733.733 0 01.088 1.164l-6.276 5.58a.733.733 0 01-.49.187zm5.987 83.77A45.521 45.521 0 0115.028 79.96a.733.733 0 111.27-.733A44.033 44.033 0 0073.737 96.7a.733.733 0 01.649 1.316 45.002 45.002 0 01-19.924 4.643z"/><path d="M15.046 88.259h-.037a.733.733 0 01-.696-.769l.415-8.276a.732.732 0 01.963-.66l7.974 2.647a.735.735 0 01-.462 1.393l-7.058-2.343-.367 7.313a.733.733 0 01-.732.695zm78.006-7.932a.733.733 0 01-.635-1.1A44.032 44.032 0 0078.83 20.748a.733.733 0 01.816-1.219A45.502 45.502 0 0193.687 79.96a.733.733 0 01-.635.367z"/><path d="M92.85 80.672a.734.734 0 01-.718-.586l-1.695-8.228a.733.733 0 011.437-.294l1.5 7.285 6.517-3.34a.732.732 0 11.668 1.307l-7.375 3.777a.727.727 0 01-.334.08zM47.333 66.88h-4.388a.733.733 0 01-.722-.605l-.828-4.645a17.492 17.492 0 01-5.867-2.429L31.66 61.9a.733.733 0 01-.938-.084l-3.103-3.102a.733.733 0 01-.083-.938l2.698-3.87a17.492 17.492 0 01-2.428-5.866l-4.645-.828a.733.733 0 01-.605-.722V42.1a.734.734 0 01.605-.72l4.645-.827a17.498 17.498 0 012.43-5.866l-2.7-3.87a.733.733 0 01.084-.937l3.103-3.103a.733.733 0 01.938-.083l3.869 2.699a17.51 17.51 0 015.866-2.43l.828-4.644a.733.733 0 01.723-.605h4.387a.733.733 0 01.722.605l.828 4.644a17.512 17.512 0 015.866 2.43l3.87-2.699a.733.733 0 01.938.083l3.102 3.103a.733.733 0 01.083.938l-2.699 3.869a17.529 17.529 0 012.43 5.866l4.644.828a.733.733 0 01.604.722v4.387a.734.734 0 01-.604.723l-4.645.828a17.52 17.52 0 01-2.429 5.867l2.698 3.868a.733.733 0 01-.083.938l-3.102 3.103a.734.734 0 01-.938.084l-3.87-2.699a17.486 17.486 0 01-5.866 2.429l-.828 4.645a.733.733 0 01-.721.604zm-3.774-1.467h3.16l.806-4.532a.734.734 0 01.587-.593 16.078 16.078 0 006.228-2.58.733.733 0 01.836 0l3.775 2.633 2.234-2.234-2.633-3.776a.734.734 0 010-.834 16.075 16.075 0 002.578-6.228.734.734 0 01.593-.586l4.532-.807v-3.161l-4.531-.807a.733.733 0 01-.594-.587 16.074 16.074 0 00-2.578-6.227.733.733 0 010-.836l2.633-3.775-2.232-2.237-3.775 2.633a.733.733 0 01-.835 0 16.088 16.088 0 00-6.228-2.572.733.733 0 01-.587-.593l-.806-4.532H43.56l-.806 4.532a.733.733 0 01-.587.593 16.088 16.088 0 00-6.233 2.575.733.733 0 01-.836 0l-3.776-2.633-2.233 2.234 2.633 3.775a.733.733 0 010 .836 16.087 16.087 0 00-2.579 6.227.734.734 0 01-.593.587l-4.532.807v3.16l4.532.806a.733.733 0 01.593.587 16.087 16.087 0 002.58 6.227.734.734 0 010 .835l-2.633 3.78 2.234 2.233L35.1 57.71a.734.734 0 01.835 0 16.078 16.078 0 006.228 2.578.733.733 0 01.586.593l.81 4.532z"/><path d="M45.137 56.053a11.758 11.758 0 1111.758-11.76 11.771 11.771 0 01-11.758 11.76zm0-22.05a10.292 10.292 0 1010.292 10.29 10.304 10.304 0 00-10.292-10.29zm30.948 54.302a.733.733 0 01-.63-.358l-1.572-2.636c-1.367.19-2.757.146-4.11-.13l-1.736 2.53a.733.733 0 01-.906.255l-2.732-1.235a.733.733 0 01-.409-.848l.753-2.974a12.226 12.226 0 01-2.816-3l-3.015.563a.733.733 0 01-.822-.462l-1.059-2.805a.734.734 0 01.312-.888l2.636-1.571a12.18 12.18 0 01.129-4.113l-2.53-1.733a.734.734 0 01-.255-.907l1.235-2.732a.734.734 0 01.848-.41l2.974.753a12.198 12.198 0 013-2.815l-.563-3.016a.734.734 0 01.462-.82l2.805-1.06a.733.733 0 01.888.311l1.573 2.636a12.195 12.195 0 014.112.13l1.734-2.531a.734.734 0 01.907-.253l2.732 1.234a.733.733 0 01.41.848l-.754 2.974a12.197 12.197 0 012.813 3l3.016-.563a.734.734 0 01.82.461l1.06 2.805a.733.733 0 01-.311.889l-2.636 1.572c.19 1.368.146 2.758-.13 4.111l2.53 1.735a.733.733 0 01.255.907l-1.235 2.731a.733.733 0 01-.848.41l-2.974-.754a12.179 12.179 0 01-3 2.816l.563 3.016a.733.733 0 01-.462.82l-2.805 1.06a.726.726 0 01-.257.047zm-1.825-4.53a.734.734 0 01.63.358l1.51 2.535 1.656-.624-.542-2.901a.733.733 0 01.342-.763 10.75 10.75 0 003.288-3.085.734.734 0 01.782-.293l2.86.725.729-1.614-2.434-1.667a.733.733 0 01-.298-.78c.365-1.476.414-3.012.142-4.507a.733.733 0 01.347-.759l2.535-1.511-.625-1.655-2.901.54a.734.734 0 01-.763-.34 10.744 10.744 0 00-3.084-3.288.733.733 0 01-.293-.782l.723-2.86-1.613-.728-1.668 2.433a.733.733 0 01-.78.298 10.755 10.755 0 00-4.506-.146.734.734 0 01-.76-.347l-1.511-2.535-1.656.626.542 2.9a.733.733 0 01-.341.763 10.749 10.749 0 00-3.286 3.088.732.732 0 01-.782.293l-2.86-.724-.728 1.614 2.434 1.668a.733.733 0 01.297.78 10.746 10.746 0 00-.142 4.507.733.733 0 01-.345.76l-2.535 1.51.625 1.656 2.9-.542a.726.726 0 01.762.342 10.756 10.756 0 003.086 3.287.734.734 0 01.294.783l-.724 2.86 1.613.729 1.668-2.434a.733.733 0 01.78-.298c1.476.366 3.011.414 4.506.142a.789.789 0 01.126-.014z"/><path d="M72.225 81.342a8.267 8.267 0 11-.018-16.534 8.267 8.267 0 01.019 16.534zm-.016-15.066a6.8 6.8 0 106.369 4.4 6.765 6.765 0 00-6.369-4.4z"/></g><defs><clipPath id="clip0_988_11780"><path fill="#fff" d="M0 0h110v110H0z"/></clipPath><filter id="filter0_d_988_11780" x="-.961" y="2.334" width="111.92" height="115.324" filterUnits="userSpaceOnUse" color-interpolation-filters="sRGB"><feFlood flood-opacity="0" result="BackgroundImageFix"/><feColorMatrix in="SourceAlpha" values="0 0 0 0 0 0 0 0 0 0 0 0 0 0 0 0 0 0 127 0" result="hardAlpha"/><feOffset dy="5"/><feGaussianBlur stdDeviation="5"/><feComposite in2="hardAlpha" operator="out"/><feColorMatrix values="0 0 0 0 0.478006 0 0 0 0 0.142153 0 0 0 0 0.741667 0 0 0 1 0"/><feBlend in2="BackgroundImageFix" result="effect1_dropShadow_988_11780"/><feBlend in="SourceGraphic" in2="effect1_dropShadow_988_11780" result="shape"/></filter></defs></svg>