<svg width="100" height="105" fill="none" xmlns="http://www.w3.org/2000/svg"><g filter="url(#filter0_d_988_11800)" fill="#fff" clip-path="url(#clip0_988_11800)"><path d="M20.688 39.148a.782.782 0 00-.68-.43h-.063a.781.781 0 00-.562.22l-4.54 4.515a.781.781 0 000 1.078.78.78 0 001.102 0l3.235-3.234-.047 8.844a.782.782 0 001.562 0l.078-8.735 3.125 3.125A.781.781 0 1025 43.422l-4.313-4.273zM42.5 76.484a2.71 2.71 0 102.71 2.711 2.718 2.718 0 00-2.71-2.71zm0 3.86a1.148 1.148 0 110-2.297 1.148 1.148 0 010 2.297zm7.5-3.86a2.71 2.71 0 102.71 2.711 2.718 2.718 0 00-2.71-2.71zm0 3.86a1.148 1.148 0 110-2.297 1.148 1.148 0 010 2.297zm7.5-3.86a2.71 2.71 0 102.71 2.711 2.718 2.718 0 00-2.71-2.71zm0 3.86a1.148 1.148 0 110-2.297 1.148 1.148 0 010 2.297zm8.305-11.594h-6.25a.781.781 0 100 1.563h6.25a.781.781 0 100-1.563zm-13.836 1.563h3.5a.781.781 0 000-1.563h-3.5a.781.781 0 100 1.563z"/><path d="M65.945 58.594h-19.71a6.664 6.664 0 00-6.133-4.063h-7.813a4.11 4.11 0 00-4.094 4.063v26.43a5.86 5.86 0 005.86 5.859h31.89a5.86 5.86 0 005.86-5.86V64.445a5.867 5.867 0 00-5.86-5.851zm4.297 26.469a4.305 4.305 0 01-4.297 4.296h-31.89a4.305 4.305 0 01-4.297-4.296V69.438a4.305 4.305 0 014.297-4.297h31.89a4.305 4.305 0 014.297 4.297v15.625zm0-19.57a5.82 5.82 0 00-4.297-1.891h-31.89a5.82 5.82 0 00-4.297 1.89v-6.898a2.539 2.539 0 012.539-2.54h7.812a5.125 5.125 0 014.875 3.524c.024.05.053.097.086.14a.587.587 0 00.07.118l.118.094c.04.029.081.055.125.078a.375.375 0 00.133 0 .61.61 0 00.164 0h20.265a4.305 4.305 0 014.297 4.297v1.187zm11.563-35.61c-.47 0-.938 0-1.399.055a32.515 32.515 0 00-10.672-14.203.782.782 0 00-.945 1.242 31.008 31.008 0 0110.36 14.062.781.781 0 00.828.508 16.242 16.242 0 111.828 32.383.782.782 0 00-.305.062 1.417 1.417 0 00-.18.117.365.365 0 01-.07.047.832.832 0 00-.102.164.346.346 0 00-.062.086 1.02 1.02 0 000 .149 1.13 1.13 0 000 .156l-.125 23.273-3.125-3.124a.781.781 0 10-1.102 1.109l4.305 4.305a.78.78 0 00.688.43h.07a.781.781 0 00.547-.227l4.453-4.54a.784.784 0 00-1.11-1.109l-3.234 3.235.125-22.657a17.805 17.805 0 00-.781-35.586l.008.063zm-22.43-17.805a.781.781 0 10.469-1.484 32.617 32.617 0 00-40.25 19.344c-.461 0-.93-.055-1.399-.055A17.82 17.82 0 00.391 47.656c0 10.157 8.375 17.805 19.476 17.805a.78.78 0 00.305-.063.88.88 0 00.14-.093.524.524 0 00.11-.07.886.886 0 00.094-.141.374.374 0 00.07-.11.41.41 0 000-.14.553.553 0 000-.156l.047-8.977a.781.781 0 10-1.563 0v8.18c-9.804-.32-17.117-7.18-17.117-16.235a16.266 16.266 0 0118.07-16.109.782.782 0 00.829-.508 31.078 31.078 0 0138.523-18.96z"/><path d="M18.977 36.297a.78.78 0 00-.782-.781 12.188 12.188 0 00-12.172 12.14.781.781 0 101.563 0 10.617 10.617 0 0110.61-10.578.781.781 0 00.78-.781zm47.851-14.68a.782.782 0 00-.133-1.094 26.906 26.906 0 00-33.437.04.78.78 0 00.492 1.398.781.781 0 00.484-.172 25.336 25.336 0 0131.493-.039.781.781 0 001.101-.133zM89.305 56.29a.781.781 0 001.101 0 12.148 12.148 0 001-16.118.781.781 0 10-1.226.96 10.61 10.61 0 01-.844 14.063.781.781 0 00-.031 1.094zM33.813 34.477a3.906 3.906 0 107.812 0 3.906 3.906 0 00-7.813 0zm6.304 0a2.344 2.344 0 11-4.688 0 2.344 2.344 0 014.688 0zm5.977 0a3.906 3.906 0 107.811 0 3.906 3.906 0 00-7.811 0zm6.297 0a2.343 2.343 0 11-2.344-2.344 2.344 2.344 0 012.297 2.344h.047zm9.859-3.93a3.906 3.906 0 100 7.813 3.906 3.906 0 000-7.813zm0 6.305a2.344 2.344 0 110-4.688 2.344 2.344 0 010 4.688z"/></g><defs><clipPath id="clip0_988_11800"><path fill="#fff" d="M0 0h100v105H0z"/></clipPath><filter id="filter0_d_988_11800" x="-9.609" y="4.079" width="119.088" height="101.804" filterUnits="userSpaceOnUse" color-interpolation-filters="sRGB"><feFlood flood-opacity="0" result="BackgroundImageFix"/><feColorMatrix in="SourceAlpha" values="0 0 0 0 0 0 0 0 0 0 0 0 0 0 0 0 0 0 127 0" result="hardAlpha"/><feOffset dy="5"/><feGaussianBlur stdDeviation="5"/><feComposite in2="hardAlpha" operator="out"/><feColorMatrix values="0 0 0 0 0.0621875 0 0 0 0 0.464765 0 0 0 0 0.829167 0 0 0 1 0"/><feBlend in2="BackgroundImageFix" result="effect1_dropShadow_988_11800"/><feBlend in="SourceGraphic" in2="effect1_dropShadow_988_11800" result="shape"/></filter></defs></svg>