<svg width="95" height="109" fill="none" xmlns="http://www.w3.org/2000/svg"><g filter="url(#filter0_d_988_11811)" fill="#fff" clip-path="url(#clip0_988_11811)"><path d="M18.087 46.476H8.906a.742.742 0 000 1.484h9.18a3.332 3.332 0 002.502 2.509v3.71a.742.742 0 001.484 0v-3.71a3.355 3.355 0 002.501-2.502h45.853a3.354 3.354 0 002.501 2.502v3.71a.742.742 0 101.484 0v-3.71a3.348 3.348 0 002.501-2.502h9.181a.742.742 0 000-1.484h-9.18a3.325 3.325 0 00-6.487 0H48.242v-4.401a.742.742 0 00-1.485 0v4.394H24.573a3.325 3.325 0 00-6.486 0zm55.582-1.114a1.856 1.856 0 110 3.712 1.856 1.856 0 010-3.712zM23.2 47.218a1.856 1.856 0 01-1.848 1.848 1.856 1.856 0 111.856-1.848H23.2zm41.644-14.703a2.731 2.731 0 002.732-2.731V5.737a2.731 2.731 0 00-2.731-2.724h-34.69a2.731 2.731 0 00-2.695 2.724v24.032a2.731 2.731 0 002.732 2.731H41.74l-.846 3.934h-3.347a.742.742 0 100 1.484h19.905a.742.742 0 100-1.484h-3.347L53.26 32.5l11.585.015zM30.154 4.498h34.69a1.247 1.247 0 011.247 1.239v19.297H28.945V5.737a1.247 1.247 0 011.21-1.24zm-1.21 25.286V26.48h37.184v3.303a1.247 1.247 0 01-1.246 1.247H30.155a1.247 1.247 0 01-1.21-1.247zm23.677 6.68H42.416l.838-3.934h8.49l.877 3.934z"/><path d="M48.027 28.307a.744.744 0 00-.668-.208l-.141.045-.127.066a.475.475 0 00-.11.097.743.743 0 00-.223.527.743.743 0 00.222.52c.137.14.324.22.52.222a.743.743 0 00.527-.223.742.742 0 00.215-.52.741.741 0 00-.052-.289.898.898 0 00-.163-.237zM15.585 86.569l-.838 3.933h-3.37a.742.742 0 100 1.485h19.906a.742.742 0 100-1.485h-3.355l-.838-3.933h11.585a2.724 2.724 0 002.724-2.702V59.798a2.722 2.722 0 00-2.724-2.731H3.978a2.731 2.731 0 00-2.724 2.731v24.07a2.731 2.731 0 002.724 2.73l11.607-.03zm10.851 3.933H16.24l.846-3.933h8.483l.868 3.933zM4 58.588h34.675a1.247 1.247 0 011.24 1.247v19.252H2.737V59.798a1.247 1.247 0 011.24-1.247l.022.037zm-1.262 25.28v-3.304h37.176v3.303a1.247 1.247 0 01-1.239 1.247H3.978a1.247 1.247 0 01-1.24-1.247z"/><path d="M21.33 83.63a.743.743 0 00.527-.223.742.742 0 00.215-.52 1.02 1.02 0 000-.148.8.8 0 00-.111-.267l-.09-.111a.742.742 0 00-.808-.164.741.741 0 00-.371.297.803.803 0 00-.111.267.506.506 0 000 .149c0 .194.078.381.215.52a.741.741 0 00.534.2zm72.415-23.832a2.731 2.731 0 00-2.724-2.731H56.325a2.723 2.723 0 00-2.724 2.731v24.07a2.724 2.724 0 002.724 2.73H67.91l-.839 3.934h-3.355a.742.742 0 000 1.484h19.906a.742.742 0 000-1.484h-3.347l-.847-3.934h11.594a2.73 2.73 0 002.723-2.73v-24.07zm-37.42-1.247h34.697a1.247 1.247 0 011.239 1.247V79.05H55.085V59.798a1.247 1.247 0 011.24-1.247zM78.76 90.502H68.585l.846-3.933h8.498l.832 3.933zm12.26-5.418H56.325a1.248 1.248 0 01-1.24-1.217v-3.303h37.177v3.303a1.247 1.247 0 01-1.24 1.217z"/><path d="M74.36 82.598l-.067-.126-.075-.09a.742.742 0 00-1.046 0l-.097.112-.066.126a.976.976 0 000 .141.506.506 0 000 .149.742.742 0 001.484 0 .927.927 0 000-.149l-.134-.163z"/></g><defs><clipPath id="clip0_988_11811"><path fill="#fff" d="M0 0h95v109H0z"/></clipPath><filter id="filter0_d_988_11811" x="-8.746" y="-1.987" width="112.492" height="109.003" filterUnits="userSpaceOnUse" color-interpolation-filters="sRGB"><feFlood flood-opacity="0" result="BackgroundImageFix"/><feColorMatrix in="SourceAlpha" values="0 0 0 0 0 0 0 0 0 0 0 0 0 0 0 0 0 0 127 0" result="hardAlpha"/><feOffset dy="5"/><feGaussianBlur stdDeviation="5"/><feComposite in2="hardAlpha" operator="out"/><feColorMatrix values="0 0 0 0 0.216554 0 0 0 0 0.137083 0 0 0 0 0.7 0 0 0 1 0"/><feBlend in2="BackgroundImageFix" result="effect1_dropShadow_988_11811"/><feBlend in="SourceGraphic" in2="effect1_dropShadow_988_11811" result="shape"/></filter></defs></svg>