<svg width="110" height="110" fill="none" xmlns="http://www.w3.org/2000/svg"><g filter="url(#filter0_d_988_11790)" fill="#fff" clip-path="url(#clip0_988_11790)"><path d="M97.992 81.886H12.01a4.68 4.68 0 01-4.675-4.676v-59.8a4.681 4.681 0 014.675-4.677h85.983a4.683 4.683 0 014.675 4.676V77.21a4.68 4.68 0 01-4.675 4.676zM12.01 14.199a3.213 3.213 0 00-3.208 3.21V77.21a3.213 3.213 0 003.208 3.21h85.983a3.213 3.213 0 003.209-3.21v-59.8a3.215 3.215 0 00-3.209-3.21H12.01z"/><path d="M97.992 81.886H12.01a4.68 4.68 0 01-4.675-4.676v-8.703a.733.733 0 01.733-.733h93.867a.736.736 0 01.733.733v8.703a4.68 4.68 0 01-4.675 4.676zM8.801 69.24v7.97a3.213 3.213 0 003.208 3.21h85.983a3.213 3.213 0 003.209-3.21v-7.97h-92.4z"/><path d="M41.059 92.147a.734.734 0 01-.72-.88l2.089-10.26a.733.733 0 111.437.294l-1.907 9.381H68.04l-1.906-9.381a.733.733 0 111.437-.294l2.088 10.26a.735.735 0 01-.719.88H41.06z"/><path d="M75.98 97.266H34.021a.734.734 0 01-.733-.733v-.996c0-2.678 2.396-4.858 5.342-4.858h32.74c2.945 0 5.341 2.18 5.341 4.858v.996a.733.733 0 01-.733.733zM34.754 95.8h40.49v-.262c0-1.87-1.738-3.39-3.875-3.39H38.631c-2.137 0-3.876 1.52-3.876 3.39v.262zm1.129-31.693h-4.43a.733.733 0 01-.733-.733V43.959a.733.733 0 01.733-.733h4.43a.733.733 0 01.733.733v19.415a.734.734 0 01-.733.733zm-3.696-1.467h2.962V44.693h-2.962V62.64zm16.91 1.467h-4.43a.733.733 0 01-.733-.733V37.37a.733.733 0 01.733-.733h4.43a.733.733 0 01.733.733v26.003a.734.734 0 01-.733.733zM45.4 62.64h2.962V38.105H45.4V62.64zm16.91 1.467h-4.429a.734.734 0 01-.733-.733V41.257a.733.733 0 01.733-.733h4.43a.734.734 0 01.733.733v22.117a.734.734 0 01-.733.733zm-3.696-1.467h2.963V41.99h-2.962v20.65zm16.91 1.467h-4.429a.733.733 0 01-.733-.733v-28.33a.733.733 0 01.733-.734h4.43a.733.733 0 01.733.734v28.33a.734.734 0 01-.734.733zm-3.696-1.467h2.963V35.777h-2.963V62.64zM57.787 33.65a.732.732 0 01-.337-.083l-8.992-4.679a.733.733 0 01.676-1.3l8.993 4.678a.733.733 0 01-.34 1.384zm-22.311 3.278a.735.735 0 01-.462-1.303l9.46-7.663a.733.733 0 01.92 1.139l-9.46 7.664a.733.733 0 01-.458.163zm26.428-3.818a.733.733 0 01-.459-1.305l12.65-10.137a.734.734 0 11.918 1.144l-12.65 10.137a.733.733 0 01-.459.162z"/><path d="M33.668 40.725a3.062 3.062 0 110-6.125 3.062 3.062 0 010 6.125zm0-4.658a1.596 1.596 0 100 3.192 1.596 1.596 0 000-3.192zm13.099-5.912a3.063 3.063 0 110-6.125 3.063 3.063 0 010 6.125zm0-4.658a1.596 1.596 0 100 3.192 1.596 1.596 0 000-3.192zm13.214 11.256a3.062 3.062 0 110-6.125 3.062 3.062 0 010 6.125zm0-4.658a1.596 1.596 0 100 3.192 1.596 1.596 0 000-3.192zM76.482 24a3.062 3.062 0 11.001-6.123 3.062 3.062 0 010 6.123zm0-4.658a1.595 1.595 0 10.002 3.191 1.595 1.595 0 00-.002-3.19zm3.016 44.765H27.48a.734.734 0 010-1.467H79.5a.733.733 0 010 1.467zM11.734 48.783a.734.734 0 01-.733-.733V19.862a.733.733 0 111.466 0V48.05a.733.733 0 01-.733.733zM55 77.761a2.933 2.933 0 110-5.866 2.933 2.933 0 010 5.866zm0-4.396a1.467 1.467 0 100 2.933 1.467 1.467 0 000-2.933z"/></g><defs><clipPath id="clip0_988_11790"><path fill="#fff" d="M0 0h110v110H0z"/></clipPath><filter id="filter0_d_988_11790" x="-2.666" y="7.733" width="115.334" height="104.533" filterUnits="userSpaceOnUse" color-interpolation-filters="sRGB"><feFlood flood-opacity="0" result="BackgroundImageFix"/><feColorMatrix in="SourceAlpha" values="0 0 0 0 0 0 0 0 0 0 0 0 0 0 0 0 0 0 127 0" result="hardAlpha"/><feOffset dy="5"/><feGaussianBlur stdDeviation="5"/><feComposite in2="hardAlpha" operator="out"/><feColorMatrix values="0 0 0 0 0 0 0 0 0 0.537598 0 0 0 0 0.758333 0 0 0 1 0"/><feBlend in2="BackgroundImageFix" result="effect1_dropShadow_988_11790"/><feBlend in="SourceGraphic" in2="effect1_dropShadow_988_11790" result="shape"/></filter></defs></svg>