<svg viewBox="0 0 40 40" xmlns="http://www.w3.org/2000/svg" xmlns:xlink="http://www.w3.org/1999/xlink"><style>:root&gt;svg{display:none}:root&gt;svg:target{display:block}</style>
    <symbol id="call-icon" viewBox="0 0 16 16">
        <path d="M14.583 11.645C14.5711 11.5396 14.5353 11.4383 14.4784 11.3487C14.4215 11.2592 14.345 11.1838 14.2546 11.1282L11.909 9.67581C11.6846 9.53609 11.4194 9.47662 11.1568 9.50714C10.8942 9.53765 10.6498 9.65635 10.4634 9.84381L9.68473 10.6227C9.65583 10.6521 9.61932 10.673 9.57928 10.6829C9.53923 10.6928 9.49722 10.6915 9.45791 10.6789C9.03198 10.5352 8.14775 10.1241 7.01103 8.9875C5.87432 7.85087 5.46334 6.96625 5.31948 6.5403C5.30702 6.50102 5.30567 6.45905 5.3156 6.41905C5.32553 6.37906 5.34634 6.34259 5.37573 6.3137L6.15439 5.53504C6.34195 5.3487 6.46068 5.10421 6.49116 4.84158C6.52164 4.57896 6.46205 4.31378 6.32216 4.08944L4.87009 1.74376C4.81431 1.65358 4.73885 1.5772 4.64936 1.52032C4.55987 1.46344 4.45868 1.42755 4.35335 1.41533C4.24802 1.40311 4.14129 1.41488 4.04116 1.44976C3.94102 1.48464 3.85008 1.54172 3.77514 1.61673L2.30204 3.08987C1.82795 3.56445 1.52361 4.18213 1.43617 4.84722C1.34873 5.5123 1.48309 6.18766 1.81841 6.76865C2.68873 8.31115 3.76677 9.72682 5.02232 10.976C6.27148 12.2315 7.68719 13.3096 9.22974 14.1799C9.81067 14.5154 10.4861 14.6498 11.1512 14.5624C11.8163 14.4749 12.434 14.1705 12.9085 13.6962L14.3816 12.2231C14.4568 12.1483 14.514 12.0574 14.5489 11.9573C14.5838 11.8571 14.5954 11.7503 14.583 11.645Z"/>
    </symbol>

    <symbol id="whatsapp" viewBox="0 0 28 28">
        <g clip-path="url(#clip0_1_9573)">
            <path d="M14 27.5C21.4558 27.5 27.5 21.4558 27.5 14C27.5 6.54416 21.4558 0.5 14 0.5C6.54416 0.5 0.5 6.54416 0.5 14C0.5 21.4558 6.54416 27.5 14 27.5Z" fill="#4CAF50"/>
            <path d="M14.001 6.89478C12.692 6.89527 11.4086 7.25737 10.2924 7.94111C9.17613 8.62484 8.27047 9.60365 7.67531 10.7695C7.08016 11.9354 6.81864 13.243 6.91961 14.5481C7.02058 15.8532 7.48012 17.105 8.24752 18.1655L7.35936 20.8051L10.0931 19.9312C11.0179 20.5412 12.0726 20.9265 13.1729 21.0564C14.2731 21.1862 15.3885 21.0569 16.4299 20.6789C17.4714 20.3008 18.4099 19.6845 19.1707 18.8791C19.9315 18.0737 20.4934 17.1015 20.8115 16.0403C21.1296 14.979 21.1952 13.8581 21.0029 12.767C20.8107 11.6759 20.3659 10.6449 19.7042 9.75629C19.0425 8.86771 18.1821 8.14617 17.1919 7.64932C16.2016 7.15248 15.1089 6.89408 14.001 6.89478ZM17.7775 16.9434L17.0207 17.7001C16.2249 18.4959 14.1147 17.6202 12.2442 15.7462C10.3738 13.8721 9.53534 11.7672 10.2921 10.9803L11.0488 10.2236C11.1953 10.0889 11.3871 10.0142 11.5861 10.0142C11.7851 10.0142 11.9769 10.0889 12.1234 10.2236L13.239 11.3356C13.3299 11.424 13.3967 11.5343 13.4328 11.6559C13.4689 11.7775 13.4731 11.9064 13.4451 12.0301C13.4171 12.1539 13.3578 12.2683 13.2729 12.3626C13.188 12.4568 13.0803 12.5277 12.9601 12.5683C12.7828 12.625 12.6342 12.7478 12.5452 12.9113C12.4562 13.0747 12.4336 13.2662 12.4823 13.4458C12.6812 14.2807 13.7559 15.3163 14.5534 15.5152C14.7321 15.5527 14.9184 15.5245 15.0779 15.4358C15.2375 15.347 15.3597 15.2037 15.4221 15.0321C15.4623 14.9102 15.5334 14.8008 15.6285 14.7145C15.7236 14.6283 15.8394 14.5682 15.9647 14.5401C16.09 14.512 16.2204 14.5169 16.3432 14.5542C16.466 14.5916 16.5771 14.6601 16.6655 14.7532L17.7792 15.8687C17.9137 16.0155 17.9881 16.2074 17.9878 16.4064C17.9874 16.6054 17.9124 16.7971 17.7775 16.9434Z" fill="white"/>
        </g>
        <defs>
            <clipPath id="clip0_1_9573">
                <rect width="27" height="27" fill="white" transform="translate(0.5 0.5)"/>
            </clipPath>
        </defs>
    </symbol>

    <symbol id="telegram" viewBox="0 0 28 28">
        <g clip-path="url(#clip0_1_9579)">
            <path fill-rule="evenodd" clip-rule="evenodd" d="M14 0.5C21.4561 0.5 27.5 6.54389 27.5 14C27.5 21.4561 21.4561 27.5 14 27.5C6.54389 27.5 0.5 21.4561 0.5 14C0.5 6.54389 6.54389 0.5 14 0.5Z" fill="#27AFE4"/>
            <path d="M20.0736 9.12266L18.1515 18.8126C18.1515 18.8126 17.8825 19.4844 17.1437 19.1622L12.7088 15.7619L11.0956 14.9825L8.38085 14.0686C8.38085 14.0686 7.96425 13.9204 7.92417 13.5982C7.88357 13.2755 8.39456 13.1009 8.39456 13.1009L19.1867 8.86742C19.1867 8.86742 20.0736 8.47772 20.0736 9.12266Z" fill="#FEFEFE"/>
            <path d="M14.4409 17.2991L12.5525 19.0209C12.5525 19.0209 12.4054 19.1327 12.2435 19.0625C12.0056 19.0283 11.3079 16.5413 10.875 15.0574L11.2373 14.8269L14.4409 17.2991Z" fill="#B5D2E5"/>
            <path d="M12.2435 19.0626C11.9861 19.0384 11.0074 15.4909 10.875 15.0574L17.8903 10.6019C18.2552 10.3804 18.4503 10.555 18.136 10.8482C17.9193 11.0507 12.6253 15.8094 12.6253 15.8094L12.2435 19.0626Z" fill="#D3E7F2"/>
        </g>
        <defs>
            <clipPath id="clip0_1_9579">
                <rect width="27" height="27" fill="white" transform="translate(0.5 0.5)"/>
            </clipPath>
        </defs>
    </symbol>

    <symbol id="chevron-right" viewBox="0 0 24 24">
        <path d="M9 18L15 12L9 6" fill="none" stroke-width="2" stroke-linecap="round" stroke-linejoin="round"/>
    </symbol>

    <symbol id="vk" viewBox="0 0 25 25">
        <path fill-rule="evenodd" clip-rule="evenodd" d="M12.276 18.1498H13.476C13.476 18.1498 13.826 18.0998 14.026 17.8998C14.201 17.7248 14.201 17.3748 14.201 17.3748C14.201 17.3748 14.176 15.7748 14.926 15.5248C15.651 15.2998 16.601 17.0748 17.601 17.7498C18.351 18.2748 18.926 18.1498 18.926 18.1498L21.601 18.1248C21.601 18.1248 23.001 18.0498 22.326 16.9498C22.276 16.8498 21.951 16.1248 20.351 14.6498C18.676 13.0998 18.901 13.3498 20.926 10.6498C22.151 9.0248 22.651 8.0248 22.501 7.5748C22.351 7.1748 21.451 7.2748 21.451 7.2748L18.451 7.2998C18.451 7.2998 18.226 7.2748 18.051 7.3748C17.851 7.4998 17.751 7.7248 17.751 7.7248C17.751 7.7248 17.276 8.9998 16.651 10.0748C15.301 12.3498 14.776 12.4748 14.551 12.3248C14.051 11.9998 14.176 10.9998 14.176 10.2998C14.176 8.0998 14.501 7.1748 13.526 6.9498C13.201 6.8748 12.951 6.8248 12.126 6.7998C11.051 6.7998 10.151 6.7998 9.62604 7.0498C9.27604 7.2248 9.02604 7.5998 9.17604 7.5998C9.37604 7.6248 9.82604 7.7248 10.051 8.0498C10.351 8.4748 10.351 9.3998 10.351 9.3998C10.351 9.3998 10.526 11.9998 9.92604 12.3248C9.52604 12.5498 8.97604 12.0998 7.77604 10.0248C7.17604 8.9748 6.70104 7.7998 6.70104 7.7998C6.70104 7.7998 6.60104 7.5748 6.45104 7.4748C6.32604 7.3748 6.07604 7.2998 5.80104 7.2998L3.12604 7.3248C3.12604 7.3248 2.70104 7.3248 2.55104 7.5248C2.40104 7.6998 2.55104 8.0248 2.55104 8.0248C2.55104 8.0248 4.80104 13.2498 7.32604 15.8748C9.65104 18.3248 12.276 18.1498 12.276 18.1498Z"/>
    </symbol>

    <symbol id="ok" viewBox="0 0 22 23">
        <path d="M10.9987 2.69995C8.55669 2.69995 6.55469 4.67995 6.55469 7.14395C6.55469 9.58596 8.53469 11.588 10.9987 11.588C13.4407 11.588 15.4427 9.60796 15.4427 7.14395C15.4427 4.67995 13.4407 2.69995 10.9987 2.69995ZM10.9987 9.34396C9.76669 9.34396 8.77669 8.35396 8.77669 7.12195C8.77669 5.88995 9.76669 4.89995 10.9987 4.89995C12.2307 4.89995 13.2207 5.88995 13.2207 7.12195C13.2207 8.35396 12.2307 9.34396 10.9987 9.34396Z"/>
        <path d="M17.5326 12.2699C17.1366 11.5439 16.2126 11.2799 15.4866 11.6979C12.4726 13.3919 9.52463 13.3919 6.51063 11.6979C5.78462 11.2799 4.86062 11.5439 4.46462 12.2699C4.04662 12.9959 4.31062 13.9199 5.03662 14.3159C6.07063 14.9099 7.12663 15.3279 8.18263 15.6139L6.04863 17.7479C5.45462 18.3419 5.45462 19.2879 6.04863 19.8599C6.64263 20.4539 7.58863 20.4539 8.16063 19.8599L10.9986 17.0219L13.8366 19.8599C14.4306 20.4539 15.3766 20.4539 15.9486 19.8599C16.5426 19.2659 16.5426 18.3199 15.9486 17.7479L13.8146 15.6139C14.8706 15.3279 15.9266 14.9099 16.9606 14.3159C17.6866 13.8979 17.9506 12.9959 17.5326 12.2699Z"/>
    </symbol>

    <symbol id="twitter" viewBox="0 0 18 15">
        <path fill-rule="evenodd" clip-rule="evenodd" d="M17.792 1.99105C17.092 2.29211 16.3919 2.48013 15.6922 2.55566C16.4825 2.08152 17.017 1.41168 17.2955 0.5462C16.5726 0.975106 15.8013 1.26854 14.981 1.42667C14.2585 0.659012 13.3705 0.275024 12.3166 0.275024C11.3082 0.275024 10.4484 0.630581 9.73693 1.34185C9.02582 2.05309 8.67022 2.91288 8.67022 3.92134C8.67022 4.19224 8.70027 4.47081 8.76053 4.75677C7.27029 4.68153 5.87235 4.30711 4.56645 3.63352C3.26063 2.95985 2.1524 2.06234 1.24176 0.940982C0.910601 1.50532 0.744962 2.1188 0.744962 2.78108C0.744962 3.40576 0.8917 3.98536 1.18537 4.51972C1.47885 5.05401 1.87407 5.48671 2.37083 5.81791C1.78368 5.79529 1.23429 5.64096 0.722581 5.35496V5.40011C0.722581 6.28074 0.999174 7.0539 1.55228 7.72017C2.10547 8.38637 2.80357 8.8057 3.64644 8.9789C3.3303 9.06158 3.01037 9.10298 2.6868 9.10298C2.47605 9.10298 2.24647 9.08419 1.99815 9.04683C2.23144 9.77672 2.66047 10.3767 3.28507 10.8473C3.90978 11.3177 4.61726 11.5602 5.40754 11.5756C4.08297 12.6141 2.57399 13.1333 0.880589 13.1333C0.556902 13.1333 0.263465 13.1185 0 13.0882C1.69344 14.1794 3.55992 14.725 5.59955 14.725C6.89406 14.725 8.10956 14.5202 9.24567 14.1099C10.3823 13.6999 11.3531 13.1503 12.1585 12.4616C12.9636 11.7729 13.6581 10.9808 14.2413 10.0852C14.8245 9.18957 15.259 8.25454 15.5453 7.27992C15.8311 6.3051 15.9742 5.32878 15.9742 4.35021C15.9742 4.13945 15.9704 3.98148 15.9629 3.87607C16.678 3.35701 17.2877 2.72845 17.792 1.99105Z"/>
    </symbol>

    <symbol id="fb" viewBox="0 0 9 17">
        <path fill-rule="evenodd" clip-rule="evenodd" d="M5.72903 16.4299H2.76823V8.50015H0.792969V5.7671L2.76823 5.76626L2.76531 4.15588C2.76531 1.92643 3.36747 0.569946 5.98407 0.569946H8.16227V3.30342H6.80084C5.78196 3.30342 5.7332 3.68531 5.7332 4.39806L5.72903 5.76626H8.17769L7.8889 8.4989L5.73112 8.50015L5.72903 16.4299Z" stroke-width="0.5"/>
    </symbol>





</svg>
