<svg viewBox="0 0 40 40" xmlns="http://www.w3.org/2000/svg" xmlns:xlink="http://www.w3.org/1999/xlink"><style>:root&gt;svg{display:none}:root&gt;svg:target{display:block}</style>
    <symbol id="call-icon" viewBox="0 0 16 16">
        <path d="M14.583 11.645C14.5711 11.5396 14.5353 11.4383 14.4784 11.3487C14.4215 11.2592 14.345 11.1838 14.2546 11.1282L11.909 9.67581C11.6846 9.53609 11.4194 9.47662 11.1568 9.50714C10.8942 9.53765 10.6498 9.65635 10.4634 9.84381L9.68473 10.6227C9.65583 10.6521 9.61932 10.673 9.57928 10.6829C9.53923 10.6928 9.49722 10.6915 9.45791 10.6789C9.03198 10.5352 8.14775 10.1241 7.01103 8.9875C5.87432 7.85087 5.46334 6.96625 5.31948 6.5403C5.30702 6.50102 5.30567 6.45905 5.3156 6.41905C5.32553 6.37906 5.34634 6.34259 5.37573 6.3137L6.15439 5.53504C6.34195 5.3487 6.46068 5.10421 6.49116 4.84158C6.52164 4.57896 6.46205 4.31378 6.32216 4.08944L4.87009 1.74376C4.81431 1.65358 4.73885 1.5772 4.64936 1.52032C4.55987 1.46344 4.45868 1.42755 4.35335 1.41533C4.24802 1.40311 4.14129 1.41488 4.04116 1.44976C3.94102 1.48464 3.85008 1.54172 3.77514 1.61673L2.30204 3.08987C1.82795 3.56445 1.52361 4.18213 1.43617 4.84722C1.34873 5.5123 1.48309 6.18766 1.81841 6.76865C2.68873 8.31115 3.76677 9.72682 5.02232 10.976C6.27148 12.2315 7.68719 13.3096 9.22974 14.1799C9.81067 14.5154 10.4861 14.6498 11.1512 14.5624C11.8163 14.4749 12.434 14.1705 12.9085 13.6962L14.3816 12.2231C14.4568 12.1483 14.514 12.0574 14.5489 11.9573C14.5838 11.8571 14.5954 11.7503 14.583 11.645Z"/>
    </symbol>

    <symbol id="whatsapp" viewBox="0 0 28 28">
        <g clip-path="url(#clip0_1_9573)">
            <path d="M14 27.5C21.4558 27.5 27.5 21.4558 27.5 14C27.5 6.54416 21.4558 0.5 14 0.5C6.54416 0.5 0.5 6.54416 0.5 14C0.5 21.4558 6.54416 27.5 14 27.5Z" fill="#4CAF50"/>
            <path d="M14.001 6.89478C12.692 6.89527 11.4086 7.25737 10.2924 7.94111C9.17613 8.62484 8.27047 9.60365 7.67531 10.7695C7.08016 11.9354 6.81864 13.243 6.91961 14.5481C7.02058 15.8532 7.48012 17.105 8.24752 18.1655L7.35936 20.8051L10.0931 19.9312C11.0179 20.5412 12.0726 20.9265 13.1729 21.0564C14.2731 21.1862 15.3885 21.0569 16.4299 20.6789C17.4714 20.3008 18.4099 19.6845 19.1707 18.8791C19.9315 18.0737 20.4934 17.1015 20.8115 16.0403C21.1296 14.979 21.1952 13.8581 21.0029 12.767C20.8107 11.6759 20.3659 10.6449 19.7042 9.75629C19.0425 8.86771 18.1821 8.14617 17.1919 7.64932C16.2016 7.15248 15.1089 6.89408 14.001 6.89478ZM17.7775 16.9434L17.0207 17.7001C16.2249 18.4959 14.1147 17.6202 12.2442 15.7462C10.3738 13.8721 9.53534 11.7672 10.2921 10.9803L11.0488 10.2236C11.1953 10.0889 11.3871 10.0142 11.5861 10.0142C11.7851 10.0142 11.9769 10.0889 12.1234 10.2236L13.239 11.3356C13.3299 11.424 13.3967 11.5343 13.4328 11.6559C13.4689 11.7775 13.4731 11.9064 13.4451 12.0301C13.4171 12.1539 13.3578 12.2683 13.2729 12.3626C13.188 12.4568 13.0803 12.5277 12.9601 12.5683C12.7828 12.625 12.6342 12.7478 12.5452 12.9113C12.4562 13.0747 12.4336 13.2662 12.4823 13.4458C12.6812 14.2807 13.7559 15.3163 14.5534 15.5152C14.7321 15.5527 14.9184 15.5245 15.0779 15.4358C15.2375 15.347 15.3597 15.2037 15.4221 15.0321C15.4623 14.9102 15.5334 14.8008 15.6285 14.7145C15.7236 14.6283 15.8394 14.5682 15.9647 14.5401C16.09 14.512 16.2204 14.5169 16.3432 14.5542C16.466 14.5916 16.5771 14.6601 16.6655 14.7532L17.7792 15.8687C17.9137 16.0155 17.9881 16.2074 17.9878 16.4064C17.9874 16.6054 17.9124 16.7971 17.7775 16.9434Z" fill="white"/>
        </g>
        <defs>
            <clipPath id="clip0_1_9573">
                <rect width="27" height="27" fill="white" transform="translate(0.5 0.5)"/>
            </clipPath>
        </defs>
    </symbol>

    <symbol id="telegram" viewBox="0 0 28 28">
        <g clip-path="url(#clip0_1_9579)">
            <path fill-rule="evenodd" clip-rule="evenodd" d="M14 0.5C21.4561 0.5 27.5 6.54389 27.5 14C27.5 21.4561 21.4561 27.5 14 27.5C6.54389 27.5 0.5 21.4561 0.5 14C0.5 6.54389 6.54389 0.5 14 0.5Z" fill="#27AFE4"/>
            <path d="M20.0736 9.12266L18.1515 18.8126C18.1515 18.8126 17.8825 19.4844 17.1437 19.1622L12.7088 15.7619L11.0956 14.9825L8.38085 14.0686C8.38085 14.0686 7.96425 13.9204 7.92417 13.5982C7.88357 13.2755 8.39456 13.1009 8.39456 13.1009L19.1867 8.86742C19.1867 8.86742 20.0736 8.47772 20.0736 9.12266Z" fill="#FEFEFE"/>
            <path d="M14.4409 17.2991L12.5525 19.0209C12.5525 19.0209 12.4054 19.1327 12.2435 19.0625C12.0056 19.0283 11.3079 16.5413 10.875 15.0574L11.2373 14.8269L14.4409 17.2991Z" fill="#B5D2E5"/>
            <path d="M12.2435 19.0626C11.9861 19.0384 11.0074 15.4909 10.875 15.0574L17.8903 10.6019C18.2552 10.3804 18.4503 10.555 18.136 10.8482C17.9193 11.0507 12.6253 15.8094 12.6253 15.8094L12.2435 19.0626Z" fill="#D3E7F2"/>
        </g>
        <defs>
            <clipPath id="clip0_1_9579">
                <rect width="27" height="27" fill="white" transform="translate(0.5 0.5)"/>
            </clipPath>
        </defs>
    </symbol>

    <symbol id="chevron-right" viewBox="0 0 24 24">
        <path d="M9 18L15 12L9 6" fill="none" stroke-width="2" stroke-linecap="round" stroke-linejoin="round"/>
    </symbol>

</svg>
