<svg width="279" height="279" fill="none" xmlns="http://www.w3.org/2000/svg"><path d="M266.967 189.676c5.717-7.293 8.46-15.111 8.109-23.163-.35-8.868-4.317-15.811-7.584-20.07 3.792-9.452 5.251-24.329-7.41-35.882-9.277-8.459-25.029-12.252-46.85-11.202-15.344.701-28.18 3.559-28.705 3.676h-.058c-2.918.525-6.01 1.167-9.16 1.867-.234-3.734.408-13.01 7.293-33.898 8.168-24.854 7.701-43.874-1.517-56.593C171.4 1.05 155.938 0 151.388 0c-4.376 0-8.402 1.809-11.261 5.134-6.476 7.527-5.717 21.412-4.901 27.83-7.701 20.654-29.288 71.296-47.55 85.357-.35.234-.642.525-.933.817-5.368 5.659-8.985 11.785-11.436 17.153a24.076 24.076 0 00-11.552-2.917h-35.59c-13.418 0-24.27 10.91-24.27 24.271v94.809c0 13.419 10.91 24.271 24.27 24.271h35.59a24.218 24.218 0 0014.003-4.435l13.71 1.634c2.1.292 39.441 5.018 77.773 4.259 6.943.525 13.477.817 19.545.817 10.444 0 19.545-.817 27.13-2.45 17.853-3.793 30.047-11.377 36.231-22.521 4.726-8.518 4.726-16.978 3.968-22.346 11.61-10.502 13.652-22.112 13.244-30.28a39.443 39.443 0 00-2.392-11.727zM28.166 260.972c-4.726 0-8.519-3.851-8.519-8.518v-94.867c0-4.726 3.851-8.519 8.519-8.519h35.59c4.725 0 8.517 3.851 8.517 8.519v94.808c0 4.726-3.85 8.518-8.518 8.518h-35.59v.059zm223.865-78.123c-2.451 2.568-2.918 6.477-1.051 9.51 0 .059 2.393 4.143 2.684 9.744.409 7.643-3.267 14.411-10.968 20.187-2.742 2.1-3.851 5.718-2.684 8.985 0 .058 2.509 7.76-1.575 15.052-3.909 7.002-12.603 12.019-25.788 14.82-10.561 2.275-24.913 2.684-42.533 1.283h-.817c-37.515.817-75.438-4.084-75.847-4.142h-.058l-5.893-.7c.35-1.634.525-3.384.525-5.134v-94.867c0-2.509-.408-4.96-1.108-7.235 1.05-3.909 3.967-12.602 10.852-20.012 26.196-20.77 51.809-90.841 52.917-93.875.467-1.225.584-2.567.351-3.91-.992-6.534-.642-14.527.758-16.919 3.092.059 11.435.934 16.453 7.877 5.951 8.226 5.718 22.929-.7 42.415-9.802 29.698-10.619 45.334-2.859 52.218 3.851 3.442 8.985 3.617 12.719 2.276 3.559-.817 6.943-1.517 10.152-2.042.233-.059.525-.117.758-.175 17.912-3.91 50.001-6.302 61.145 3.85 9.451 8.635 2.742 20.07 1.983 21.296-2.158 3.267-1.517 7.526 1.4 10.152.059.058 6.185 5.834 6.477 13.594.233 5.192-2.217 10.501-7.293 15.752z" fill="#CEDBFE" opacity=".7"/></svg>