<svg width="279" height="279" fill="none" xmlns="http://www.w3.org/2000/svg"><g opacity=".7" fill="#E4E0FF"><path d="M221.202 36.554h-25.241V25.262c0-3.653-3.985-5.313-7.638-5.313h-19.595C164.079 6.664 152.454.022 139.17.022a30.223 30.223 0 00-29.559 19.927H90.348c-3.653 0-7.306 1.66-7.306 5.313v11.292H57.8c-14.957.16-27.195 11.96-27.898 26.901V253.76c0 14.613 13.285 25.24 27.898 25.24h163.402c14.613 0 27.898-10.627 27.898-25.24V63.456c-.703-14.942-12.94-26.742-27.898-26.902zm-124.876-3.32h18.267a7.308 7.308 0 006.31-5.979A19.262 19.262 0 01139.17 12.31a18.93 18.93 0 0117.934 14.945 7.307 7.307 0 006.642 5.978h18.931v26.57H96.326v-26.57zm139.489 220.525c0 7.307-7.306 11.956-14.613 11.956H57.8c-7.306 0-14.613-4.649-14.613-11.956V63.456c.678-7.605 6.979-13.477 14.613-13.616h25.241v16.938a6.975 6.975 0 007.307 6.31h97.974a7.306 7.306 0 007.639-6.31V49.839h25.24c7.635.14 13.936 6.011 14.614 13.617v190.303z"/><path d="M113.927 148.478a6.642 6.642 0 00-9.299-.332l-21.256 20.259-8.967-9.299a6.642 6.642 0 00-9.3-.332 6.974 6.974 0 000 9.631l13.617 13.949a5.975 5.975 0 004.65 1.993 6.64 6.64 0 004.649-1.993l25.905-24.576a6.31 6.31 0 00.001-9.3zm95.321 14.281h-76.387a6.642 6.642 0 000 13.285h76.387a6.643 6.643 0 000-13.285zM113.927 95.34a6.642 6.642 0 00-9.299-.333l-21.256 20.259-8.967-9.299a6.642 6.642 0 00-9.3-.332 6.974 6.974 0 000 9.631l13.617 13.949a5.975 5.975 0 004.65 1.993 6.636 6.636 0 004.649-1.993l25.905-24.576a6.31 6.31 0 00.001-9.3zm95.321 14.28h-76.387a6.643 6.643 0 000 13.285h76.387a6.642 6.642 0 000-13.285zm-95.321 91.996a6.642 6.642 0 00-9.299-.331l-21.256 20.259-8.967-9.3a6.642 6.642 0 00-9.3-.332 6.975 6.975 0 000 9.632l13.617 13.949a5.977 5.977 0 004.65 1.992 6.64 6.64 0 004.649-1.992l25.905-24.577a6.31 6.31 0 00.001-9.3zm95.321 14.282h-76.387a6.642 6.642 0 000 13.285h76.387a6.643 6.643 0 000-13.285z"/></g></svg>