<svg width="45" height="45" fill="none" xmlns="http://www.w3.org/2000/svg"><g clip-path="url(#clip0_957_8503)" fill="#fff"><path d="M18.75 45C8.437 45 0 36.562 0 26.25 0 15.937 8.438 7.5 18.75 7.5c10.313 0 18.75 8.438 18.75 18.75C37.5 36.563 29.062 45 18.75 45zm0-35.625c-9.375 0-16.875 7.5-16.875 16.875s7.5 16.875 16.875 16.875 16.875-7.5 16.875-16.875-7.5-16.875-16.875-16.875z"/><path d="M18.75 38.438A12.163 12.163 0 016.562 26.25c0-6.75 5.438-12.188 12.188-12.188 6.75 0 12.188 5.438 12.188 12.188 0 6.75-5.438 12.188-12.188 12.188zm0-22.5c-5.625 0-10.313 4.687-10.313 10.312 0 5.625 4.688 10.313 10.313 10.313 5.625 0 10.313-4.688 10.313-10.313 0-5.625-4.688-10.313-10.313-10.313z"/><path d="M18.75 31.875c-3.188 0-5.625-2.438-5.625-5.625 0-3.188 2.438-5.625 5.625-5.625 3.188 0 5.625 2.438 5.625 5.625 0 3.188-2.438 5.625-5.625 5.625zm0-9.375A3.761 3.761 0 0015 26.25 3.761 3.761 0 0018.75 30a3.761 3.761 0 003.75-3.75 3.761 3.761 0 00-3.75-3.75z"/><path d="M18.75 27.188c-.188 0-.563 0-.75-.188a.906.906 0 010-1.313l14.063-14.062a.906.906 0 011.312 0 .906.906 0 010 1.313L19.312 27c0 .188-.375.188-.562.188z"/><path d="M37.5 13.125h-4.688c-.562 0-.937-.375-.937-.938V7.5c0-.188.188-.563.188-.75L38.624.187C39 0 39.375 0 39.75 0c.375.188.563.563.563.938v3.75h3.75c.374 0 .75.187.937.562 0 .375 0 .75-.188 1.125l-6.562 6.563c-.188 0-.563.187-.75.187zm-3.75-1.875h3.375l4.688-4.688h-2.438c-.563 0-.938-.375-.938-.937V3.187L33.75 7.875v3.375z"/></g><defs><clipPath id="clip0_957_8503"><path fill="#fff" d="M0 0h45v45H0z"/></clipPath></defs></svg>