<svg width="40" height="40" fill="none" xmlns="http://www.w3.org/2000/svg"><path d="M31.712 5.24h-3.62V3.623c0-.524-.57-.762-1.094-.762h-2.81C23.523.955 21.855.003 19.952.003a4.333 4.333 0 00-4.238 2.857h-2.762c-.524 0-1.047.238-1.047.762V5.24h-3.62a4.047 4.047 0 00-3.999 3.857V36.38c0 2.095 1.905 3.619 4 3.619h23.427c2.095 0 4-1.524 4-3.619V9.098a4.047 4.047 0 00-4-3.857zm-17.904-.475h2.62a1.05 1.05 0 00.904-.857 2.762 2.762 0 012.619-2.143 2.714 2.714 0 012.57 2.143c.086.469.478.821.953.857h2.714v3.809h-12.38v-3.81zM33.807 36.38c0 1.048-1.048 1.714-2.095 1.714H8.285c-1.048 0-2.095-.666-2.095-1.714V9.098c.097-1.09 1-1.933 2.095-1.953h3.619v2.429a1 1 0 001.047.905h14.047a1.047 1.047 0 001.095-.905V7.145h3.619a2.143 2.143 0 012.095 1.953V36.38z" fill="#fff"/><path d="M16.33 21.287a.952.952 0 00-1.332-.047l-3.048 2.904-1.285-1.333a.952.952 0 00-1.334-.048 1 1 0 000 1.381l1.953 2c.168.19.413.294.666.286a.952.952 0 00.667-.286l3.714-3.523a.905.905 0 000-1.334zm13.668 2.048H19.046a.952.952 0 100 1.904h10.952a.952.952 0 000-1.904zM16.33 13.669a.952.952 0 00-1.332-.048l-3.048 2.905-1.285-1.334a.952.952 0 00-1.334-.047 1 1 0 000 1.38l1.953 2c.168.19.413.294.666.286a.952.952 0 00.667-.285l3.714-3.524a.905.905 0 000-1.333zm13.668 2.047H19.046a.952.952 0 100 1.905h10.952a.952.952 0 100-1.905zM16.33 28.906a.952.952 0 00-1.332-.048l-3.048 2.904-1.285-1.333a.952.952 0 00-1.334-.047 1 1 0 000 1.38l1.953 2c.168.19.413.294.666.286a.952.952 0 00.667-.286l3.714-3.523a.905.905 0 000-1.333zm13.668 2.047H19.046a.952.952 0 100 1.905h10.952a.952.952 0 100-1.905z" fill="#fff"/></svg>