<svg width="40" height="40" fill="none" xmlns="http://www.w3.org/2000/svg"><g clip-path="url(#clip0_957_8414)"><path d="M38.275 27.194c.82-1.046 1.213-2.167 1.163-3.321-.05-1.272-.62-2.267-1.088-2.878.544-1.355.753-3.488-1.062-5.144-1.33-1.213-3.588-1.757-6.717-1.606-2.2.1-4.04.51-4.115.527h-.009c-.418.075-.861.167-1.313.268-.033-.536.059-1.866 1.046-4.86 1.17-3.564 1.104-6.29-.218-8.114C24.574.151 22.357 0 21.705 0a2.1 2.1 0 00-1.615.736c-.928 1.08-.82 3.07-.703 3.99-1.104 2.961-4.199 10.222-6.817 12.238a.826.826 0 00-.133.117 8.985 8.985 0 00-1.64 2.459 3.453 3.453 0 00-1.656-.418H4.038a3.482 3.482 0 00-3.48 3.48v13.592a3.482 3.482 0 003.48 3.48h5.103a3.47 3.47 0 002.007-.636l1.966.234c.301.042 5.654.72 11.15.61.996.076 1.932.118 2.802.118 1.498 0 2.803-.117 3.89-.351 2.56-.544 4.308-1.631 5.194-3.23.678-1.22.678-2.433.57-3.203 1.664-1.505 1.956-3.17 1.898-4.341a5.65 5.65 0 00-.343-1.681zM4.038 37.415a1.223 1.223 0 01-1.22-1.22V22.592c0-.677.551-1.221 1.22-1.221h5.103c.677 0 1.221.552 1.221 1.221v13.593c0 .677-.552 1.22-1.221 1.22H4.038v.01zm32.096-11.2a1.124 1.124 0 00-.15 1.363c0 .009.342.594.384 1.397.058 1.096-.468 2.066-1.573 2.894a1.14 1.14 0 00-.385 1.289c0 .008.36 1.112-.225 2.158-.56 1.003-1.807 1.723-3.698 2.124-1.513.327-3.571.385-6.097.184h-.117c-5.379.117-10.816-.585-10.875-.593h-.008l-.845-.1a3.57 3.57 0 00.075-.737v-13.6c0-.36-.058-.712-.158-1.038.15-.56.568-1.807 1.555-2.87 3.756-2.977 7.428-13.023 7.587-13.458a1.06 1.06 0 00.05-.56c-.142-.937-.092-2.083.11-2.426.442.008 1.639.134 2.358 1.129.853 1.18.82 3.287-.1 6.081-1.406 4.258-1.523 6.5-.41 7.487.552.493 1.288.518 1.823.326.51-.117.996-.218 1.456-.293l.108-.025c2.568-.56 7.169-.903 8.767.552 1.355 1.238.393 2.877.284 3.053a1.118 1.118 0 00.2 1.456c.01.008.887.836.93 1.948.033.745-.319 1.506-1.046 2.259z" fill="#fff"/></g><defs><clipPath id="clip0_957_8414"><path fill="#fff" d="M0 0h40v40H0z"/></clipPath></defs></svg>