<svg width="279" height="279" fill="none" xmlns="http://www.w3.org/2000/svg"><g opacity=".7" clip-path="url(#clip0_963_9510)" fill="#B8EFD5"><path d="M116.25 279C52.312 279 0 226.687 0 162.75 0 98.812 52.313 46.5 116.25 46.5S232.5 98.813 232.5 162.75 180.187 279 116.25 279zm0-220.875c-58.125 0-104.625 46.5-104.625 104.625s46.5 104.625 104.625 104.625 104.625-46.5 104.625-104.625-46.5-104.625-104.625-104.625z"/><path d="M116.25 238.312c-41.85 0-75.563-33.712-75.563-75.562 0-41.85 33.713-75.563 75.563-75.563s75.562 33.713 75.562 75.563-33.712 75.562-75.562 75.562zm0-139.5c-34.875 0-63.938 29.063-63.938 63.938s29.063 63.937 63.938 63.937 63.937-29.062 63.937-63.937-29.062-63.938-63.937-63.938z"/><path d="M116.25 197.625c-19.763 0-34.875-15.112-34.875-34.875 0-19.763 15.112-34.875 34.875-34.875 19.763 0 34.875 15.112 34.875 34.875 0 19.763-15.112 34.875-34.875 34.875zm0-58.125c-12.788 0-23.25 10.462-23.25 23.25 0 12.787 10.462 23.25 23.25 23.25 12.787 0 23.25-10.463 23.25-23.25 0-12.788-10.463-23.25-23.25-23.25z"/><path d="M116.249 168.562c-1.162 0-3.487 0-4.65-1.162-2.325-2.325-2.325-5.813 0-8.138l87.188-87.187c2.325-2.325 5.812-2.325 8.137 0s2.325 5.813 0 8.138L119.737 167.4c0 1.162-2.325 1.162-3.488 1.162z"/><path d="M232.5 81.375h-29.062c-3.488 0-5.813-2.325-5.813-5.813V46.5c0-1.163 1.163-3.487 1.163-4.65l40.687-40.688C241.8 0 244.125 0 246.45 0c2.325 1.163 3.488 3.487 3.488 5.813v23.25h23.25c2.325 0 4.65 1.162 5.812 3.487 0 2.325 0 4.65-1.162 6.975L237.15 80.213c-1.162 0-3.487 1.162-4.65 1.162zM209.25 69.75h20.925l29.063-29.063h-15.113c-3.487 0-5.812-2.325-5.812-5.812V19.762L209.25 48.825V69.75z"/></g><defs><clipPath id="clip0_963_9510"><path fill="#fff" d="M0 0h279v279H0z"/></clipPath></defs></svg>