<svg width="15" height="16" fill="none" xmlns="http://www.w3.org/2000/svg"><g clip-path="url(#clip0_1_5659)"><path d="M14.487 11.347c-.629-.634-1.257-1.26-1.867-1.864-.331-.328-.718-.501-1.124-.501-.406 0-.793.173-1.121.498l-.084.084c-.331.328-.675.669-1.006 1.01l-.201-.103c-.152-.074-.298-.145-.425-.226-.997-.625-1.913-1.458-2.799-2.552-.43-.53-.73-1-.941-1.477.294-.285.582-.576.864-.86.07-.072.145-.146.216-.217.69-.694.688-1.592-.003-2.289-.21-.213-.427-.427-.635-.634l-.278-.28c-.1-.098-.195-.194-.294-.293-.211-.214-.43-.434-.65-.648C3.806.67 3.416.5 3.013.5c-.402 0-.793.17-1.12.495-.159.158-.32.316-.471.471-.223.226-.456.458-.688.681a2.307 2.307 0 00-.721 1.549c-.072.969.198 1.845.44 2.502.55 1.483 1.393 2.889 2.576 4.298a16.047 16.047 0 005.273 4.128c1.115.542 2.072.817 3.004.87.068.003.136.006.201.006.787 0 1.434-.279 1.923-.824.21-.235.437-.455.675-.687.121-.118.245-.239.369-.363.693-.696.697-1.588.012-2.279zm-.6 1.691l-.357.353c-.238.232-.486.474-.715.731-.362.406-.82.576-1.455.542-.821-.046-1.673-.294-2.685-.787a15.21 15.21 0 01-5.001-3.91C2.553 8.631 1.757 7.308 1.24 5.915.92 5.061.803 4.399.85 3.77a1.47 1.47 0 01.464-1.003l.703-.706.461-.465c.118-.117.307-.257.536-.257.23 0 .418.14.539.257.214.21.434.43.641.641.1.1.195.198.294.294a7322.752 7322.752 0 00.91.91c.372.375.375.738.004 1.11-.072.074-.146.145-.217.22-.3.303-.613.619-.926.919a.65.65 0 00-.155.768c.242.579.592 1.143 1.1 1.768.944 1.161 1.929 2.056 3.003 2.731.167.106.338.19.502.27.099.046.189.093.279.142.111.062.223.09.334.09.177 0 .34-.077.486-.226.35-.362.716-.722 1.065-1.072l.084-.083c.118-.118.307-.257.533-.257.226 0 .415.14.535.257.607.604 1.236 1.23 1.861 1.86.363.357.36.738 0 1.1z" fill="#fff"/></g><defs><clipPath id="clip0_1_5659"><path fill="#fff" transform="translate(0 .5)" d="M0 0h15v15H0z"/></clipPath></defs></svg>