<svg width="18" height="18" fill="none" xmlns="http://www.w3.org/2000/svg"><path d="M16.232 12.514v2.143a1.421 1.421 0 01-.466 1.059 1.438 1.438 0 01-1.1.37 14.268 14.268 0 01-6.2-2.193 13.969 13.969 0 01-4.31-4.286 14.085 14.085 0 01-2.205-6.193 1.421 1.421 0 01.37-1.091 1.436 1.436 0 011.06-.466h2.155c.348-.003.686.12.95.345.265.226.437.54.486.884.091.685.26 1.359.503 2.007A1.421 1.421 0 017.152 6.6l-.912.907a11.461 11.461 0 004.31 4.286l.912-.907a1.439 1.439 0 011.515-.322c.652.242 1.33.41 2.019.5.349.05.668.224.895.491.228.268.35.609.34.96z" stroke="#2E56BD" stroke-width="2" stroke-linecap="round" stroke-linejoin="round"/></svg>