<svg width="19" height="19" fill="none" xmlns="http://www.w3.org/2000/svg"><g clip-path="url(#clip0_976_11707)" fill="#2E56BD"><path d="M9.29.571c-4.964 0-9 4.038-9 9 0 4.963 4.036 9 9 9 4.962 0 9-4.037 9-9 0-4.962-4.038-9-9-9zm0 16.033a7.04 7.04 0 01-7.034-7.033A7.04 7.04 0 019.29 2.54a7.04 7.04 0 017.033 7.032 7.04 7.04 0 01-7.033 7.033z"/><path d="M10.072 9.582V5.81a.762.762 0 10-1.525 0v4.016c0 .012.003.023.003.035a.758.758 0 00.22.576l2.84 2.84a.762.762 0 101.078-1.078l-2.616-2.617z"/></g><defs><clipPath id="clip0_976_11707"><path fill="#fff" transform="translate(.29 .571)" d="M0 0h18v18H0z"/></clipPath></defs></svg>