<svg width="16" height="16" fill="none" xmlns="http://www.w3.org/2000/svg"><g clip-path="url(#clip0_988_19650)" fill="#393D4F"><path d="M7.945 8.582h.099c.91-.015 1.647-.335 2.19-.947 1.197-1.348.998-3.66.976-3.88-.078-1.655-.86-2.447-1.506-2.817A3.457 3.457 0 008.032.5H7.98c-.345 0-1.022.056-1.672.426-.652.37-1.447 1.161-1.525 2.83-.022.22-.22 2.53.976 3.879.54.612 1.276.932 2.186.947zM5.613 3.833c0-.01.003-.019.003-.025.102-2.227 1.683-2.466 2.36-2.466h.038c.838.018 2.264.36 2.36 2.466 0 .01 0 .019.004.025.003.022.22 2.134-.768 3.246-.391.441-.913.659-1.6.665h-.03c-.684-.006-1.209-.224-1.597-.665-.985-1.106-.774-3.227-.77-3.246z"/><path d="M14.375 12.415v-.009c0-.025-.003-.05-.003-.077-.018-.616-.059-2.054-1.407-2.513l-.031-.01c-1.4-.357-2.566-1.165-2.578-1.174a.419.419 0 10-.482.687c.053.037 1.29.897 2.836 1.295.724.258.805 1.031.827 1.74a5.725 5.725 0 01-.062 1.037c-.504.286-2.476 1.273-5.477 1.273-2.988 0-4.973-.99-5.48-1.276a5.338 5.338 0 01-.064-.96c0-.025.003-.05.003-.078.021-.708.102-1.481.826-1.74 1.547-.397 2.783-1.26 2.836-1.294a.419.419 0 10-.481-.687c-.013.01-1.172.817-2.579 1.174l-.03.01c-1.349.462-1.39 1.9-1.408 2.512 0 .028 0 .053-.003.078v.01c-.003.16-.006.99.158 1.406a.4.4 0 00.162.196c.093.062 2.327 1.485 6.063 1.485 3.737 0 5.97-1.426 6.064-1.485a.415.415 0 00.161-.196c.155-.413.152-1.242.15-1.404z"/></g><defs><clipPath id="clip0_988_19650"><path fill="#fff" transform="translate(.5 .5)" d="M0 0h15v15H0z"/></clipPath></defs></svg>